<svg width="35" height="35" viewBox="0 0 35 35" fill="none" xmlns="http://www.w3.org/2000/svg">
<circle cx="17.5" cy="17.4888" r="16.3857" fill="url(#paint0_linear_14_60)" stroke="url(#paint1_linear_14_60)" stroke-width="1.77143"/>
<path d="M11.8952 22.7464C10.6262 22.7464 9.61737 22.4633 8.86876 21.8973C8.12927 21.3313 7.71388 20.537 7.62258 19.5145H9.89582C9.9506 19.9619 10.156 20.3042 10.5121 20.5416C10.8772 20.7698 11.352 20.8839 11.9363 20.8839C12.6027 20.8839 13.1094 20.7105 13.4563 20.3636C13.8032 20.0166 13.9767 19.5373 13.9767 18.9257C13.9767 18.2957 13.7896 17.821 13.4152 17.5015C13.0501 17.1728 12.5479 17.0085 11.9089 17.0085C11.4981 17.0085 11.1283 17.0815 10.7996 17.2276C10.471 17.3737 10.2062 17.5791 10.0054 17.8438H8.0471L8.84137 11.4897H15.5789V13.448H10.6627L10.3614 15.8308H10.4436C10.964 15.4199 11.6441 15.2145 12.484 15.2145C13.6161 15.2145 14.5153 15.5295 15.1818 16.1594C15.8483 16.7894 16.1815 17.6841 16.1815 18.8435C16.1815 20.0486 15.8117 21.0026 15.0722 21.7056C14.3328 22.3994 13.2737 22.7464 11.8952 22.7464ZM20.3888 22.7464C19.0011 22.7464 17.9467 22.2625 17.2255 21.2948C16.5134 20.3179 16.1573 18.8983 16.1573 17.0359C16.1573 15.1734 16.5134 13.7584 17.2255 12.7907C17.9467 11.8138 19.0011 11.3254 20.3888 11.3254C21.7765 11.3254 22.8264 11.8138 23.5385 12.7907C24.2597 13.7584 24.6203 15.1734 24.6203 17.0359C24.6203 18.8983 24.2597 20.3179 23.5385 21.2948C22.8264 22.2625 21.7765 22.7464 20.3888 22.7464ZM20.3888 20.8292C21.0553 20.8292 21.5483 20.5233 21.8678 19.9117C22.1873 19.3 22.3471 18.3414 22.3471 17.0359C22.3471 15.7303 22.1873 14.7718 21.8678 14.1601C21.5483 13.5484 21.0553 13.2426 20.3888 13.2426C19.7315 13.2426 19.2385 13.5438 18.9098 14.1464C18.5903 14.7489 18.4305 15.7121 18.4305 17.0359C18.4305 18.3596 18.5903 19.3228 18.9098 19.9253C19.2385 20.5279 19.7315 20.8292 20.3888 20.8292Z" fill="url(#paint2_linear_14_60)"/>
<path d="M21.5476 12.8906C21.5476 12.4133 21.7451 12.043 22.1401 11.7796C22.3706 11.6315 22.6174 11.5574 22.8808 11.5574C23.3581 11.5574 23.7285 11.7549 23.9918 12.15C24.1399 12.3804 24.214 12.6273 24.214 12.8906C24.214 13.368 24.0165 13.7383 23.6215 14.0017C23.391 14.1498 23.1441 14.2239 22.8808 14.2239C22.4035 14.2239 22.0331 14.0263 21.7698 13.6313C21.6216 13.4009 21.5476 13.154 21.5476 12.8906ZM23.2018 20.2727L25.3621 11.1501H26.9175L24.7695 20.2727H23.2018ZM26.004 18.5445C26.004 18.0671 26.2015 17.6968 26.5965 17.4334C26.8269 17.2853 27.0738 17.2112 27.3372 17.2112C27.8145 17.2112 28.1848 17.4088 28.4482 17.8038C28.5963 18.0342 28.6704 18.2811 28.6704 18.5445C28.6704 19.0218 28.4729 19.3921 28.0779 19.6555C27.8474 19.8036 27.6005 19.8777 27.3372 19.8777C26.8599 19.8777 26.4895 19.6802 26.2262 19.2851C26.078 19.0547 26.004 18.8078 26.004 18.5445Z" fill="url(#paint3_linear_14_60)"/>
<path d="M9.1745 25.3523C8.95217 25.3523 8.76367 25.3064 8.609 25.2146C8.45433 25.1203 8.33592 24.9886 8.25375 24.8195C8.174 24.6479 8.13412 24.4485 8.13412 24.2213C8.13412 23.9918 8.17279 23.7924 8.25012 23.6232C8.32987 23.454 8.44346 23.3235 8.59088 23.2317C8.74071 23.1375 8.91954 23.0903 9.12738 23.0903C9.29171 23.0903 9.43308 23.1218 9.5515 23.1846C9.66992 23.245 9.76054 23.3332 9.82338 23.4492H9.83788V22.2638H10.378V24.7687H10.6463V25.3088H10.0953V24.9608H9.943C9.86567 25.0865 9.76296 25.1832 9.63487 25.2508C9.50679 25.3185 9.35333 25.3523 9.1745 25.3523ZM9.26875 24.8847C9.44275 24.8847 9.5805 24.8364 9.682 24.7397C9.78592 24.6406 9.83788 24.5077 9.83788 24.341V24.1017C9.83788 23.935 9.78592 23.8033 9.682 23.7066C9.5805 23.6075 9.44275 23.558 9.26875 23.558C9.07542 23.558 8.928 23.6172 8.8265 23.7356C8.725 23.8516 8.67425 24.0135 8.67425 24.2213C8.67425 24.4292 8.725 24.5923 8.8265 24.7107C8.928 24.8267 9.07542 24.8847 9.26875 24.8847ZM11.7884 25.3523C11.5564 25.3523 11.3534 25.3064 11.1794 25.2146C11.0078 25.1203 10.8749 24.9886 10.7806 24.8195C10.6888 24.6479 10.6429 24.4461 10.6429 24.2141C10.6429 23.9821 10.6888 23.7827 10.7806 23.616C10.8724 23.4468 11.0029 23.3175 11.1721 23.2281C11.3413 23.1363 11.5394 23.0903 11.7666 23.0903C11.9889 23.0903 12.1799 23.1338 12.3394 23.2208C12.4989 23.3054 12.6221 23.4287 12.7091 23.5906C12.7961 23.7501 12.8396 23.9398 12.8396 24.1597V24.3482H11.1612C11.183 24.5319 11.247 24.6733 11.3534 24.7723C11.4621 24.869 11.6059 24.9173 11.7847 24.9173C11.9176 24.9173 12.0252 24.8932 12.1074 24.8448C12.1919 24.7941 12.2511 24.7192 12.285 24.6201H12.8287C12.778 24.8497 12.6608 25.0297 12.4771 25.1602C12.2959 25.2883 12.0663 25.3523 11.7884 25.3523ZM11.1757 23.9821H12.3212C12.3019 23.8323 12.2439 23.7187 12.1472 23.6413C12.053 23.5616 11.9261 23.5217 11.7666 23.5217C11.6095 23.5217 11.4802 23.5616 11.3787 23.6413C11.2772 23.7211 11.2096 23.8347 11.1757 23.9821ZM13.8861 25.3523C13.5719 25.3523 13.3242 25.2871 13.143 25.1566C12.9617 25.0237 12.8638 24.8388 12.8493 24.602H13.375C13.3919 24.7155 13.4438 24.8001 13.5308 24.8557C13.6178 24.9089 13.7435 24.9355 13.9078 24.9355C14.1858 24.9355 14.3247 24.8557 14.3247 24.6962C14.3247 24.6285 14.303 24.5766 14.2595 24.5403C14.2184 24.5041 14.1483 24.4763 14.0492 24.457L13.5671 24.3663C13.1442 24.2842 12.9327 24.0836 12.9327 23.7646C12.9327 23.5592 13.0137 23.396 13.1756 23.2752C13.3375 23.152 13.5598 23.0903 13.8426 23.0903C14.1302 23.0903 14.3573 23.1532 14.5241 23.2788C14.6933 23.4021 14.7875 23.5773 14.8068 23.8045H14.2848C14.2583 23.6957 14.2075 23.6172 14.1326 23.5688C14.0601 23.5181 13.955 23.4927 13.8172 23.4927C13.694 23.4927 13.5997 23.512 13.5345 23.5507C13.4692 23.5894 13.4366 23.6462 13.4366 23.7211C13.4366 23.7767 13.4571 23.8214 13.4982 23.8552C13.5393 23.889 13.6046 23.9144 13.694 23.9313L14.1833 24.0256C14.4057 24.0691 14.5688 24.1416 14.6727 24.2431C14.7766 24.3446 14.8286 24.4811 14.8286 24.6527C14.8286 24.8726 14.7476 25.0442 14.5857 25.1675C14.4238 25.2907 14.1906 25.3523 13.8861 25.3523ZM15.9381 25.3523C15.7133 25.3523 15.5164 25.3064 15.3472 25.2146C15.178 25.1203 15.0463 24.9886 14.9521 24.8195C14.8578 24.6503 14.8107 24.4509 14.8107 24.2213C14.8107 23.9918 14.8566 23.7924 14.9484 23.6232C15.0427 23.454 15.1744 23.3235 15.3436 23.2317C15.5127 23.1375 15.7109 23.0903 15.9381 23.0903C16.2184 23.0903 16.4504 23.1616 16.6341 23.3042C16.8177 23.4444 16.9337 23.6401 16.9821 23.8915H16.4419C16.4057 23.7827 16.3453 23.7005 16.2607 23.645C16.1761 23.5894 16.0686 23.5616 15.9381 23.5616C15.7592 23.5616 15.6167 23.6196 15.5103 23.7356C15.404 23.8492 15.3508 24.0111 15.3508 24.2213C15.3508 24.4316 15.404 24.5947 15.5103 24.7107C15.6167 24.8243 15.7592 24.8811 15.9381 24.8811C16.2184 24.8811 16.39 24.7603 16.4528 24.5186H16.9966C16.9507 24.782 16.8359 24.9874 16.6522 25.1348C16.4685 25.2798 16.2305 25.3523 15.9381 25.3523ZM18.0637 25.3523C17.8293 25.3523 17.6251 25.3064 17.4511 25.2146C17.2795 25.1203 17.1454 24.9886 17.0487 24.8195C16.9545 24.6503 16.9074 24.4509 16.9074 24.2213C16.9074 23.9893 16.9545 23.7888 17.0487 23.6196C17.1454 23.4504 17.2807 23.3199 17.4547 23.2281C17.6287 23.1363 17.8317 23.0903 18.0637 23.0903C18.3006 23.0903 18.5036 23.1363 18.6727 23.2281C18.8443 23.3199 18.9772 23.4504 19.0715 23.6196C19.1657 23.7888 19.2129 23.9893 19.2129 24.2213C19.2129 24.4509 19.1657 24.6515 19.0715 24.8231C18.9772 24.9923 18.8443 25.1228 18.6727 25.2146C18.5012 25.3064 18.2982 25.3523 18.0637 25.3523ZM18.0637 24.8811C18.2571 24.8811 18.4069 24.8231 18.5132 24.7071C18.6196 24.5887 18.6727 24.4268 18.6727 24.2213C18.6727 24.0135 18.6196 23.8516 18.5132 23.7356C18.4069 23.6196 18.2571 23.5616 18.0637 23.5616C17.868 23.5616 17.7157 23.6196 17.607 23.7356C17.5007 23.8516 17.4475 24.0123 17.4475 24.2177C17.4475 24.4255 17.5007 24.5887 17.607 24.7071C17.7157 24.8231 17.868 24.8811 18.0637 24.8811ZM19.4781 25.3088V23.674H19.2098V23.1338H19.7644V23.4818H19.9167C19.9988 23.3586 20.104 23.2631 20.2321 23.1955C20.3601 23.1278 20.5172 23.094 20.7033 23.094C21.0006 23.094 21.2301 23.1761 21.3921 23.3405C21.5564 23.5048 21.6386 23.7235 21.6386 23.9966V25.3088H21.0984V24.0981C21.0984 23.9265 21.0525 23.796 20.9607 23.7066C20.8713 23.6172 20.7371 23.5725 20.5583 23.5725C20.3843 23.5725 20.2502 23.6172 20.1559 23.7066C20.0641 23.796 20.0182 23.9265 20.0182 24.0981V25.3088H19.4781ZM22.5198 25.3088C22.3772 25.3088 22.266 25.2726 22.1863 25.2001C22.1089 25.1276 22.0703 25.0176 22.0703 24.8702V23.5543H21.686V23.1338H22.0739V22.4813H22.6031V23.1338H23.1288V23.5543H22.6104V24.8847H23.1795V25.3088H22.5198ZM24.2943 25.3523C24.0598 25.3523 23.8556 25.3064 23.6816 25.2146C23.5101 25.1203 23.3759 24.9886 23.2793 24.8195C23.185 24.6503 23.1379 24.4509 23.1379 24.2213C23.1379 23.9893 23.185 23.7888 23.2793 23.6196C23.3759 23.4504 23.5113 23.3199 23.6853 23.2281C23.8593 23.1363 24.0623 23.0903 24.2943 23.0903C24.5311 23.0903 24.7341 23.1363 24.9033 23.2281C25.0748 23.3199 25.2078 23.4504 25.302 23.6196C25.3963 23.7888 25.4434 23.9893 25.4434 24.2213C25.4434 24.4509 25.3963 24.6515 25.302 24.8231C25.2078 24.9923 25.0748 25.1228 24.9033 25.2146C24.7317 25.3064 24.5287 25.3523 24.2943 25.3523ZM24.2943 24.8811C24.4876 24.8811 24.6374 24.8231 24.7438 24.7071C24.8501 24.5887 24.9033 24.4268 24.9033 24.2213C24.9033 24.0135 24.8501 23.8516 24.7438 23.7356C24.6374 23.6196 24.4876 23.5616 24.2943 23.5616C24.0985 23.5616 23.9463 23.6196 23.8375 23.7356C23.7312 23.8516 23.678 24.0123 23.678 24.2177C23.678 24.4255 23.7312 24.5887 23.8375 24.7071C23.9463 24.8231 24.0985 24.8811 24.2943 24.8811Z" fill="#E1BDFF"/>
<defs>
<linearGradient id="paint0_linear_14_60" x1="34.86" y1="18.1088" x2="3.24" y2="6.94877" gradientUnits="userSpaceOnUse">
<stop stop-color="#130B1B"/>
<stop offset="1" stop-color="#491B6F"/>
</linearGradient>
<linearGradient id="paint1_linear_14_60" x1="2" y1="1.98877" x2="32.7886" y2="22.9657" gradientUnits="userSpaceOnUse">
<stop stop-color="#E8CCFF"/>
<stop offset="0.548208" stop-color="#A73EFF"/>
<stop offset="1" stop-color="#5B1993"/>
</linearGradient>
<linearGradient id="paint2_linear_14_60" x1="7.19806" y1="11.582" x2="18.8682" y2="24.5929" gradientUnits="userSpaceOnUse">
<stop stop-color="#E8CCFF"/>
<stop offset="0.548208" stop-color="#A73EFF"/>
<stop offset="1" stop-color="#5B1993"/>
</linearGradient>
<linearGradient id="paint3_linear_14_60" x1="21.2266" y1="15.3583" x2="29.3529" y2="17.4659" gradientUnits="userSpaceOnUse">
<stop stop-color="#E8CCFF"/>
<stop offset="0.558667" stop-color="#A73EFF"/>
<stop offset="1" stop-color="#5B1993"/>
</linearGradient>
</defs>
</svg>
