<svg width="1924" height="1571" viewBox="0 0 1924 1571" fill="none" xmlns="http://www.w3.org/2000/svg">
<path d="M1048 86H2654M1048 166H2654M1048 246H2654M1048 326H2654M1048 406H2654M1048 486H2654M1048 566H2654M1048 646H2654M1048 726H2654M1048 806H2654M1048 886H2654M1048 966H2654M1048 1046H2654M2580 0V1136M2494 0V1136M2408 0V1136M2322 0V1136M2236 0V1136M2150 0V1136M2064 0L2064 1136M1978 0L1978 1136M1892 0L1892 1136M1806 0L1806 1136M1720 0L1720 1136M1634 0L1634 1136M1548 0L1548 1136M1462 0L1462 1136M1376 0L1376 1136M1290 0L1290 1136M1204 0L1204 1136M1118 0L1118 1136" stroke="url(#paint0_radial_173_43)" stroke-width="4"/>
<path d="M-757 521H849M-757 601H849M-757 681H849M-757 761H849M-757 841H849M-757 921H849M-757 1001H849M-757 1081H849M-757 1161H849M-757 1241H849M-757 1321H849M-757 1401H849M-757 1481H849M775 435V1571M689 435V1571M603 435V1571M517 435V1571M431 435V1571M345 435V1571M259 435L259 1571M173 435L173 1571M87 435L87.0001 1571M1 435L1.00006 1571M-85 435L-84.9999 1571M-171 435L-171 1571M-257 435L-257 1571M-343 435L-343 1571M-429 435L-429 1571M-515 435L-515 1571M-601 435L-601 1571M-687 435L-687 1571" stroke="url(#paint1_radial_173_43)" stroke-width="4"/>
<defs>
<radialGradient id="paint0_radial_173_43" cx="0" cy="0" r="1" gradientUnits="userSpaceOnUse" gradientTransform="translate(1851 568) rotate(90) scale(568 516.057)">
<stop stop-color="#1F1428"/>
<stop offset="1" stop-color="#0A0A0A" stop-opacity="0"/>
</radialGradient>
<radialGradient id="paint1_radial_173_43" cx="0" cy="0" r="1" gradientUnits="userSpaceOnUse" gradientTransform="translate(46 1003) rotate(90) scale(568 516.057)">
<stop stop-color="#1F1428"/>
<stop offset="1" stop-color="#0A0A0A" stop-opacity="0"/>
</radialGradient>
</defs>
</svg>
