<svg width="209" height="208" viewBox="0 0 209 208" fill="none" xmlns="http://www.w3.org/2000/svg">
<path d="M85.7932 35.1304C85.3244 34.138 84.2245 33.0325 82.528 32.3651C81.6936 32.0341 80.8971 31.8883 80.1661 31.9331L80.0259 31.424C81.3055 30.7196 82.3974 29.4279 82.9142 27.9424C83.177 27.1919 83.2856 26.4969 83.2299 25.8211L83.739 25.6809C84.2822 26.8485 85.6015 27.9457 87.1367 28.501C87.8905 28.776 88.6285 28.8988 89.3352 28.8607L89.4754 29.3698C88.2067 30.019 86.9734 31.6496 86.5348 33.0875C86.3171 33.8125 86.2437 34.4456 86.3023 34.9902L85.7932 35.1304Z" fill="#C988FF"/>
<path d="M71.1794 40.4832C70.4153 40.8911 69.6629 41.0908 68.9221 41.0824C68.1842 41.0646 67.5051 40.853 66.885 40.4477C66.2616 40.0363 65.741 39.4392 65.3233 38.6567C64.9023 37.868 64.6959 37.1032 64.7043 36.3624C64.7094 35.6154 64.9115 34.9335 65.3106 34.3167C65.716 33.6965 66.3006 33.1825 67.0647 32.7747C67.835 32.3635 68.5874 32.1638 69.322 32.1755C70.0628 32.1838 70.7419 32.3954 71.3591 32.8102C71.9793 33.2155 72.4999 33.8125 72.9209 34.6012C73.3386 35.3838 73.5449 36.1485 73.5398 36.8955C73.5347 37.6424 73.3295 38.326 72.9242 38.9461C72.5251 39.563 71.9435 40.0754 71.1794 40.4832ZM70.5232 39.2539C71.275 38.8526 71.7354 38.306 71.9044 37.6141C72.0701 36.9159 71.9376 36.1633 71.5067 35.3561C71.0725 34.5427 70.521 34.0137 69.852 33.769C69.1892 33.5211 68.4788 33.5994 67.7209 34.004C66.9691 34.4053 66.5088 34.9519 66.3397 35.6438C66.1707 36.3358 66.3032 37.0885 66.7374 37.9018C67.1683 38.709 67.7199 39.238 68.3921 39.4889C69.0611 39.7335 69.7715 39.6552 70.5232 39.2539Z" fill="white"/>
<path d="M64.4477 44.3741L63.1566 45.2701L59.1064 39.4344L56.7738 41.0533L55.9853 39.9171L61.9415 35.7833L62.7301 36.9195L60.3975 38.5383L64.4477 44.3741Z" fill="white"/>
<path d="M60.4736 47.1079L59.1774 48.2519L51.5785 46.6719L51.547 46.6997L55.6583 51.3578L54.5193 52.3631L48.9036 46.0004L50.1683 44.8841L57.8611 46.507L57.8925 46.4793L53.7188 41.7504L54.8578 40.7452L60.4736 47.1079Z" fill="white"/>
<path d="M51.1319 56.2293C50.5598 56.8795 49.9255 57.3309 49.2289 57.5833C48.5318 57.8258 47.8217 57.8662 47.0987 57.7046C46.3705 57.5384 45.6733 57.1623 45.0073 56.5763C44.3361 55.9857 43.8743 55.3422 43.6219 54.6457C43.3643 53.9445 43.3139 53.2351 43.471 52.5173C43.6326 51.7943 43.9995 51.1077 44.5716 50.4574C45.1483 49.8019 45.7826 49.3506 46.4745 49.1034C47.1711 48.851 47.8812 48.8106 48.6048 48.9821C49.3278 49.1437 50.0249 49.5198 50.6961 50.1104C51.3621 50.6963 51.824 51.3399 52.0816 52.041C52.3392 52.7422 52.3872 53.4542 52.2256 54.1772C52.0686 54.895 51.704 55.579 51.1319 56.2293ZM50.0857 55.3088C50.6486 54.669 50.8876 53.9955 50.8028 53.2883C50.7128 52.5764 50.3242 51.9183 49.6373 51.3139C48.9451 50.7049 48.2428 50.4033 47.5305 50.4093C46.8229 50.41 46.1853 50.7329 45.6178 51.3779C45.0549 52.0177 44.8159 52.6912 44.9007 53.3984C44.9855 54.1056 45.374 54.7638 46.0662 55.3728C46.7532 55.9772 47.4554 56.2787 48.173 56.2774C48.8852 56.2715 49.5228 55.9486 50.0857 55.3088Z" fill="white"/>
<path d="M45.9864 62.7937C45.5012 63.5027 44.9281 64.0246 44.2672 64.3594C43.6045 64.6845 42.9017 64.8086 42.1587 64.7317C41.4196 64.6491 40.6841 64.3572 39.9521 63.8562C39.2201 63.3551 38.6818 62.7751 38.3373 62.116C37.9967 61.4512 37.8609 60.7531 37.9299 60.0216C37.9971 59.2804 38.2733 58.5553 38.7586 57.8464C39.1452 57.2815 39.5835 56.8451 40.0736 56.5373C40.5636 56.2294 41.0869 56.0586 41.6433 56.0247C42.194 55.9869 42.7477 56.0992 43.3044 56.3618L42.3753 57.7192C41.9263 57.5219 41.4886 57.5059 41.0623 57.6711C40.6302 57.8325 40.2485 58.1552 39.9171 58.6394C39.4437 59.331 39.2899 60.0256 39.4557 60.7232C39.6158 61.4168 40.0791 62.0259 40.8457 62.5507C41.6123 63.0754 42.3507 63.2888 43.061 63.1909C43.7655 63.0891 44.3545 62.6924 44.8279 62.0007C45.1593 61.5166 45.3249 61.0459 45.3247 60.5887C45.3187 60.1275 45.1425 59.7233 44.7961 59.3762L45.7252 58.0188C46.1714 58.4427 46.4794 58.9202 46.6492 59.4512C46.8133 59.9782 46.8405 60.5258 46.7308 61.0941C46.6212 61.6623 46.3731 62.2289 45.9864 62.7937Z" fill="white"/>
<path d="M42.0029 69.1627C41.4702 70.1531 40.8298 70.8278 40.0816 71.1867C39.3305 71.5362 38.5556 71.5319 37.7569 71.1737L38.536 69.725C38.9931 69.9074 39.4201 69.8951 39.8169 69.6882C40.217 69.4751 40.5725 69.0794 40.8835 68.5012C41.1647 67.9783 41.2903 67.5383 41.2604 67.1811C41.2275 66.8145 41.0419 66.5402 40.7036 66.3583C40.4391 66.216 40.1789 66.1911 39.923 66.2835C39.6643 66.3664 39.3971 66.5756 39.1215 66.9112L38.0031 68.2607C37.4977 68.8612 36.9832 69.2428 36.4596 69.4053C35.9393 69.5617 35.4115 69.496 34.8764 69.2081C34.1935 68.8409 33.7957 68.2978 33.6827 67.5788C33.5697 66.8598 33.7515 66.0574 34.2279 65.1715C34.7076 64.2796 35.2977 63.669 35.9981 63.3399C36.7019 63.0046 37.4396 62.9969 38.2114 63.3168L37.4323 64.7654C36.5333 64.5199 35.8225 64.8831 35.2997 65.8551C35.0648 66.2918 34.9626 66.681 34.9931 67.0225C35.0207 67.3546 35.1852 67.6017 35.4866 67.7638C35.9603 68.0185 36.4498 67.8456 36.9552 67.245L38.1126 65.8451C38.6312 65.2199 39.1552 64.8355 39.6845 64.6919C40.2109 64.5389 40.7602 64.6162 41.3323 64.9239C42.0582 65.3143 42.4788 65.8815 42.5941 66.6256C42.7128 67.3635 42.5157 68.2092 42.0029 69.1627Z" fill="white"/>
<path d="M39.6606 73.3485L37.3296 78.9944L29.4854 75.7558L31.8164 70.1099L33.0947 70.6377L31.3755 74.8019L33.2542 75.5776L34.8535 71.7039L36.0931 72.2156L34.4938 76.0893L36.6631 76.985L38.3823 72.8207L39.6606 73.3485Z" fill="white"/>
<path d="M34.7347 87.6414L26.5674 85.3357L27.4527 82.1999C27.7032 81.3126 28.0842 80.5927 28.5957 80.0404C29.1073 79.4881 29.7173 79.1268 30.4258 78.9567C31.1362 78.7799 31.9115 78.81 32.7518 79.0472C33.5853 79.2826 34.2586 79.6613 34.7716 80.1836C35.2846 80.7058 35.6181 81.337 35.772 82.0772C35.9192 82.8155 35.8686 83.625 35.62 84.5056L34.7347 87.6414ZM33.8594 85.7286L34.3092 84.1355C34.5615 83.2415 34.5054 82.489 34.1409 81.878C33.7782 81.2603 33.17 80.831 32.3163 80.59C31.4558 80.347 30.7129 80.395 30.0875 80.7337C29.4572 81.0638 29.0159 81.6759 28.7635 82.5699L28.3137 84.163L33.8594 85.7286Z" fill="white"/>
<path d="M33.6594 99.7139C32.5696 99.8443 31.1727 100.538 30.0024 101.935C29.4242 102.622 29.0336 103.331 28.8446 104.039L28.3173 104.011C28.0544 102.574 27.1749 101.129 25.9295 100.168C25.3009 99.6815 24.6761 99.3584 24.0174 99.1972L24.0457 98.6699C25.3251 98.5245 26.7837 97.6205 27.7966 96.3402C28.2961 95.7123 28.6463 95.0511 28.834 94.3687L29.3613 94.397C29.5754 95.806 30.7315 97.4921 31.9564 98.3636C32.5752 98.7996 33.1525 99.0698 33.6876 99.1866L33.6594 99.7139Z" fill="#C988FF"/>
<path d="M34.1083 115.272C34.2532 116.125 34.2044 116.902 33.9618 117.602C33.7113 118.297 33.2955 118.874 32.7147 119.334C32.127 119.795 31.3958 120.1 30.5213 120.248C29.6398 120.397 28.8491 120.351 28.1491 120.108C27.4422 119.867 26.8593 119.459 26.4006 118.885C25.9408 118.305 25.6384 117.587 25.4935 116.733C25.3474 115.873 25.3962 115.096 25.6399 114.402C25.8825 113.702 26.2982 113.125 26.8871 112.671C27.4679 112.211 28.1991 111.907 29.0805 111.757C29.9551 111.609 30.7458 111.655 31.4527 111.897C32.1596 112.138 32.743 112.549 33.2029 113.13C33.6616 113.704 33.9634 114.418 34.1083 115.272ZM32.7345 115.505C32.5919 114.665 32.2192 114.055 31.6164 113.675C31.0067 113.297 30.2508 113.184 29.3487 113.337C28.4397 113.492 27.7632 113.847 27.3193 114.404C26.8743 114.955 26.7236 115.653 26.8673 116.5C27.0099 117.34 27.3826 117.95 27.9854 118.33C28.5882 118.709 29.3441 118.822 30.2531 118.667C31.1552 118.514 31.8317 118.159 32.2825 117.601C32.7264 117.043 32.877 116.345 32.7345 115.505Z" fill="white"/>
<path d="M35.6677 122.889L36.1088 124.397L29.2908 126.391L30.0877 129.116L28.7603 129.504L26.7254 122.545L28.0528 122.157L28.8497 124.882L35.6677 122.889Z" fill="white"/>
<path d="M37.0012 127.524L37.6758 129.116L33.7708 135.824L33.7871 135.862L39.5075 133.438L40.1004 134.836L32.2867 138.148L31.6284 136.595L35.604 129.812L35.5876 129.774L29.7804 132.235L29.1876 130.836L37.0012 127.524Z" fill="white"/>
<path d="M42.6951 139.274C43.1307 140.022 43.3579 140.767 43.3768 141.507C43.386 142.245 43.1995 142.932 42.8173 143.566C42.4289 144.204 41.8514 144.747 41.0847 145.193C40.312 145.642 39.5553 145.877 38.8147 145.896C38.0681 145.918 37.3792 145.741 36.7481 145.365C36.1135 144.982 35.5784 144.417 35.1428 143.668C34.7037 142.914 34.4764 142.169 34.4611 141.435C34.4423 140.694 34.6288 140.008 35.0206 139.376C35.4029 138.741 35.9804 138.199 36.7531 137.749C37.5198 137.303 38.2765 137.069 39.0231 137.046C39.7698 137.024 40.4604 137.204 41.095 137.586C41.7261 137.963 42.2595 138.525 42.6951 139.274ZM41.4907 139.974C41.0621 139.238 40.499 138.798 39.8013 138.654C39.0975 138.514 38.3502 138.674 37.5594 139.135C36.7625 139.598 36.2541 140.169 36.0342 140.846C35.8107 141.518 35.9151 142.225 36.3472 142.968C36.7758 143.704 37.3389 144.144 38.0366 144.288C38.7343 144.431 39.4816 144.271 40.2785 143.807C41.0693 143.347 41.5777 142.776 41.8037 142.095C42.0236 141.418 41.9193 140.711 41.4907 139.974Z" fill="white"/>
<path d="M47.2926 146.233C47.8114 146.918 48.125 147.627 48.2333 148.36C48.3318 149.091 48.227 149.797 47.9187 150.477C47.6063 151.152 47.0965 151.758 46.3894 152.293C45.6824 152.829 44.9617 153.156 44.2275 153.274C43.489 153.386 42.7838 153.294 42.1118 152.997C41.4301 152.699 40.8298 152.207 40.311 151.522C39.8976 150.977 39.6226 150.423 39.4857 149.86C39.3489 149.298 39.3525 148.748 39.4966 148.209C39.6351 147.675 39.917 147.185 40.3424 146.74L41.3357 148.051C41.0063 148.415 40.8525 148.825 40.8743 149.281C40.8905 149.742 41.0758 150.207 41.4301 150.674C41.9362 151.342 42.5463 151.708 43.2605 151.772C43.9691 151.84 44.6936 151.593 45.4341 151.032C46.1746 150.471 46.6109 149.838 46.743 149.134C46.8695 148.433 46.6797 147.749 46.1736 147.081C45.8193 146.613 45.4252 146.307 44.9915 146.162C44.5522 146.022 44.113 146.061 43.674 146.28L42.6807 144.969C43.2241 144.68 43.7746 144.539 44.332 144.546C44.8839 144.557 45.4119 144.705 45.9162 144.989C46.4205 145.273 46.8793 145.687 47.2926 146.233Z" fill="white"/>
<path d="M52.073 152.028C52.8437 152.847 53.2809 153.668 53.3844 154.492C53.4781 155.315 53.2286 156.048 52.6359 156.693L51.5085 155.495C51.8262 155.119 51.9498 154.71 51.8792 154.268C51.8037 153.821 51.541 153.359 51.091 152.881C50.6841 152.448 50.3065 152.19 49.9583 152.105C49.6001 152.02 49.2812 152.109 49.0014 152.373C48.7827 152.578 48.6767 152.817 48.6833 153.089C48.68 153.361 48.7938 153.681 49.0248 154.048L49.9507 155.537C50.3603 156.206 50.5593 156.815 50.5477 157.363C50.5312 157.906 50.3018 158.386 49.8593 158.802C49.2947 159.334 48.6535 159.539 47.9358 159.419C47.218 159.298 46.5144 158.872 45.825 158.139C45.1309 157.402 44.7386 156.649 44.6483 155.88C44.5531 155.106 44.7794 154.404 45.3272 153.773L46.4546 154.971C45.937 155.746 46.0564 156.535 46.8128 157.339C47.1527 157.7 47.4895 157.92 47.8231 158C48.1468 158.079 48.4333 158.001 48.6825 157.766C49.0741 157.398 49.0651 156.878 48.6555 156.209L47.6942 154.668C47.2654 153.978 47.0667 153.359 47.0981 152.812C47.1197 152.264 47.3669 151.767 47.8399 151.322C48.4401 150.757 49.1114 150.538 49.8537 150.664C50.5912 150.785 51.331 151.24 52.073 152.028Z" fill="white"/>
<path d="M55.2996 155.576L59.9168 159.575L54.3608 165.99L49.7436 161.991L50.649 160.946L54.0545 163.895L55.3852 162.359L52.2173 159.615L53.0953 158.602L56.2632 161.345L57.7997 159.571L54.3942 156.622L55.2996 155.576Z" fill="white"/>
<path d="M67.297 164.774L62.5235 171.79L59.8294 169.958C59.0671 169.439 58.505 168.85 58.1431 168.189C57.7812 167.529 57.6317 166.836 57.6947 166.11C57.7519 165.381 58.0261 164.655 58.5172 163.933C59.0043 163.217 59.5768 162.698 60.2347 162.377C60.8925 162.056 61.5968 161.939 62.3477 162.028C63.0946 162.122 63.8463 162.426 64.6029 162.941L67.297 164.774ZM65.2055 164.998L63.8368 164.067C63.0687 163.544 62.3371 163.359 61.6421 163.512C60.9414 163.66 60.3415 164.101 59.8426 164.834C59.3397 165.574 59.1499 166.294 59.2731 166.994C59.3866 167.696 59.8274 168.309 60.5955 168.831L61.9642 169.763L65.2055 164.998Z" fill="white"/>
<path d="M78.4086 169.618C78.1873 170.693 78.4024 172.238 79.3577 173.791C79.8259 174.557 80.375 175.152 80.9863 175.555L80.7925 176.046C79.3464 175.841 77.6975 176.217 76.3919 177.094C75.731 177.536 75.2267 178.027 74.8652 178.601L74.374 178.407C74.6412 177.147 74.2457 175.477 73.352 174.111C72.9145 173.438 72.3983 172.897 71.8105 172.503L72.0042 172.012C73.4085 172.255 75.374 171.692 76.5885 170.806C77.1981 170.357 77.6372 169.895 77.9174 169.425L78.4086 169.618Z" fill="#C988FF"/>
<path d="M93.3081 174.118C94.164 174.251 94.8855 174.543 95.4727 174.995C96.0519 175.453 96.4676 176.03 96.7199 176.726C96.9711 177.43 97.0286 178.22 96.8924 179.096C96.7551 179.98 96.4606 180.715 96.0089 181.302C95.5561 181.896 94.9849 182.32 94.2952 182.573C93.5986 182.826 92.8224 182.885 91.9666 182.752C91.1038 182.618 90.3823 182.326 89.802 181.875C89.2148 181.424 88.7991 180.847 88.5548 180.144C88.3025 179.448 88.245 178.658 88.3823 177.774C88.5185 176.898 88.813 176.162 89.2658 175.568C89.7186 174.974 90.2933 174.551 90.9899 174.299C91.6795 174.045 92.4523 173.985 93.3081 174.118ZM93.0942 175.495C92.2521 175.364 91.5557 175.525 91.0049 175.976C90.453 176.435 90.1068 177.116 89.9663 178.02C89.8247 178.931 89.9479 179.686 90.3357 180.283C90.7166 180.879 91.3316 181.244 92.1805 181.375C93.0225 181.506 93.719 181.346 94.2698 180.894C94.8206 180.443 95.1668 179.761 95.3084 178.85C95.4489 177.946 95.3257 177.192 94.939 176.587C94.5512 175.99 93.9362 175.626 93.0942 175.495Z" fill="white"/>
<path d="M101.027 175.053L102.597 175.112L102.329 182.21L105.166 182.317L105.114 183.699L97.869 183.426L97.9212 182.044L100.758 182.151L101.027 175.053Z" fill="white"/>
<path d="M105.847 175.254L107.57 175.118L112.696 180.946L112.738 180.943L112.249 174.749L113.764 174.63L114.431 183.09L112.749 183.223L107.574 177.304L107.532 177.307L108.028 183.595L106.514 183.714L105.847 175.254Z" fill="white"/>
<path d="M118.794 173.575C119.642 173.399 120.42 173.419 121.129 173.636C121.832 173.86 122.424 174.255 122.904 174.818C123.387 175.389 123.718 176.108 123.899 176.977C124.08 177.852 124.063 178.644 123.846 179.352C123.631 180.068 123.245 180.665 122.688 181.145C122.125 181.625 121.419 181.954 120.571 182.13C119.716 182.308 118.938 182.287 118.236 182.069C117.528 181.853 116.936 181.458 116.46 180.887C115.979 180.323 115.648 179.604 115.466 178.728C115.286 177.86 115.303 177.068 115.519 176.352C115.734 175.637 116.123 175.039 116.687 174.558C117.244 174.079 117.946 173.751 118.794 173.575ZM119.077 174.939C118.243 175.112 117.647 175.507 117.29 176.124C116.934 176.747 116.85 177.506 117.036 178.402C117.223 179.305 117.604 179.968 118.177 180.391C118.743 180.816 119.446 180.94 120.288 180.766C121.122 180.592 121.718 180.198 122.075 179.581C122.432 178.965 122.517 178.205 122.329 177.303C122.143 176.407 121.763 175.744 121.188 175.314C120.615 174.891 119.912 174.766 119.077 174.939Z" fill="white"/>
<path d="M126.851 171.418C127.664 171.143 128.436 171.07 129.166 171.199C129.891 171.337 130.527 171.66 131.075 172.168C131.616 172.678 132.029 173.354 132.313 174.194C132.597 175.034 132.679 175.821 132.558 176.555C132.431 177.291 132.12 177.931 131.626 178.474C131.127 179.026 130.47 179.44 129.657 179.715C129.008 179.935 128.396 180.02 127.819 179.972C127.242 179.923 126.721 179.746 126.256 179.439C125.793 179.138 125.418 178.715 125.131 178.171L126.689 177.644C126.929 178.072 127.27 178.347 127.71 178.471C128.152 178.602 128.651 178.573 129.207 178.385C130.001 178.117 130.541 177.654 130.828 176.997C131.116 176.346 131.112 175.581 130.814 174.701C130.517 173.821 130.055 173.206 129.428 172.858C128.804 172.516 128.094 172.479 127.3 172.748C126.745 172.936 126.329 173.213 126.055 173.578C125.783 173.951 125.681 174.38 125.749 174.865L124.191 175.392C124.089 174.785 124.129 174.218 124.313 173.692C124.498 173.172 124.805 172.718 125.234 172.33C125.663 171.941 126.202 171.637 126.851 171.418Z" fill="white"/>
<path d="M133.862 168.719C134.883 168.248 135.8 168.093 136.614 168.256C137.424 168.427 138.041 168.896 138.464 169.663L136.971 170.353C136.715 169.932 136.367 169.686 135.925 169.613C135.477 169.543 134.955 169.645 134.359 169.921C133.82 170.17 133.456 170.446 133.265 170.75C133.071 171.062 133.055 171.393 133.216 171.742C133.342 172.015 133.535 172.191 133.795 172.271C134.051 172.36 134.391 172.353 134.813 172.25L136.518 171.843C137.282 171.667 137.923 171.671 138.439 171.856C138.949 172.043 139.331 172.413 139.586 172.964C139.912 173.668 139.903 174.341 139.562 174.984C139.22 175.627 138.593 176.159 137.68 176.581C136.76 177.006 135.922 177.139 135.164 176.982C134.4 176.827 133.806 176.39 133.381 175.671L134.874 174.981C135.445 175.717 136.232 175.854 137.233 175.391C137.684 175.183 137.999 174.933 138.18 174.642C138.357 174.36 138.374 174.063 138.231 173.752C138.005 173.264 137.51 173.108 136.745 173.285L134.979 173.709C134.189 173.897 133.539 173.889 133.029 173.686C132.517 173.492 132.124 173.101 131.851 172.511C131.506 171.763 131.51 171.057 131.865 170.392C132.213 169.731 132.879 169.174 133.862 168.719Z" fill="white"/>
<path d="M138.249 166.781L143.504 163.668L147.829 170.969L142.574 174.083L141.869 172.893L145.745 170.597L144.709 168.848L141.104 170.984L140.42 169.83L144.026 167.694L142.83 165.675L138.954 167.971L138.249 166.781Z" fill="white"/>
<path d="M150.773 158.313L155.917 165.063L153.326 167.038C152.592 167.597 151.855 167.943 151.114 168.078C150.374 168.212 149.669 168.134 149 167.845C148.326 167.559 147.725 167.069 147.195 166.375C146.67 165.686 146.36 164.979 146.263 164.253C146.167 163.527 146.28 162.822 146.601 162.138C146.927 161.459 147.454 160.843 148.182 160.288L150.773 158.313ZM150.324 160.368L149.007 161.372C148.268 161.935 147.861 162.57 147.786 163.277C147.704 163.989 147.933 164.698 148.47 165.403C149.012 166.114 149.635 166.522 150.338 166.627C151.041 166.742 151.761 166.518 152.5 165.955L153.817 164.951L150.324 160.368Z" fill="white"/>
<path d="M158.886 149.309C159.836 149.859 161.369 150.144 163.144 149.73C164.019 149.528 164.757 149.196 165.334 148.744L165.738 149.083C165.085 150.39 164.92 152.073 165.339 153.589C165.549 154.356 165.854 154.99 166.284 155.514L165.945 155.919C164.834 155.266 163.125 155.113 161.546 155.528C160.77 155.73 160.093 156.048 159.533 156.481L159.128 156.141C159.803 154.886 159.892 152.844 159.436 151.411C159.204 150.691 158.905 150.128 158.547 149.713L158.886 149.309Z" fill="#C988FF"/>
<path d="M167.873 136.601C168.27 135.832 168.776 135.24 169.391 134.826C170.008 134.422 170.687 134.21 171.428 134.191C172.175 134.176 172.942 134.371 173.73 134.778C174.525 135.188 175.129 135.7 175.543 136.315C175.963 136.932 176.184 137.608 176.206 138.343C176.225 139.083 176.036 139.839 175.638 140.608C175.238 141.384 174.732 141.976 174.121 142.384C173.507 142.798 172.827 143.009 172.084 143.018C171.343 143.037 170.576 142.842 169.781 142.432C168.993 142.025 168.389 141.513 167.969 140.895C167.548 140.277 167.329 139.598 167.31 138.858C167.288 138.123 167.476 137.371 167.873 136.601ZM169.112 137.24C168.721 137.998 168.652 138.709 168.906 139.375C169.166 140.043 169.703 140.587 170.516 141.007C171.336 141.43 172.09 141.552 172.78 141.373C173.466 141.201 174.006 140.733 174.4 139.969C174.791 139.212 174.859 138.501 174.605 137.835C174.351 137.17 173.815 136.625 172.995 136.203C172.182 135.783 171.428 135.661 170.732 135.837C170.042 136.015 169.502 136.483 169.112 137.24Z" fill="white"/>
<path d="M171.204 129.576L171.757 128.105L178.405 130.607L179.405 127.95L180.7 128.437L178.146 135.222L176.852 134.735L177.852 132.078L171.204 129.576Z" fill="white"/>
<path d="M172.921 125.068L173.338 123.39L180.49 120.374L180.5 120.334L174.47 118.835L174.837 117.361L183.073 119.408L182.666 121.045L175.413 124.079L175.403 124.119L181.524 125.64L181.157 127.115L172.921 125.068Z" fill="white"/>
<path d="M175.428 112.255C175.53 111.395 175.795 110.663 176.225 110.06C176.661 109.464 177.223 109.028 177.91 108.75C178.603 108.473 179.391 108.387 180.272 108.491C181.16 108.595 181.905 108.863 182.509 109.293C183.119 109.723 183.563 110.279 183.842 110.959C184.119 111.645 184.207 112.419 184.106 113.279C184.004 114.146 183.738 114.878 183.309 115.474C182.879 116.078 182.318 116.514 181.625 116.784C180.938 117.062 180.15 117.148 179.263 117.044C178.382 116.94 177.636 116.672 177.026 116.242C176.415 115.811 175.971 115.252 175.694 114.565C175.415 113.885 175.327 113.115 175.428 112.255ZM176.812 112.419C176.712 113.265 176.898 113.955 177.37 114.489C177.848 115.024 178.542 115.344 179.45 115.452C180.366 115.56 181.115 115.409 181.698 114.999C182.28 114.597 182.621 113.969 182.722 113.116C182.822 112.27 182.636 111.579 182.165 111.046C181.693 110.512 180.999 110.191 180.084 110.083C179.175 109.975 178.426 110.126 177.836 110.535C177.253 110.944 176.912 111.572 176.812 112.419Z" fill="white"/>
<path d="M175.934 103.93C175.931 103.07 176.106 102.315 176.46 101.664C176.82 101.02 177.328 100.519 177.984 100.16C178.639 99.8085 179.41 99.6309 180.297 99.6275C181.184 99.6241 181.957 99.7957 182.614 100.142C183.272 100.496 183.781 100.993 184.139 101.635C184.505 102.283 184.69 103.037 184.693 103.896C184.696 104.58 184.583 105.188 184.354 105.72C184.126 106.252 183.792 106.69 183.354 107.034C182.922 107.377 182.402 107.599 181.795 107.7L181.789 106.055C182.27 105.962 182.64 105.727 182.897 105.348C183.161 104.97 183.291 104.488 183.289 103.901C183.286 103.063 183.018 102.404 182.485 101.924C181.959 101.444 181.232 101.206 180.303 101.21C179.374 101.213 178.645 101.457 178.116 101.941C177.594 102.425 177.335 103.086 177.338 103.924C177.34 104.511 177.471 104.992 177.731 105.368C177.998 105.745 178.373 105.977 178.855 106.066L178.862 107.711C178.253 107.616 177.729 107.398 177.287 107.057C176.853 106.716 176.52 106.281 176.287 105.751C176.054 105.221 175.937 104.614 175.934 103.93Z" fill="white"/>
<path d="M175.594 96.4252C175.47 95.3076 175.614 94.3885 176.026 93.6681C176.446 92.9538 177.086 92.5172 177.947 92.3583L178.128 93.9931C177.649 94.1027 177.304 94.3553 177.095 94.751C176.887 95.1536 176.819 95.6812 176.891 96.3338C176.957 96.9239 177.104 97.3574 177.331 97.6343C177.566 97.9173 177.875 98.0377 178.257 97.9952C178.555 97.962 178.784 97.8348 178.942 97.6134C179.108 97.3982 179.209 97.0742 179.245 96.6415L179.399 94.8956C179.473 94.1142 179.68 93.5079 180.019 93.0767C180.358 92.6525 180.83 92.4068 181.434 92.3397C182.204 92.2541 182.84 92.475 183.342 93.0026C183.843 93.5302 184.149 94.2938 184.26 95.2935C184.372 96.3001 184.233 97.1377 183.844 97.8065C183.455 98.4822 182.852 98.9076 182.036 99.0827L181.854 97.4479C182.733 97.1393 183.112 96.4366 182.99 95.3398C182.935 94.8469 182.798 94.4686 182.579 94.2048C182.368 93.9471 182.092 93.8372 181.752 93.875C181.217 93.9344 180.913 94.3548 180.838 95.1362L180.681 96.9458C180.609 97.7549 180.396 98.3689 180.042 98.7877C179.696 99.2128 179.2 99.4611 178.554 99.5329C177.735 99.6239 177.067 99.396 176.549 98.8491C176.032 98.3092 175.714 97.5012 175.594 96.4252Z" fill="white"/>
<path d="M175.145 91.6495L173.856 85.6788L182.151 83.8884L183.44 89.8591L182.088 90.1508L181.138 85.7471L179.151 86.1759L180.035 90.2724L178.724 90.5553L177.84 86.4588L175.546 86.9539L176.496 91.3577L175.145 91.6495Z" fill="white"/>
<path d="M171.079 77.0897L179.11 74.348L180.163 77.4316C180.461 78.3042 180.556 79.113 180.449 79.8582C180.341 80.6033 180.045 81.2471 179.558 81.7896C179.074 82.3387 178.419 82.7543 177.592 83.0363C176.773 83.3162 176.003 83.3869 175.285 83.2485C174.566 83.1101 173.933 82.78 173.386 82.2583C172.845 81.7343 172.427 81.0393 172.131 80.1734L171.079 77.0897ZM172.886 78.1667L173.42 79.7333C173.721 80.6125 174.194 81.1999 174.841 81.4957C175.491 81.798 176.235 81.8059 177.075 81.5193C177.921 81.2305 178.505 80.769 178.827 80.135C179.158 79.5053 179.174 78.7508 178.874 77.8717L178.339 76.305L172.886 78.1667Z" fill="white"/>
<path d="M165.109 66.5409C165.931 65.8144 166.687 64.4505 166.856 62.6353C166.942 61.7417 166.861 60.9361 166.614 60.2464L167.064 59.9701C168.097 61.0033 169.641 61.6927 171.212 61.7759C172.006 61.8196 172.704 61.7306 173.337 61.4891L173.614 61.9391C172.643 62.7856 171.956 64.3581 171.85 65.9872C171.796 66.7877 171.883 67.5307 172.116 68.199L171.666 68.4752C170.69 67.4372 168.78 66.7062 167.277 66.6848C166.52 66.6774 165.892 66.783 165.385 66.9909L165.109 66.5409Z" fill="#C988FF"/>
<path d="M155.9 53.9931C155.295 53.3727 154.894 52.7055 154.696 51.9916C154.508 51.2779 154.522 50.5668 154.739 49.8584C154.961 49.1451 155.39 48.479 156.025 47.86C156.666 47.2363 157.343 46.8253 158.057 46.6273C158.776 46.4244 159.487 46.4288 160.19 46.6406C160.899 46.8575 161.555 47.2761 162.159 47.8966C162.769 48.522 163.17 49.1892 163.363 49.8981C163.561 50.612 163.547 51.3231 163.32 52.0313C163.103 52.7398 162.675 53.4059 162.034 54.0296C161.399 54.6486 160.721 55.0595 160.003 55.2624C159.284 55.4653 158.57 55.4583 157.862 55.2415C157.158 55.0297 156.504 54.6136 155.9 53.9931ZM156.898 53.0209C157.493 53.6314 158.146 53.9215 158.857 53.8914C159.574 53.8564 160.26 53.5197 160.916 52.8813C161.576 52.238 161.931 51.561 161.98 50.8504C162.033 50.1448 161.761 49.4842 161.161 48.8688C160.567 48.2583 159.914 47.9682 159.202 47.9983C158.49 48.0284 157.804 48.3651 157.144 49.0084C156.488 49.6468 156.133 50.3238 156.08 51.0393C156.031 51.7499 156.303 52.4104 156.898 53.0209Z" fill="white"/>
<path d="M150.291 48.6094L149.071 47.6186L153.549 42.1049L151.346 40.3147L152.218 39.2412L157.845 43.8125L156.973 44.8859L154.769 43.0957L150.291 48.6094Z" fill="white"/>
<path d="M146.56 45.5522L145.1 44.6255L144.504 36.8869L144.469 36.8645L141.138 42.1092L139.855 41.2948L144.405 34.1308L145.829 35.0351L146.41 42.8757L146.445 42.8982L149.827 37.5738L151.109 38.3882L146.56 45.5522Z" fill="white"/>
<path d="M135.2 39.1165C134.417 38.7479 133.807 38.2641 133.37 37.6653C132.944 37.0631 132.707 36.3923 132.661 35.6529C132.618 34.9071 132.786 34.1329 133.163 33.3302C133.544 32.5212 134.033 31.8986 134.632 31.4624C135.234 31.0199 135.902 30.7742 136.635 30.7254C137.374 30.6795 138.136 30.8409 138.919 31.2095C139.709 31.5812 140.319 32.0649 140.749 32.6607C141.186 33.2596 141.422 33.9304 141.458 34.6732C141.504 35.4126 141.337 36.1868 140.956 36.9958C140.579 37.7985 140.089 38.4211 139.487 38.8637C138.886 39.3062 138.215 39.5503 137.476 39.5962C136.742 39.645 135.984 39.4851 135.2 39.1165ZM135.793 37.8556C136.565 38.2183 137.278 38.2605 137.934 37.9823C138.592 37.6978 139.116 37.1415 139.506 36.3135C139.898 35.4792 139.993 34.7208 139.789 34.0383C139.591 33.3588 139.104 32.8362 138.326 32.4705C137.555 32.1078 136.842 32.0655 136.186 32.3437C135.53 32.6219 135.006 33.1782 134.614 34.0125C134.224 34.8405 134.13 35.5989 134.331 36.2877C134.535 36.9703 135.022 37.4929 135.793 37.8556Z" fill="white"/>
<path d="M127.463 36.0004C126.647 35.7315 125.986 35.3262 125.481 34.7846C124.984 34.2385 124.669 33.5979 124.536 32.8628C124.41 32.1299 124.486 31.3422 124.764 30.4997C125.041 29.6572 125.449 28.9789 125.986 28.4646C126.53 27.9525 127.163 27.6279 127.884 27.4907C128.615 27.349 129.388 27.4127 130.204 27.6816C130.854 27.8958 131.395 28.1955 131.827 28.5805C132.26 28.9656 132.569 29.4207 132.757 29.9457C132.946 30.4642 132.992 31.0272 132.895 31.635L131.333 31.1201C131.397 30.634 131.291 30.2092 131.013 29.8456C130.738 29.4755 130.322 29.1986 129.765 29.015C128.969 28.7526 128.259 28.7981 127.635 29.1514C127.013 29.4981 126.557 30.1126 126.266 30.9949C125.975 31.8772 125.976 32.6459 126.267 33.3009C126.561 33.9493 127.106 34.4046 127.902 34.667C128.459 34.8506 128.958 34.8788 129.397 34.7514C129.838 34.6173 130.177 34.3357 130.414 33.9063L131.977 34.4212C131.694 34.9677 131.321 35.3964 130.858 35.7072C130.397 36.0114 129.879 36.1899 129.302 36.2426C128.726 36.2954 128.113 36.2146 127.463 36.0004Z" fill="white"/>
<path d="M120.236 33.9462C119.137 33.7101 118.311 33.2826 117.758 32.6638C117.213 32.0396 117.002 31.2941 117.123 30.4273L118.732 30.7727C118.684 31.2624 118.814 31.6691 119.123 31.9927C119.439 32.3177 119.918 32.5492 120.56 32.687C121.141 32.8117 121.598 32.81 121.933 32.6818C122.276 32.5483 122.488 32.2937 122.569 31.9181C122.632 31.6245 122.583 31.3676 122.423 31.1475C122.272 30.9221 121.996 30.7237 121.597 30.5522L119.99 29.8534C119.273 29.535 118.763 29.147 118.461 28.6892C118.166 28.233 118.083 27.7078 118.21 27.1136C118.373 26.3556 118.784 25.8223 119.443 25.5138C120.102 25.2053 120.924 25.1567 121.907 25.3679C122.897 25.5805 123.648 25.9775 124.159 26.5587C124.677 27.1415 124.889 27.8479 124.797 28.6782L123.188 28.3328C123.174 27.401 122.628 26.8193 121.549 26.5876C121.064 26.4834 120.662 26.4935 120.342 26.6177C120.031 26.7366 119.839 26.9634 119.767 27.298C119.654 27.8239 119.957 28.246 120.674 28.5644L122.341 29.2866C123.085 29.6109 123.6 30.0073 123.886 30.4757C124.179 30.9388 124.258 31.4879 124.121 32.123C123.948 32.9288 123.52 33.4906 122.838 33.8084C122.162 34.1276 121.295 34.1736 120.236 33.9462Z" fill="white"/>
<path d="M115.564 32.8599L109.493 32.1914L110.421 23.7559L116.493 24.4244L116.342 25.7991L111.863 25.306L111.641 27.3264L115.807 27.785L115.66 29.118L111.494 28.6594L111.237 30.9922L115.716 31.4852L115.564 32.8599Z" fill="white"/>
<path d="M100.467 32.1055L100.409 23.6192L103.668 23.5972C104.59 23.591 105.387 23.7567 106.06 24.0944C106.733 24.4322 107.249 24.9176 107.61 25.5508C107.977 26.184 108.164 26.9371 108.17 27.8102C108.176 28.6763 107.999 29.4283 107.64 30.0664C107.281 30.7044 106.768 31.2003 106.1 31.5541C105.432 31.9009 104.64 32.0773 103.725 32.0835L100.467 32.1055ZM102.06 30.7327L103.716 30.7215C104.645 30.7152 105.352 30.452 105.837 29.9319C106.33 29.4116 106.573 28.708 106.567 27.821C106.561 26.9269 106.308 26.2267 105.809 25.7201C105.317 25.2066 104.606 24.9529 103.677 24.9592L102.022 24.9704L102.06 30.7327Z" fill="white"/>
</svg>
