<svg width="3441" height="1363" viewBox="0 0 3441 1363" fill="none" xmlns="http://www.w3.org/2000/svg">
<mask id="mask0_172_26" style="mask-type:alpha" maskUnits="userSpaceOnUse" x="0" y="0" width="1718" height="1363">
<rect width="1718" height="1363" fill="url(#paint0_linear_172_26)"/>
</mask>
<g mask="url(#mask0_172_26)">
<path fill-rule="evenodd" clip-rule="evenodd" d="M20.2017 0L20.2018 40.7782H0V0H20.2017ZM24.2017 0L24.2018 40.7782H119.964V0H24.2017ZM123.964 0V40.7782H219.726V0H123.964ZM223.726 0V40.7782H319.488V0H223.726ZM323.488 0V40.7782H419.25V0H323.488ZM423.25 0V40.7782H519.012V0H423.25ZM523.012 0V40.7782H618.775V0H523.012ZM622.775 0V40.7782H718.537V0H622.775ZM722.537 0V40.7782H818.299V0H722.537ZM822.299 0V40.7782H918.061V0H822.299ZM922.061 0V40.7782H1017.82V0H922.061ZM1021.82 0V40.7782H1117.59V0H1021.82ZM1121.59 0V40.7782H1217.35V0H1121.59ZM1221.35 0V40.7782H1317.11V0H1221.35ZM1321.11 0V40.7782H1416.87V0H1321.11ZM1420.87 0V40.7782H1516.63V0H1420.87ZM1520.63 0V40.7782H1616.4V0H1520.63ZM1620.4 0V40.7782H1716.16V0H1620.4ZM1720.16 0V40.7782H1746V0H1720.16ZM1746 44.7782H1720.16V133.595H1746V44.7782ZM1746 137.595H1720.16V226.412H1746V137.595ZM1746 230.412H1720.16V319.229H1746V230.412ZM1746 323.229H1720.16V412.046H1746V323.229ZM1746 416.046H1720.16V504.863H1746V416.046ZM1746 508.863H1720.16V597.68H1746V508.863ZM1746 601.68H1720.16V690.497H1746V601.68ZM1746 694.497H1720.16V783.313H1746V694.497ZM1746 787.313H1720.16V876.13H1746V787.313ZM1746 880.13H1720.16V968.947H1746V880.13ZM1746 972.947H1720.16V1061.76H1746V972.947ZM1746 1065.76H1720.16V1154.58H1746V1065.76ZM1746 1158.58H1720.16V1261L1746 1261V1158.58ZM1716.16 1261V1158.58H1620.4V1261H1716.16ZM1616.4 1261V1158.58H1520.63V1261H1616.4ZM1516.63 1261V1158.58H1420.87V1261H1516.63ZM1416.87 1261V1158.58H1321.11V1261H1416.87ZM1317.11 1261V1158.58H1221.35V1261H1317.11ZM1217.35 1261V1158.58H1121.59V1261H1217.35ZM1117.59 1261V1158.58H1021.82V1261H1117.59ZM1017.82 1261V1158.58H922.061V1261H1017.82ZM918.061 1261V1158.58H822.299V1261H918.061ZM818.299 1261V1158.58H722.537V1261H818.299ZM718.537 1261V1158.58H622.775V1261H718.537ZM618.775 1261V1158.58H523.013V1261H618.775ZM519.013 1261V1158.58H423.25V1261H519.013ZM419.25 1261V1158.58H323.488V1261H419.25ZM319.488 1261V1158.58H223.726V1261H319.488ZM219.726 1261V1158.58H123.964V1261H219.726ZM119.964 1261V1158.58H24.2018L24.2018 1261H119.964ZM20.2018 1261L20.2018 1158.58H0V1261L20.2018 1261ZM0 1154.58H20.2018V1065.76H0V1154.58ZM0 1061.76H20.2018L20.2018 972.947H0V1061.76ZM0 968.947H20.2018V880.13H0V968.947ZM0 876.13H20.2018L20.2018 787.313H0V876.13ZM0 783.313H20.2018V694.497H0V783.313ZM0 690.497H20.2018L20.2018 601.68H0V690.497ZM0 597.68H20.2018L20.2018 508.863H0V597.68ZM0 504.863H20.2018V416.046H0V504.863ZM0 412.046H20.2018L20.2018 323.229H0V412.046ZM0 319.229H20.2018V230.412H0V319.229ZM0 226.412H20.2018L20.2018 137.595H0V226.412ZM0 133.595H20.2018V44.7782H0V133.595ZM24.2018 133.595V44.7782H119.964V133.595H24.2018ZM123.964 133.595V44.7782H219.726V133.595H123.964ZM223.726 133.595V44.7782H319.488V133.595H223.726ZM323.488 133.595V44.7782H419.25V133.595H323.488ZM423.25 133.595V44.7782H519.012V133.595H423.25ZM523.012 133.595V44.7782H618.775V133.595H523.012ZM622.775 133.595V44.7782H718.537V133.595H622.775ZM722.537 133.595V44.7782H818.299V133.595H722.537ZM822.299 133.595V44.7782H918.061V133.595H822.299ZM922.061 133.595V44.7782H1017.82V133.595H922.061ZM1021.82 133.595V44.7782H1117.59V133.595H1021.82ZM1121.59 133.595V44.7782H1217.35V133.595H1121.59ZM1221.35 133.595V44.7782H1317.11V133.595H1221.35ZM1321.11 133.595V44.7782H1416.87V133.595H1321.11ZM1420.87 133.595V44.7782H1516.63V133.595H1420.87ZM1520.63 133.595V44.7782H1616.4V133.595H1520.63ZM1620.4 133.595V44.7782H1716.16V133.595H1620.4ZM1620.4 137.595H1716.16V226.412H1620.4V137.595ZM1620.4 230.412H1716.16V319.229H1620.4V230.412ZM1620.4 323.229H1716.16V412.046H1620.4V323.229ZM1620.4 416.046H1716.16V504.863H1620.4V416.046ZM1620.4 508.863H1716.16V597.68H1620.4V508.863ZM1620.4 601.68H1716.16V690.497H1620.4V601.68ZM1620.4 694.497H1716.16V783.313H1620.4V694.497ZM1620.4 787.313H1716.16V876.13H1620.4V787.313ZM1620.4 880.13H1716.16V968.947H1620.4V880.13ZM1620.4 972.947H1716.16V1061.76H1620.4V972.947ZM1620.4 1065.76H1716.16V1154.58H1620.4V1065.76ZM1616.4 1065.76V1154.58H1520.63V1065.76H1616.4ZM1516.63 1065.76V1154.58H1420.87V1065.76H1516.63ZM1416.87 1065.76V1154.58H1321.11V1065.76H1416.87ZM1317.11 1065.76V1154.58H1221.35V1065.76H1317.11ZM1217.35 1065.76V1154.58H1121.59V1065.76H1217.35ZM1117.59 1065.76V1154.58H1021.82V1065.76H1117.59ZM1017.82 1065.76V1154.58H922.061V1065.76H1017.82ZM918.061 1065.76V1154.58H822.299V1065.76H918.061ZM818.299 1065.76V1154.58H722.537V1065.76H818.299ZM718.537 1065.76V1154.58H622.775V1065.76H718.537ZM618.775 1065.76V1154.58H523.013V1065.76H618.775ZM519.013 1065.76V1154.58H423.25V1065.76H519.013ZM419.25 1065.76V1154.58H323.488V1065.76H419.25ZM319.488 1065.76V1154.58H223.726V1065.76H319.488ZM219.726 1065.76V1154.58H123.964V1065.76H219.726ZM119.964 1065.76V1154.58H24.2018V1065.76H119.964ZM119.964 1061.76H24.2018L24.2018 972.947H119.964L119.964 1061.76ZM119.964 968.947H24.2018V880.13H119.964V968.947ZM119.964 876.13H24.2018L24.2018 787.313H119.964V876.13ZM119.964 783.313H24.2018V694.497H119.964V783.313ZM119.964 690.497H24.2018L24.2018 601.68H119.964L119.964 690.497ZM119.964 597.68H24.2018L24.2018 508.863H119.964V597.68ZM119.964 504.863H24.2018V416.046H119.964V504.863ZM119.964 412.046H24.2018L24.2018 323.229H119.964V412.046ZM119.964 319.229H24.2018V230.412H119.964V319.229ZM119.964 226.412H24.2018L24.2018 137.595H119.964L119.964 226.412ZM123.964 226.412L123.964 137.595H219.726V226.412H123.964ZM223.726 226.412V137.595H319.488V226.412H223.726ZM323.488 226.412V137.595H419.25V226.412H323.488ZM423.25 226.412V137.595H519.012V226.412H423.25ZM523.012 226.412V137.595H618.775V226.412H523.012ZM622.775 226.412V137.595H718.537V226.412H622.775ZM722.537 226.412V137.595H818.299V226.412H722.537ZM822.299 226.412V137.595H918.061V226.412H822.299ZM922.061 226.412V137.595H1017.82V226.412H922.061ZM1021.82 226.412V137.595H1117.59V226.412H1021.82ZM1121.59 226.412V137.595H1217.35V226.412H1121.59ZM1221.35 226.412V137.595H1317.11V226.412H1221.35ZM1321.11 226.412V137.595H1416.87V226.412H1321.11ZM1420.87 226.412V137.595H1516.63V226.412H1420.87ZM1520.63 226.412V137.595H1616.4V226.412H1520.63ZM1520.63 230.412H1616.4V319.229H1520.63V230.412ZM1520.63 323.229H1616.4V412.046H1520.63V323.229ZM1520.63 416.046H1616.4V504.863H1520.63V416.046ZM1520.63 508.863H1616.4V597.68H1520.63V508.863ZM1520.63 601.68H1616.4V690.497H1520.63V601.68ZM1520.63 694.497H1616.4V783.313H1520.63V694.497ZM1520.63 787.313H1616.4V876.13H1520.63V787.313ZM1520.63 880.13H1616.4V968.947H1520.63V880.13ZM1520.63 972.947H1616.4V1061.76H1520.63V972.947ZM1516.63 972.947V1061.76H1420.87V972.947H1516.63ZM1416.87 972.947V1061.76H1321.11V972.947H1416.87ZM1317.11 972.947V1061.76H1221.35V972.947H1317.11ZM1217.35 972.947V1061.76H1121.59V972.947H1217.35ZM1117.59 972.947V1061.76H1021.82V972.947H1117.59ZM1017.82 972.947V1061.76H922.061V972.947H1017.82ZM918.061 972.947V1061.76H822.299V972.947H918.061ZM818.299 972.947V1061.76H722.537V972.947H818.299ZM718.537 972.947V1061.76H622.775V972.947H718.537ZM618.775 972.947V1061.76H523.013V972.947H618.775ZM519.013 972.947V1061.76H423.25V972.947H519.013ZM419.25 972.947V1061.76H323.488V972.947H419.25ZM319.488 972.947V1061.76H223.726V972.947H319.488ZM219.726 972.947V1061.76H123.964L123.964 972.947H219.726ZM219.726 968.947H123.964V880.13H219.726L219.726 968.947ZM219.726 876.13H123.964V787.313H219.726V876.13ZM219.726 783.313H123.964V694.497H219.726V783.313ZM219.726 690.497H123.964L123.964 601.68H219.726V690.497ZM219.726 597.68H123.964V508.863H219.726V597.68ZM219.726 504.863H123.964V416.046H219.726V504.863ZM219.726 412.046H123.964V323.229H219.726V412.046ZM219.726 319.229H123.964V230.412H219.726L219.726 319.229ZM223.726 319.229L223.726 230.412H319.488L319.488 319.229H223.726ZM323.488 319.229L323.488 230.412H419.25L419.25 319.229H323.488ZM423.25 319.229L423.25 230.412H519.012V319.229H423.25ZM523.012 319.229V230.412H618.775V319.229H523.012ZM622.775 319.229V230.412H718.537V319.229H622.775ZM722.537 319.229V230.412H818.299V319.229H722.537ZM822.299 319.229V230.412H918.061L918.061 319.229H822.299ZM922.061 319.229L922.061 230.412H1017.82V319.229H922.061ZM1021.82 319.229V230.412H1117.59V319.229H1021.82ZM1121.59 319.229V230.412H1217.35V319.229H1121.59ZM1221.35 319.229V230.412H1317.11V319.229H1221.35ZM1321.11 319.229V230.412H1416.87V319.229H1321.11ZM1420.87 319.229V230.412H1516.63V319.229H1420.87ZM1420.87 323.229H1516.63V412.046H1420.87V323.229ZM1420.87 416.046H1516.63V504.863H1420.87V416.046ZM1420.87 508.863H1516.63V597.68H1420.87V508.863ZM1420.87 601.68H1516.63V690.497H1420.87V601.68ZM1420.87 694.497H1516.63V783.313H1420.87V694.497ZM1420.87 787.313H1516.63V876.13H1420.87V787.313ZM1420.87 880.13H1516.63V968.947H1420.87V880.13ZM1416.87 880.13V968.947H1321.11V880.13H1416.87ZM1317.11 880.13V968.947H1221.35V880.13H1317.11ZM1217.35 880.13V968.947H1121.59V880.13H1217.35ZM1117.59 880.13V968.947H1021.82V880.13H1117.59ZM1017.82 880.13V968.947H922.061L922.061 880.13H1017.82ZM918.061 880.13L918.061 968.947H822.299V880.13H918.061ZM818.299 880.13V968.947H722.537V880.13H818.299ZM718.537 880.13V968.947H622.775V880.13H718.537ZM618.775 880.13V968.947H523.013V880.13H618.775ZM519.013 880.13V968.947H423.25L423.25 880.13H519.013ZM419.25 880.13L419.25 968.947H323.488L323.488 880.13H419.25ZM319.488 880.13L319.488 968.947H223.726L223.726 880.13H319.488ZM319.488 876.13H223.726V787.313H319.488V876.13ZM319.488 783.313H223.726V694.497H319.488V783.313ZM319.488 690.497H223.726V601.68H319.488V690.497ZM319.488 597.68H223.726V508.863H319.488V597.68ZM319.488 504.863H223.726V416.046H319.488V504.863ZM319.488 412.046H223.726V323.229H319.488V412.046ZM323.488 412.046V323.229H419.25V412.046H323.488ZM423.25 412.046V323.229H519.012V412.046H423.25ZM523.012 412.046V323.229H618.775V412.046H523.012ZM622.775 412.046V323.229H718.537V412.046H622.775ZM722.537 412.046V323.229H818.299V412.046H722.537ZM822.299 412.046V323.229H918.061V412.046H822.299ZM922.061 412.046V323.229H1017.82V412.046H922.061ZM1021.82 412.046V323.229H1117.59V412.046H1021.82ZM1121.59 412.046V323.229H1217.35V412.046H1121.59ZM1221.35 412.046V323.229H1317.11V412.046H1221.35ZM1321.11 412.046V323.229H1416.87V412.046H1321.11ZM1321.11 416.046H1416.87V504.863H1321.11V416.046ZM1321.11 508.863H1416.87V597.68H1321.11V508.863ZM1321.11 601.68H1416.87V690.497H1321.11V601.68ZM1321.11 694.497H1416.87V783.313H1321.11V694.497ZM1321.11 787.313H1416.87V876.13H1321.11V787.313ZM1317.11 787.313V876.13H1221.35V787.313H1317.11ZM1217.35 787.313V876.13H1121.59V787.313H1217.35ZM1117.59 787.313V876.13H1021.82V787.313H1117.59ZM1017.82 787.313V876.13H922.061V787.313H1017.82ZM918.061 787.313V876.13H822.299V787.313H918.061ZM818.299 787.313V876.13H722.537V787.313H818.299ZM718.537 787.313V876.13H622.775V787.313H718.537ZM618.775 787.313V876.13H523.013V787.313H618.775ZM519.013 787.313V876.13H423.25V787.313H519.013ZM419.25 787.313V876.13H323.488V787.313H419.25ZM419.25 783.313H323.488V694.497H419.25V783.313ZM419.25 690.497H323.488V601.68H419.25V690.497ZM419.25 597.68H323.488V508.863H419.25V597.68ZM419.25 504.863H323.488V416.046H419.25V504.863ZM423.25 504.863V416.046H519.012V504.863H423.25ZM523.012 504.863V416.046H618.775V504.863H523.012ZM622.775 504.863V416.046H718.537V504.863H622.775ZM722.537 504.863V416.046H818.299V504.863H722.537ZM822.299 504.863V416.046H918.061V504.863H822.299ZM922.061 504.863V416.046H1017.82V504.863H922.061ZM1021.82 504.863V416.046H1117.59V504.863H1021.82ZM1121.59 504.863V416.046H1217.35V504.863H1121.59ZM1221.35 504.863V416.046H1317.11V504.863H1221.35ZM1221.35 508.863H1317.11V597.68H1221.35V508.863ZM1221.35 601.68H1317.11V690.497H1221.35V601.68ZM1221.35 694.497H1317.11V783.313H1221.35V694.497ZM1217.35 694.497V783.313H1121.59V694.497H1217.35ZM1117.59 694.497V783.313H1021.82V694.497H1117.59ZM1017.82 694.497V783.313H922.061V694.497H1017.82ZM918.061 694.497V783.313H822.299V694.497H918.061ZM818.299 694.497V783.313H722.537V694.497H818.299ZM718.537 694.497V783.313H622.775V694.497H718.537ZM618.775 694.497V783.313H523.013V694.497H618.775ZM519.013 694.497V783.313H423.25V694.497H519.013ZM519.013 690.497H423.25V601.68H519.012L519.013 690.497ZM519.012 597.68H423.25V508.863H519.012V597.68ZM523.012 597.68V508.863H618.775V597.68H523.012ZM622.775 597.68V508.863H718.537V597.68H622.775ZM722.537 597.68V508.863H818.299V597.68H722.537ZM822.299 597.68V508.863H918.061V597.68H822.299ZM922.061 597.68V508.863H1017.82V597.68H922.061ZM1021.82 597.68V508.863H1117.59V597.68H1021.82ZM1121.59 597.68V508.863H1217.35V597.68H1121.59ZM1121.59 601.68H1217.35V690.497H1121.59V601.68ZM1117.59 601.68V690.497H1021.82L1021.82 601.68H1117.59ZM1017.82 601.68L1017.82 690.497H922.061V601.68H1017.82ZM918.061 601.68V690.497H822.299L822.299 601.68H918.061ZM818.299 601.68L818.299 690.497H722.537L722.537 601.68H818.299ZM718.537 601.68L718.537 690.497H622.775L622.775 601.68H718.537ZM618.775 601.68L618.775 690.497H523.013L523.012 601.68H618.775Z" fill="#0A0A0A"/>
</g>
<mask id="mask1_172_26" style="mask-type:alpha" maskUnits="userSpaceOnUse" x="1718" y="0" width="1723" height="1363">
<rect x="1718" width="1723" height="1363" fill="url(#paint1_linear_172_26)"/>
</mask>
<g mask="url(#mask1_172_26)">
<path fill-rule="evenodd" clip-rule="evenodd" d="M1715.2 0L1715.2 40.7782H1695V0H1715.2ZM1719.2 0L1719.2 40.7782H1814.96V0H1719.2ZM1818.96 0V40.7782H1914.73V0H1818.96ZM1918.73 0V40.7782H2014.49V0H1918.73ZM2018.49 0V40.7782H2114.25V0H2018.49ZM2118.25 0V40.7782H2214.01V0H2118.25ZM2218.01 0V40.7782H2313.77V0H2218.01ZM2317.77 0V40.7782H2413.54V0H2317.77ZM2417.54 0V40.7782H2513.3V0H2417.54ZM2517.3 0V40.7782H2613.06V0H2517.3ZM2617.06 0V40.7782H2712.82V0H2617.06ZM2716.82 0V40.7782H2812.59V0H2716.82ZM2816.59 0V40.7782H2912.35V0H2816.59ZM2916.35 0V40.7782H3012.11V0H2916.35ZM3016.11 0V40.7782H3111.87V0H3016.11ZM3115.87 0V40.7782H3211.63V0H3115.87ZM3215.63 0V40.7782H3311.4V0H3215.63ZM3315.4 0V40.7782H3411.16V0H3315.4ZM3415.16 0V40.7782H3441V0H3415.16ZM3441 44.7782H3415.16V133.595H3441V44.7782ZM3441 137.595H3415.16V226.412H3441V137.595ZM3441 230.412H3415.16V319.229H3441V230.412ZM3441 323.229H3415.16V412.046H3441V323.229ZM3441 416.046H3415.16V504.863H3441V416.046ZM3441 508.863H3415.16V597.68H3441V508.863ZM3441 601.68H3415.16V690.497H3441V601.68ZM3441 694.497H3415.16V783.313H3441V694.497ZM3441 787.313H3415.16V876.13H3441V787.313ZM3441 880.13H3415.16V968.947H3441V880.13ZM3441 972.947H3415.16V1061.76H3441V972.947ZM3441 1065.76H3415.16V1154.58H3441V1065.76ZM3441 1158.58H3415.16V1261L3441 1261V1158.58ZM3411.16 1261V1158.58H3315.4V1261H3411.16ZM3311.4 1261V1158.58H3215.63V1261H3311.4ZM3211.63 1261V1158.58H3115.87V1261H3211.63ZM3111.87 1261V1158.58H3016.11V1261H3111.87ZM3012.11 1261V1158.58H2916.35V1261H3012.11ZM2912.35 1261V1158.58H2816.59V1261H2912.35ZM2812.59 1261V1158.58H2716.82V1261H2812.59ZM2712.82 1261V1158.58H2617.06V1261H2712.82ZM2613.06 1261V1158.58H2517.3V1261H2613.06ZM2513.3 1261V1158.58H2417.54V1261H2513.3ZM2413.54 1261V1158.58H2317.77V1261H2413.54ZM2313.77 1261V1158.58H2218.01V1261H2313.77ZM2214.01 1261V1158.58H2118.25V1261H2214.01ZM2114.25 1261V1158.58H2018.49V1261H2114.25ZM2014.49 1261V1158.58H1918.73V1261H2014.49ZM1914.73 1261V1158.58H1818.96V1261H1914.73ZM1814.96 1261V1158.58H1719.2L1719.2 1261H1814.96ZM1715.2 1261L1715.2 1158.58H1695V1261L1715.2 1261ZM1695 1154.58H1715.2V1065.76H1695V1154.58ZM1695 1061.76H1715.2L1715.2 972.947H1695V1061.76ZM1695 968.947H1715.2V880.13H1695V968.947ZM1695 876.13H1715.2L1715.2 787.313H1695V876.13ZM1695 783.313H1715.2V694.497H1695V783.313ZM1695 690.497H1715.2L1715.2 601.68H1695V690.497ZM1695 597.68H1715.2L1715.2 508.863H1695V597.68ZM1695 504.863H1715.2V416.046H1695V504.863ZM1695 412.046H1715.2L1715.2 323.229H1695V412.046ZM1695 319.229H1715.2V230.412H1695V319.229ZM1695 226.412H1715.2L1715.2 137.595H1695V226.412ZM1695 133.595H1715.2V44.7782H1695V133.595ZM1719.2 133.595V44.7782H1814.96V133.595H1719.2ZM1818.96 133.595V44.7782H1914.73V133.595H1818.96ZM1918.73 133.595V44.7782H2014.49V133.595H1918.73ZM2018.49 133.595V44.7782H2114.25V133.595H2018.49ZM2118.25 133.595V44.7782H2214.01V133.595H2118.25ZM2218.01 133.595V44.7782H2313.77V133.595H2218.01ZM2317.77 133.595V44.7782H2413.54V133.595H2317.77ZM2417.54 133.595V44.7782H2513.3V133.595H2417.54ZM2517.3 133.595V44.7782H2613.06V133.595H2517.3ZM2617.06 133.595V44.7782H2712.82V133.595H2617.06ZM2716.82 133.595V44.7782H2812.59V133.595H2716.82ZM2816.59 133.595V44.7782H2912.35V133.595H2816.59ZM2916.35 133.595V44.7782H3012.11V133.595H2916.35ZM3016.11 133.595V44.7782H3111.87V133.595H3016.11ZM3115.87 133.595V44.7782H3211.63V133.595H3115.87ZM3215.63 133.595V44.7782H3311.4V133.595H3215.63ZM3315.4 133.595V44.7782H3411.16V133.595H3315.4ZM3315.4 137.595H3411.16V226.412H3315.4V137.595ZM3315.4 230.412H3411.16V319.229H3315.4V230.412ZM3315.4 323.229H3411.16V412.046H3315.4V323.229ZM3315.4 416.046H3411.16V504.863H3315.4V416.046ZM3315.4 508.863H3411.16V597.68H3315.4V508.863ZM3315.4 601.68H3411.16V690.497H3315.4V601.68ZM3315.4 694.497H3411.16V783.313H3315.4V694.497ZM3315.4 787.313H3411.16V876.13H3315.4V787.313ZM3315.4 880.13H3411.16V968.947H3315.4V880.13ZM3315.4 972.947H3411.16V1061.76H3315.4V972.947ZM3315.4 1065.76H3411.16V1154.58H3315.4V1065.76ZM3311.4 1065.76V1154.58H3215.63V1065.76H3311.4ZM3211.63 1065.76V1154.58H3115.87V1065.76H3211.63ZM3111.87 1065.76V1154.58H3016.11V1065.76H3111.87ZM3012.11 1065.76V1154.58H2916.35V1065.76H3012.11ZM2912.35 1065.76V1154.58H2816.59V1065.76H2912.35ZM2812.59 1065.76V1154.58H2716.82V1065.76H2812.59ZM2712.82 1065.76V1154.58H2617.06V1065.76H2712.82ZM2613.06 1065.76V1154.58H2517.3V1065.76H2613.06ZM2513.3 1065.76V1154.58H2417.54V1065.76H2513.3ZM2413.54 1065.76V1154.58H2317.77V1065.76H2413.54ZM2313.77 1065.76V1154.58H2218.01V1065.76H2313.77ZM2214.01 1065.76V1154.58H2118.25V1065.76H2214.01ZM2114.25 1065.76V1154.58H2018.49V1065.76H2114.25ZM2014.49 1065.76V1154.58H1918.73V1065.76H2014.49ZM1914.73 1065.76V1154.58H1818.96V1065.76H1914.73ZM1814.96 1065.76V1154.58H1719.2V1065.76H1814.96ZM1814.96 1061.76H1719.2L1719.2 972.947H1814.96L1814.96 1061.76ZM1814.96 968.947H1719.2V880.13H1814.96V968.947ZM1814.96 876.13H1719.2L1719.2 787.313H1814.96V876.13ZM1814.96 783.313H1719.2V694.497H1814.96V783.313ZM1814.96 690.497H1719.2L1719.2 601.68H1814.96L1814.96 690.497ZM1814.96 597.68H1719.2L1719.2 508.863H1814.96V597.68ZM1814.96 504.863H1719.2V416.046H1814.96V504.863ZM1814.96 412.046H1719.2L1719.2 323.229H1814.96V412.046ZM1814.96 319.229H1719.2V230.412H1814.96V319.229ZM1814.96 226.412H1719.2L1719.2 137.595H1814.96L1814.96 226.412ZM1818.96 226.412L1818.96 137.595H1914.73V226.412H1818.96ZM1918.73 226.412V137.595H2014.49V226.412H1918.73ZM2018.49 226.412V137.595H2114.25V226.412H2018.49ZM2118.25 226.412V137.595H2214.01V226.412H2118.25ZM2218.01 226.412V137.595H2313.77V226.412H2218.01ZM2317.77 226.412V137.595H2413.54V226.412H2317.77ZM2417.54 226.412V137.595H2513.3V226.412H2417.54ZM2517.3 226.412V137.595H2613.06V226.412H2517.3ZM2617.06 226.412V137.595H2712.82V226.412H2617.06ZM2716.82 226.412V137.595H2812.59V226.412H2716.82ZM2816.59 226.412V137.595H2912.35V226.412H2816.59ZM2916.35 226.412V137.595H3012.11V226.412H2916.35ZM3016.11 226.412V137.595H3111.87V226.412H3016.11ZM3115.87 226.412V137.595H3211.63V226.412H3115.87ZM3215.63 226.412V137.595H3311.4V226.412H3215.63ZM3215.63 230.412H3311.4V319.229H3215.63V230.412ZM3215.63 323.229H3311.4V412.046H3215.63V323.229ZM3215.63 416.046H3311.4V504.863H3215.63V416.046ZM3215.63 508.863H3311.4V597.68H3215.63V508.863ZM3215.63 601.68H3311.4V690.497H3215.63V601.68ZM3215.63 694.497H3311.4V783.313H3215.63V694.497ZM3215.63 787.313H3311.4V876.13H3215.63V787.313ZM3215.63 880.13H3311.4V968.947H3215.63V880.13ZM3215.63 972.947H3311.4V1061.76H3215.63V972.947ZM3211.63 972.947V1061.76H3115.87V972.947H3211.63ZM3111.87 972.947V1061.76H3016.11V972.947H3111.87ZM3012.11 972.947V1061.76H2916.35V972.947H3012.11ZM2912.35 972.947V1061.76H2816.59V972.947H2912.35ZM2812.59 972.947V1061.76H2716.82V972.947H2812.59ZM2712.82 972.947V1061.76H2617.06V972.947H2712.82ZM2613.06 972.947V1061.76H2517.3V972.947H2613.06ZM2513.3 972.947V1061.76H2417.54V972.947H2513.3ZM2413.54 972.947V1061.76H2317.77V972.947H2413.54ZM2313.77 972.947V1061.76H2218.01V972.947H2313.77ZM2214.01 972.947V1061.76H2118.25V972.947H2214.01ZM2114.25 972.947V1061.76H2018.49V972.947H2114.25ZM2014.49 972.947V1061.76H1918.73V972.947H2014.49ZM1914.73 972.947V1061.76H1818.96L1818.96 972.947H1914.73ZM1914.73 968.947H1818.96V880.13H1914.73L1914.73 968.947ZM1914.73 876.13H1818.96V787.313H1914.73V876.13ZM1914.73 783.313H1818.96V694.497H1914.73V783.313ZM1914.73 690.497H1818.96L1818.96 601.68H1914.73V690.497ZM1914.73 597.68H1818.96V508.863H1914.73V597.68ZM1914.73 504.863H1818.96V416.046H1914.73V504.863ZM1914.73 412.046H1818.96V323.229H1914.73V412.046ZM1914.73 319.229H1818.96V230.412H1914.73L1914.73 319.229ZM1918.73 319.229L1918.73 230.412H2014.49L2014.49 319.229H1918.73ZM2018.49 319.229L2018.49 230.412H2114.25L2114.25 319.229H2018.49ZM2118.25 319.229L2118.25 230.412H2214.01V319.229H2118.25ZM2218.01 319.229V230.412H2313.77V319.229H2218.01ZM2317.77 319.229V230.412H2413.54V319.229H2317.77ZM2417.54 319.229V230.412H2513.3V319.229H2417.54ZM2517.3 319.229V230.412H2613.06L2613.06 319.229H2517.3ZM2617.06 319.229L2617.06 230.412H2712.82V319.229H2617.06ZM2716.82 319.229V230.412H2812.59V319.229H2716.82ZM2816.59 319.229V230.412H2912.35V319.229H2816.59ZM2916.35 319.229V230.412H3012.11V319.229H2916.35ZM3016.11 319.229V230.412H3111.87V319.229H3016.11ZM3115.87 319.229V230.412H3211.63V319.229H3115.87ZM3115.87 323.229H3211.63V412.046H3115.87V323.229ZM3115.87 416.046H3211.63V504.863H3115.87V416.046ZM3115.87 508.863H3211.63V597.68H3115.87V508.863ZM3115.87 601.68H3211.63V690.497H3115.87V601.68ZM3115.87 694.497H3211.63V783.313H3115.87V694.497ZM3115.87 787.313H3211.63V876.13H3115.87V787.313ZM3115.87 880.13H3211.63V968.947H3115.87V880.13ZM3111.87 880.13V968.947H3016.11V880.13H3111.87ZM3012.11 880.13V968.947H2916.35V880.13H3012.11ZM2912.35 880.13V968.947H2816.59V880.13H2912.35ZM2812.59 880.13V968.947H2716.82V880.13H2812.59ZM2712.82 880.13V968.947H2617.06L2617.06 880.13H2712.82ZM2613.06 880.13L2613.06 968.947H2517.3V880.13H2613.06ZM2513.3 880.13V968.947H2417.54V880.13H2513.3ZM2413.54 880.13V968.947H2317.77V880.13H2413.54ZM2313.77 880.13V968.947H2218.01V880.13H2313.77ZM2214.01 880.13V968.947H2118.25L2118.25 880.13H2214.01ZM2114.25 880.13L2114.25 968.947H2018.49L2018.49 880.13H2114.25ZM2014.49 880.13L2014.49 968.947H1918.73L1918.73 880.13H2014.49ZM2014.49 876.13H1918.73V787.313H2014.49V876.13ZM2014.49 783.313H1918.73V694.497H2014.49V783.313ZM2014.49 690.497H1918.73V601.68H2014.49V690.497ZM2014.49 597.68H1918.73V508.863H2014.49V597.68ZM2014.49 504.863H1918.73V416.046H2014.49V504.863ZM2014.49 412.046H1918.73V323.229H2014.49V412.046ZM2018.49 412.046V323.229H2114.25V412.046H2018.49ZM2118.25 412.046V323.229H2214.01V412.046H2118.25ZM2218.01 412.046V323.229H2313.77V412.046H2218.01ZM2317.77 412.046V323.229H2413.54V412.046H2317.77ZM2417.54 412.046V323.229H2513.3V412.046H2417.54ZM2517.3 412.046V323.229H2613.06V412.046H2517.3ZM2617.06 412.046V323.229H2712.82V412.046H2617.06ZM2716.82 412.046V323.229H2812.59V412.046H2716.82ZM2816.59 412.046V323.229H2912.35V412.046H2816.59ZM2916.35 412.046V323.229H3012.11V412.046H2916.35ZM3016.11 412.046V323.229H3111.87V412.046H3016.11ZM3016.11 416.046H3111.87V504.863H3016.11V416.046ZM3016.11 508.863H3111.87V597.68H3016.11V508.863ZM3016.11 601.68H3111.87V690.497H3016.11V601.68ZM3016.11 694.497H3111.87V783.313H3016.11V694.497ZM3016.11 787.313H3111.87V876.13H3016.11V787.313ZM3012.11 787.313V876.13H2916.35V787.313H3012.11ZM2912.35 787.313V876.13H2816.59V787.313H2912.35ZM2812.59 787.313V876.13H2716.82V787.313H2812.59ZM2712.82 787.313V876.13H2617.06V787.313H2712.82ZM2613.06 787.313V876.13H2517.3V787.313H2613.06ZM2513.3 787.313V876.13H2417.54V787.313H2513.3ZM2413.54 787.313V876.13H2317.77V787.313H2413.54ZM2313.77 787.313V876.13H2218.01V787.313H2313.77ZM2214.01 787.313V876.13H2118.25V787.313H2214.01ZM2114.25 787.313V876.13H2018.49V787.313H2114.25ZM2114.25 783.313H2018.49V694.497H2114.25V783.313ZM2114.25 690.497H2018.49V601.68H2114.25V690.497ZM2114.25 597.68H2018.49V508.863H2114.25V597.68ZM2114.25 504.863H2018.49V416.046H2114.25V504.863ZM2118.25 504.863V416.046H2214.01V504.863H2118.25ZM2218.01 504.863V416.046H2313.77V504.863H2218.01ZM2317.77 504.863V416.046H2413.54V504.863H2317.77ZM2417.54 504.863V416.046H2513.3V504.863H2417.54ZM2517.3 504.863V416.046H2613.06V504.863H2517.3ZM2617.06 504.863V416.046H2712.82V504.863H2617.06ZM2716.82 504.863V416.046H2812.59V504.863H2716.82ZM2816.59 504.863V416.046H2912.35V504.863H2816.59ZM2916.35 504.863V416.046H3012.11V504.863H2916.35ZM2916.35 508.863H3012.11V597.68H2916.35V508.863ZM2916.35 601.68H3012.11V690.497H2916.35V601.68ZM2916.35 694.497H3012.11V783.313H2916.35V694.497ZM2912.35 694.497V783.313H2816.59V694.497H2912.35ZM2812.59 694.497V783.313H2716.82V694.497H2812.59ZM2712.82 694.497V783.313H2617.06V694.497H2712.82ZM2613.06 694.497V783.313H2517.3V694.497H2613.06ZM2513.3 694.497V783.313H2417.54V694.497H2513.3ZM2413.54 694.497V783.313H2317.77V694.497H2413.54ZM2313.77 694.497V783.313H2218.01V694.497H2313.77ZM2214.01 694.497V783.313H2118.25V694.497H2214.01ZM2214.01 690.497H2118.25V601.68H2214.01L2214.01 690.497ZM2214.01 597.68H2118.25V508.863H2214.01V597.68ZM2218.01 597.68V508.863H2313.77V597.68H2218.01ZM2317.77 597.68V508.863H2413.54V597.68H2317.77ZM2417.54 597.68V508.863H2513.3V597.68H2417.54ZM2517.3 597.68V508.863H2613.06V597.68H2517.3ZM2617.06 597.68V508.863H2712.82V597.68H2617.06ZM2716.82 597.68V508.863H2812.59V597.68H2716.82ZM2816.59 597.68V508.863H2912.35V597.68H2816.59ZM2816.59 601.68H2912.35V690.497H2816.59V601.68ZM2812.59 601.68V690.497H2716.82L2716.82 601.68H2812.59ZM2712.82 601.68L2712.82 690.497H2617.06V601.68H2712.82ZM2613.06 601.68V690.497H2517.3L2517.3 601.68H2613.06ZM2513.3 601.68L2513.3 690.497H2417.54L2417.54 601.68H2513.3ZM2413.54 601.68L2413.54 690.497H2317.77L2317.77 601.68H2413.54ZM2313.77 601.68L2313.77 690.497H2218.01L2218.01 601.68H2313.77Z" fill="#0A0A0A"/>
</g>
<defs>
<linearGradient id="paint0_linear_172_26" x1="859" y1="566" x2="859" y2="1174.5" gradientUnits="userSpaceOnUse">
<stop stop-color="#D9D9D9"/>
<stop offset="1" stop-color="#737373" stop-opacity="0"/>
</linearGradient>
<linearGradient id="paint1_linear_172_26" x1="2579.5" y1="566" x2="2579.5" y2="1174.5" gradientUnits="userSpaceOnUse">
<stop stop-color="#D9D9D9"/>
<stop offset="1" stop-color="#737373" stop-opacity="0"/>
</linearGradient>
</defs>
</svg>
