<svg width="1606" height="1136" viewBox="0 0 1606 1136" fill="none" xmlns="http://www.w3.org/2000/svg">
<path d="M0 86H1606M0 166H1606M0 246H1606M0 326H1606M0 406H1606M0 486H1606M0 566H1606M0 646H1606M0 726H1606M0 806H1606M0 886H1606M0 966H1606M0 1046H1606M1532 0V1136M1446 0V1136M1360 0V1136M1274 0V1136M1188 0V1136M1102 0V1136M1016 0L1016 1136M930 0L930 1136M844 0L844 1136M758 0L758 1136M672 0L672 1136M586 0L586 1136M500 0L500 1136M414 0L414 1136M328 0L328 1136M242 0L242 1136M156 0L156 1136M70 0L70.0001 1136" stroke="url(#paint0_radial_80_52)" stroke-width="4"/>
<defs>
<radialGradient id="paint0_radial_80_52" cx="0" cy="0" r="1" gradientUnits="userSpaceOnUse" gradientTransform="translate(803 568) rotate(90) scale(568 516.057)">
<stop stop-color="#1F1428"/>
<stop offset="1" stop-color="#0A0A0A" stop-opacity="0"/>
</radialGradient>
</defs>
</svg>
