<svg width="3106" height="1119" viewBox="0 0 3106 1119" fill="none" xmlns="http://www.w3.org/2000/svg">
<path d="M0 84.713H68.9103M68.9103 84.713H153.572M68.9103 84.713L68.9103 0M68.9103 84.713V163.516M153.572 84.713H238.233M153.572 84.713V0M153.572 84.713V163.516M238.233 84.713H322.894M238.233 84.713V0M238.233 84.713V163.516M322.894 84.713H407.555M322.894 84.713V0M322.894 84.713V163.516M407.555 84.713H492.217M407.555 84.713V0M407.555 84.713V163.516M492.217 84.713H576.878M492.217 84.713V0M492.217 84.713V163.516M576.878 84.713H661.539M576.878 84.713V0M576.878 84.713V163.516M661.539 84.713H746.201M661.539 84.713V0M661.539 84.713V163.516M746.201 84.713H830.862M746.201 84.713V0M746.201 84.713V163.516M830.862 84.713H915.523M830.862 84.713V0M830.862 84.713V163.516M915.523 84.713H1000.18M915.523 84.713V0M915.523 84.713V163.516M1000.18 84.713H1084.85M1000.18 84.713V0M1000.18 84.713V163.516M1084.85 84.713H1169.51M1084.85 84.713V0M1084.85 84.713V163.516M1169.51 84.713H1254.17M1169.51 84.713V0M1169.51 84.713V163.516M1254.17 84.713H1338.83M1254.17 84.713V0M1254.17 84.713V163.516M1338.83 84.713H1423.49M1338.83 84.713V0M1338.83 84.713V163.516M1423.49 84.713H1508.15M1423.49 84.713V0M1423.49 84.713V163.516M1508.15 84.713H1581M1508.15 84.713V0M1508.15 84.713V163.516M0 163.516H68.9103M68.9103 163.516H153.572M68.9103 163.516L68.9103 242.319M153.572 163.516H238.233M153.572 163.516L153.572 242.319M238.233 163.516H322.894M238.233 163.516L238.233 242.319M322.894 163.516H407.555M322.894 163.516V242.319M407.555 163.516H492.217M407.555 163.516V242.319M492.217 163.516H576.878M492.217 163.516V242.319M576.878 163.516H661.539M576.878 163.516V242.319M661.539 163.516H746.201M661.539 163.516V242.319M746.201 163.516H830.862M746.201 163.516V242.319M830.862 163.516H915.523M830.862 163.516V242.319M915.523 163.516H1000.18M915.523 163.516V242.319M1000.18 163.516H1084.85M1000.18 163.516V242.319M1084.85 163.516H1169.51M1084.85 163.516V242.319M1169.51 163.516H1254.17M1169.51 163.516V242.319M1254.17 163.516H1338.83M1254.17 163.516V242.319M1338.83 163.516H1423.49M1338.83 163.516V242.319M1423.49 163.516H1508.15M1423.49 163.516V242.319M1508.15 163.516H1581M1508.15 163.516V242.319M0 242.319H68.9103M68.9103 242.319H153.572M68.9103 242.319V321.121M153.572 242.319H238.233M153.572 242.319V321.121M238.233 242.319H322.894M238.233 242.319V321.121M322.894 242.319H407.555M322.894 242.319L322.894 321.121M407.555 242.319H492.217M407.555 242.319L407.555 321.121M492.217 242.319H576.878M492.217 242.319L492.217 321.121M576.878 242.319H661.539M576.878 242.319V321.121M661.539 242.319H746.201M661.539 242.319V321.121M746.201 242.319H830.862M746.201 242.319V321.121M830.862 242.319H915.523M830.862 242.319V321.121M915.523 242.319H1000.18M915.523 242.319V321.121M1000.18 242.319H1084.85M1000.18 242.319V321.121M1084.85 242.319H1169.51M1084.85 242.319V321.121M1169.51 242.319H1254.17M1169.51 242.319V321.121M1254.17 242.319H1338.83M1254.17 242.319V321.121M1338.83 242.319H1423.49M1338.83 242.319V321.121M1423.49 242.319H1508.15M1423.49 242.319V321.121M1508.15 242.319H1581M1508.15 242.319V321.121M0 321.121H68.9103M68.9103 321.121H153.572M68.9103 321.121L68.9104 399.924M153.572 321.121H238.233M153.572 321.121V399.924M238.233 321.121H322.894M238.233 321.121V399.924M322.894 321.121H407.555M322.894 321.121V399.924M407.555 321.121H492.217M407.555 321.121V399.924M492.217 321.121H576.878M492.217 321.121V399.924M576.878 321.121H661.539M576.878 321.121V399.924M661.539 321.121H746.201M661.539 321.121V399.924M746.201 321.121H830.862M746.201 321.121V399.924M830.862 321.121H915.523M830.862 321.121V399.924M915.523 321.121H1000.18M915.523 321.121V399.924M1000.18 321.121H1084.85M1000.18 321.121V399.924M1084.85 321.121H1169.51M1084.85 321.121V399.924M1169.51 321.121H1254.17M1169.51 321.121V399.924M1254.17 321.121H1338.83M1254.17 321.121V399.924M1338.83 321.121H1423.49M1338.83 321.121V399.924M1423.49 321.121H1508.15M1423.49 321.121V399.924M1508.15 321.121H1581M1508.15 321.121V399.924M0 399.924H68.9104M68.9104 399.924H153.572M68.9104 399.924V478.727M153.572 399.924H238.233M153.572 399.924V478.727M238.233 399.924H322.894M238.233 399.924V478.727M322.894 399.924H407.555M322.894 399.924V478.727M407.555 399.924H492.217M407.555 399.924V478.727M492.217 399.924H576.878M492.217 399.924V478.727M576.878 399.924H661.539M576.878 399.924V478.727M661.539 399.924H746.201M661.539 399.924V478.727M746.201 399.924H830.862M746.201 399.924V478.727M830.862 399.924H915.523M830.862 399.924V478.727M915.523 399.924H1000.18M915.523 399.924V478.727M1000.18 399.924H1084.85M1000.18 399.924V478.727M1084.85 399.924H1169.51M1084.85 399.924V478.727M1169.51 399.924H1254.17M1169.51 399.924V478.727M1254.17 399.924H1338.83M1254.17 399.924V478.727M1338.83 399.924H1423.49M1338.83 399.924V478.727M1423.49 399.924H1508.15M1423.49 399.924V478.727M1508.15 399.924H1581M1508.15 399.924V478.727M0 478.727H68.9104M68.9104 478.727H153.572M68.9104 478.727V557.53M153.572 478.727H238.233M153.572 478.727V557.53M238.233 478.727H322.894M238.233 478.727V557.53M322.894 478.727H407.555M322.894 478.727V557.53M407.555 478.727H492.217M407.555 478.727V557.53M492.217 478.727H576.878M492.217 478.727V557.53M576.878 478.727H661.539M576.878 478.727V557.53M661.539 478.727H746.201M661.539 478.727V557.53M746.201 478.727H830.862M746.201 478.727V557.53M830.862 478.727H915.523M830.862 478.727V557.53M915.523 478.727H1000.18M915.523 478.727V557.53M1000.18 478.727H1084.85M1000.18 478.727V557.53M1084.85 478.727H1169.51M1084.85 478.727V557.53M1169.51 478.727H1254.17M1169.51 478.727V557.53M1254.17 478.727H1338.83M1254.17 478.727V557.53M1338.83 478.727H1423.49M1338.83 478.727V557.53M1423.49 478.727H1508.15M1423.49 478.727V557.53M1508.15 478.727H1581M1508.15 478.727V557.53M0 557.53H68.9104M68.9104 557.53H153.572M68.9104 557.53L68.9104 636.333M153.572 557.53H238.233M153.572 557.53L153.572 636.333M238.233 557.53H322.894M238.233 557.53L238.233 636.333M322.894 557.53H407.555M322.894 557.53V636.333M407.555 557.53H492.217M407.555 557.53V636.333M492.217 557.53H576.878M492.217 557.53V636.333M576.878 557.53H661.539M576.878 557.53L576.878 636.333M661.539 557.53H746.201M661.539 557.53L661.539 636.333M746.201 557.53H830.862M746.201 557.53L746.201 636.333M830.862 557.53H915.523M830.862 557.53L830.862 636.333M915.523 557.53H1000.18M915.523 557.53L915.523 636.333M1000.18 557.53H1084.85M1000.18 557.53L1000.18 636.333M1084.85 557.53H1169.51M1084.85 557.53V636.333M1169.51 557.53H1254.17M1169.51 557.53V636.333M1254.17 557.53H1338.83M1254.17 557.53V636.333M1338.83 557.53H1423.49M1338.83 557.53V636.333M1423.49 557.53H1508.15M1423.49 557.53V636.333M1508.15 557.53H1581M1508.15 557.53V636.333M0 636.333H68.9104M68.9104 636.333H153.572M68.9104 636.333V715.136M153.572 636.333H238.233M153.572 636.333V715.136M238.233 636.333H322.894M238.233 636.333V715.136M322.894 636.333H407.555M322.894 636.333V715.136M407.555 636.333H492.217M407.555 636.333V715.136M492.217 636.333H576.878M492.217 636.333V715.136M576.878 636.333H661.539M576.878 636.333V715.136M661.539 636.333H746.201M661.539 636.333V715.136M746.201 636.333H830.862M746.201 636.333V715.136M830.862 636.333H915.523M830.862 636.333V715.136M915.523 636.333H1000.18M915.523 636.333V715.136M1000.18 636.333H1084.85M1000.18 636.333V715.136M1084.85 636.333H1169.51M1084.85 636.333V715.136M1169.51 636.333H1254.17M1169.51 636.333V715.136M1254.17 636.333H1338.83M1254.17 636.333V715.136M1338.83 636.333H1423.49M1338.83 636.333V715.136M1423.49 636.333H1508.15M1423.49 636.333V715.136M1508.15 636.333H1581M1508.15 636.333V715.136M0 715.136H68.9104M68.9104 715.136H153.572M68.9104 715.136L68.9104 793.938M153.572 715.136H238.233M153.572 715.136V793.938M238.233 715.136H322.894M238.233 715.136V793.938M322.894 715.136H407.555M322.894 715.136V793.938M407.555 715.136H492.217M407.555 715.136V793.938M492.217 715.136H576.878M492.217 715.136V793.938M576.878 715.136H661.539M576.878 715.136V793.938M661.539 715.136H746.201M661.539 715.136V793.938M746.201 715.136H830.862M746.201 715.136V793.938M830.862 715.136H915.523M830.862 715.136V793.938M915.523 715.136H1000.18M915.523 715.136V793.938M1000.18 715.136H1084.85M1000.18 715.136V793.938M1084.85 715.136H1169.51M1084.85 715.136V793.938M1169.51 715.136H1254.17M1169.51 715.136V793.938M1254.17 715.136H1338.83M1254.17 715.136V793.938M1338.83 715.136H1423.49M1338.83 715.136V793.938M1423.49 715.136H1508.15M1423.49 715.136V793.938M1508.15 715.136H1581M1508.15 715.136V793.938M0 793.938H68.9104M68.9104 793.938H153.572M68.9104 793.938V872.741M153.572 793.938H238.233M153.572 793.938V872.741M238.233 793.938H322.894M238.233 793.938V872.741M322.894 793.938H407.555M322.894 793.938L322.894 872.741M407.555 793.938H492.217M407.555 793.938L407.555 872.741M492.217 793.938H576.878M492.217 793.938L492.217 872.741M576.878 793.938H661.539M576.878 793.938V872.741M661.539 793.938H746.201M661.539 793.938V872.741M746.201 793.938H830.862M746.201 793.938V872.741M830.862 793.938H915.523M830.862 793.938V872.741M915.523 793.938H1000.18M915.523 793.938V872.741M1000.18 793.938H1084.85M1000.18 793.938V872.741M1084.85 793.938H1169.51M1084.85 793.938V872.741M1169.51 793.938H1254.17M1169.51 793.938V872.741M1254.17 793.938H1338.83M1254.17 793.938V872.741M1338.83 793.938H1423.49M1338.83 793.938V872.741M1423.49 793.938H1508.15M1423.49 793.938V872.741M1508.15 793.938H1581M1508.15 793.938V872.741M0 872.741H68.9104M68.9104 872.741H153.572M68.9104 872.741L68.9104 951.544M153.572 872.741H238.233M153.572 872.741L153.572 951.544M238.233 872.741H322.894M238.233 872.741L238.233 951.544M322.894 872.741H407.555M322.894 872.741V951.544M407.555 872.741H492.217M407.555 872.741V951.544M492.217 872.741H576.878M492.217 872.741V951.544M576.878 872.741H661.539M576.878 872.741V951.544M661.539 872.741H746.201M661.539 872.741V951.544M746.201 872.741H830.862M746.201 872.741V951.544M830.862 872.741H915.523M830.862 872.741V951.544M915.523 872.741H1000.18M915.523 872.741V951.544M1000.18 872.741H1084.85M1000.18 872.741V951.544M1084.85 872.741H1169.51M1084.85 872.741V951.544M1169.51 872.741H1254.17M1169.51 872.741V951.544M1254.17 872.741H1338.83M1254.17 872.741V951.544M1338.83 872.741H1423.49M1338.83 872.741V951.544M1423.49 872.741H1508.15M1423.49 872.741V951.544M1508.15 872.741H1581M1508.15 872.741V951.544M0 951.544H68.9104M68.9104 951.544H153.572M68.9104 951.544V1030.35M153.572 951.544H238.233M153.572 951.544V1030.35M238.233 951.544H322.894M238.233 951.544V1030.35M322.894 951.544H407.555M322.894 951.544V1030.35M407.555 951.544H492.217M407.555 951.544V1030.35M492.217 951.544H576.878M492.217 951.544V1030.35M576.878 951.544H661.539M576.878 951.544V1030.35M661.539 951.544H746.201M661.539 951.544V1030.35M746.201 951.544H830.862M746.201 951.544V1030.35M830.862 951.544H915.523M830.862 951.544V1030.35M915.523 951.544H1000.18M915.523 951.544V1030.35M1000.18 951.544H1084.85M1000.18 951.544V1030.35M1084.85 951.544H1169.51M1084.85 951.544V1030.35M1169.51 951.544H1254.17M1169.51 951.544V1030.35M1254.17 951.544H1338.83M1254.17 951.544V1030.35M1338.83 951.544H1423.49M1338.83 951.544V1030.35M1423.49 951.544H1508.15M1423.49 951.544V1030.35M1508.15 951.544H1581M1508.15 951.544V1030.35M0 1030.35H68.9104M68.9104 1030.35H153.572M68.9104 1030.35L68.9104 1119M153.572 1030.35H238.233M153.572 1030.35V1119M238.233 1030.35H322.894M238.233 1030.35V1119M322.894 1030.35H407.555M322.894 1030.35V1119M407.555 1030.35H492.217M407.555 1030.35V1119M492.217 1030.35H576.878M492.217 1030.35V1119M576.878 1030.35H661.539M576.878 1030.35V1119M661.539 1030.35H746.201M661.539 1030.35V1119M746.201 1030.35H830.862M746.201 1030.35V1119M830.862 1030.35H915.523M830.862 1030.35V1119M915.523 1030.35H1000.18M915.523 1030.35V1119M1000.18 1030.35H1084.85M1000.18 1030.35V1119M1084.85 1030.35H1169.51M1084.85 1030.35V1119M1169.51 1030.35H1254.17M1169.51 1030.35V1119M1254.17 1030.35H1338.83M1254.17 1030.35V1119M1338.83 1030.35H1423.49M1338.83 1030.35V1119M1423.49 1030.35H1508.15M1423.49 1030.35V1119M1508.15 1030.35H1581M1508.15 1030.35V1119M1525 84.713H1593.91M1593.91 84.713H1678.57M1593.91 84.713L1593.91 0M1593.91 84.713V163.516M1678.57 84.713H1763.23M1678.57 84.713V0M1678.57 84.713V163.516M1763.23 84.713H1847.89M1763.23 84.713V0M1763.23 84.713V163.516M1847.89 84.713H1932.56M1847.89 84.713V0M1847.89 84.713V163.516M1932.56 84.713H2017.22M1932.56 84.713V0M1932.56 84.713V163.516M2017.22 84.713H2101.88M2017.22 84.713V0M2017.22 84.713V163.516M2101.88 84.713H2186.54M2101.88 84.713V0M2101.88 84.713V163.516M2186.54 84.713H2271.2M2186.54 84.713V0M2186.54 84.713V163.516M2271.2 84.713H2355.86M2271.2 84.713V0M2271.2 84.713V163.516M2355.86 84.713H2440.52M2355.86 84.713V0M2355.86 84.713V163.516M2440.52 84.713H2525.18M2440.52 84.713V0M2440.52 84.713V163.516M2525.18 84.713H2609.85M2525.18 84.713V0M2525.18 84.713V163.516M2609.85 84.713H2694.51M2609.85 84.713V0M2609.85 84.713V163.516M2694.51 84.713H2779.17M2694.51 84.713V0M2694.51 84.713V163.516M2779.17 84.713H2863.83M2779.17 84.713V0M2779.17 84.713V163.516M2863.83 84.713H2948.49M2863.83 84.713V0M2863.83 84.713V163.516M2948.49 84.713H3033.15M2948.49 84.713V0M2948.49 84.713V163.516M3033.15 84.713H3106M3033.15 84.713V0M3033.15 84.713V163.516M1525 163.516H1593.91M1593.91 163.516H1678.57M1593.91 163.516V242.319M1678.57 163.516H1763.23M1678.57 163.516V242.319M1763.23 163.516H1847.89M1763.23 163.516V242.319M1847.89 163.516H1932.56M1847.89 163.516V242.319M1932.56 163.516H2017.22M1932.56 163.516V242.319M2017.22 163.516H2101.88M2017.22 163.516V242.319M2101.88 163.516H2186.54M2101.88 163.516V242.319M2186.54 163.516H2271.2M2186.54 163.516V242.319M2271.2 163.516H2355.86M2271.2 163.516V242.319M2355.86 163.516H2440.52M2355.86 163.516V242.319M2440.52 163.516H2525.18M2440.52 163.516V242.319M2525.18 163.516H2609.85M2525.18 163.516V242.319M2609.85 163.516H2694.51M2609.85 163.516V242.319M2694.51 163.516H2779.17M2694.51 163.516V242.319M2779.17 163.516H2863.83M2779.17 163.516V242.319M2863.83 163.516H2948.49M2863.83 163.516V242.319M2948.49 163.516H3033.15M2948.49 163.516V242.319M3033.15 163.516H3106M3033.15 163.516V242.319M1525 242.319H1593.91M1593.91 242.319H1678.57M1593.91 242.319V321.121M1678.57 242.319H1763.23M1678.57 242.319V321.121M1763.23 242.319H1847.89M1763.23 242.319V321.121M1847.89 242.319H1932.56M1847.89 242.319V321.121M1932.56 242.319H2017.22M1932.56 242.319V321.121M2017.22 242.319H2101.88M2017.22 242.319V321.121M2101.88 242.319H2186.54M2101.88 242.319V321.121M2186.54 242.319H2271.2M2186.54 242.319V321.121M2271.2 242.319H2355.86M2271.2 242.319V321.121M2355.86 242.319H2440.52M2355.86 242.319V321.121M2440.52 242.319H2525.18M2440.52 242.319V321.121M2525.18 242.319H2609.85M2525.18 242.319V321.121M2609.85 242.319H2694.51M2609.85 242.319V321.121M2694.51 242.319H2779.17M2694.51 242.319V321.121M2779.17 242.319H2863.83M2779.17 242.319V321.121M2863.83 242.319H2948.49M2863.83 242.319V321.121M2948.49 242.319H3033.15M2948.49 242.319V321.121M3033.15 242.319H3106M3033.15 242.319V321.121M1525 321.121H1593.91M1593.91 321.121H1678.57M1593.91 321.121V399.924M1678.57 321.121H1763.23M1678.57 321.121V399.924M1763.23 321.121H1847.89M1763.23 321.121V399.924M1847.89 321.121H1932.56M1847.89 321.121V399.924M1932.56 321.121H2017.22M1932.56 321.121V399.924M2017.22 321.121H2101.88M2017.22 321.121V399.924M2101.88 321.121H2186.54M2101.88 321.121V399.924M2186.54 321.121H2271.2M2186.54 321.121V399.924M2271.2 321.121H2355.86M2271.2 321.121V399.924M2355.86 321.121H2440.52M2355.86 321.121V399.924M2440.52 321.121H2525.18M2440.52 321.121V399.924M2525.18 321.121H2609.85M2525.18 321.121V399.924M2609.85 321.121H2694.51M2609.85 321.121V399.924M2694.51 321.121H2779.17M2694.51 321.121V399.924M2779.17 321.121H2863.83M2779.17 321.121V399.924M2863.83 321.121H2948.49M2863.83 321.121V399.924M2948.49 321.121H3033.15M2948.49 321.121V399.924M3033.15 321.121H3106M3033.15 321.121V399.924M1525 399.924H1593.91M1593.91 399.924H1678.57M1593.91 399.924V478.727M1678.57 399.924H1763.23M1678.57 399.924V478.727M1763.23 399.924H1847.89M1763.23 399.924V478.727M1847.89 399.924H1932.56M1847.89 399.924V478.727M1932.56 399.924H2017.22M1932.56 399.924V478.727M2017.22 399.924H2101.88M2017.22 399.924V478.727M2101.88 399.924H2186.54M2101.88 399.924V478.727M2186.54 399.924H2271.2M2186.54 399.924V478.727M2271.2 399.924H2355.86M2271.2 399.924V478.727M2355.86 399.924H2440.52M2355.86 399.924V478.727M2440.52 399.924H2525.18M2440.52 399.924V478.727M2525.18 399.924H2609.85M2525.18 399.924V478.727M2609.85 399.924H2694.51M2609.85 399.924V478.727M2694.51 399.924H2779.17M2694.51 399.924V478.727M2779.17 399.924H2863.83M2779.17 399.924V478.727M2863.83 399.924H2948.49M2863.83 399.924V478.727M2948.49 399.924H3033.15M2948.49 399.924V478.727M3033.15 399.924H3106M3033.15 399.924V478.727M1525 478.727H1593.91M1593.91 478.727H1678.57M1593.91 478.727V557.53M1678.57 478.727H1763.23M1678.57 478.727V557.53M1763.23 478.727H1847.89M1763.23 478.727V557.53M1847.89 478.727H1932.56M1847.89 478.727V557.53M1932.56 478.727H2017.22M1932.56 478.727V557.53M2017.22 478.727H2101.88M2017.22 478.727V557.53M2101.88 478.727H2186.54M2101.88 478.727V557.53M2186.54 478.727H2271.2M2186.54 478.727V557.53M2271.2 478.727H2355.86M2271.2 478.727V557.53M2355.86 478.727H2440.52M2355.86 478.727V557.53M2440.52 478.727H2525.18M2440.52 478.727V557.53M2525.18 478.727H2609.85M2525.18 478.727V557.53M2609.85 478.727H2694.51M2609.85 478.727V557.53M2694.51 478.727H2779.17M2694.51 478.727V557.53M2779.17 478.727H2863.83M2779.17 478.727V557.53M2863.83 478.727H2948.49M2863.83 478.727V557.53M2948.49 478.727H3033.15M2948.49 478.727V557.53M3033.15 478.727H3106M3033.15 478.727V557.53M1525 557.53H1593.91M1593.91 557.53H1678.57M1593.91 557.53V636.333M1678.57 557.53H1763.23M1678.57 557.53V636.333M1763.23 557.53H1847.89M1763.23 557.53V636.333M1847.89 557.53H1932.56M1847.89 557.53V636.333M1932.56 557.53H2017.22M1932.56 557.53V636.333M2017.22 557.53H2101.88M2017.22 557.53V636.333M2101.88 557.53H2186.54M2101.88 557.53V636.333M2186.54 557.53H2271.2M2186.54 557.53L2186.54 636.333M2271.2 557.53H2355.86M2271.2 557.53L2271.2 636.333M2355.86 557.53H2440.52M2355.86 557.53V636.333M2440.52 557.53H2525.18M2440.52 557.53V636.333M2525.18 557.53H2609.85M2525.18 557.53V636.333M2609.85 557.53H2694.51M2609.85 557.53V636.333M2694.51 557.53H2779.17M2694.51 557.53V636.333M2779.17 557.53H2863.83M2779.17 557.53V636.333M2863.83 557.53H2948.49M2863.83 557.53V636.333M2948.49 557.53H3033.15M2948.49 557.53V636.333M3033.15 557.53H3106M3033.15 557.53V636.333M1525 636.333H1593.91M1593.91 636.333H1678.57M1593.91 636.333V715.136M1678.57 636.333H1763.23M1678.57 636.333V715.136M1763.23 636.333H1847.89M1763.23 636.333V715.136M1847.89 636.333H1932.56M1847.89 636.333V715.136M1932.56 636.333H2017.22M1932.56 636.333V715.136M2017.22 636.333H2101.88M2017.22 636.333V715.136M2101.88 636.333H2186.54M2101.88 636.333V715.136M2186.54 636.333H2271.2M2186.54 636.333V715.136M2271.2 636.333H2355.86M2271.2 636.333V715.136M2355.86 636.333H2440.52M2355.86 636.333V715.136M2440.52 636.333H2525.18M2440.52 636.333V715.136M2525.18 636.333H2609.85M2525.18 636.333V715.136M2609.85 636.333H2694.51M2609.85 636.333V715.136M2694.51 636.333H2779.17M2694.51 636.333V715.136M2779.17 636.333H2863.83M2779.17 636.333V715.136M2863.83 636.333H2948.49M2863.83 636.333V715.136M2948.49 636.333H3033.15M2948.49 636.333V715.136M3033.15 636.333H3106M3033.15 636.333V715.136M1525 715.136H1593.91M1593.91 715.136H1678.57M1593.91 715.136V793.938M1678.57 715.136H1763.23M1678.57 715.136V793.938M1763.23 715.136H1847.89M1763.23 715.136V793.938M1847.89 715.136H1932.56M1847.89 715.136V793.938M1932.56 715.136H2017.22M1932.56 715.136V793.938M2017.22 715.136H2101.88M2017.22 715.136V793.938M2101.88 715.136H2186.54M2101.88 715.136V793.938M2186.54 715.136H2271.2M2186.54 715.136V793.938M2271.2 715.136H2355.86M2271.2 715.136V793.938M2355.86 715.136H2440.52M2355.86 715.136V793.938M2440.52 715.136H2525.18M2440.52 715.136V793.938M2525.18 715.136H2609.85M2525.18 715.136V793.938M2609.85 715.136H2694.51M2609.85 715.136V793.938M2694.51 715.136H2779.17M2694.51 715.136V793.938M2779.17 715.136H2863.83M2779.17 715.136V793.938M2863.83 715.136H2948.49M2863.83 715.136V793.938M2948.49 715.136H3033.15M2948.49 715.136V793.938M3033.15 715.136H3106M3033.15 715.136V793.938M1525 793.938H1593.91M1593.91 793.938H1678.57M1593.91 793.938V872.741M1678.57 793.938H1763.23M1678.57 793.938V872.741M1763.23 793.938H1847.89M1763.23 793.938V872.741M1847.89 793.938H1932.56M1847.89 793.938V872.741M1932.56 793.938H2017.22M1932.56 793.938V872.741M2017.22 793.938H2101.88M2017.22 793.938L2017.22 872.741M2101.88 793.938H2186.54M2101.88 793.938V872.741M2186.54 793.938H2271.2M2186.54 793.938V872.741M2271.2 793.938H2355.86M2271.2 793.938V872.741M2355.86 793.938H2440.52M2355.86 793.938V872.741M2440.52 793.938H2525.18M2440.52 793.938V872.741M2525.18 793.938H2609.85M2525.18 793.938V872.741M2609.85 793.938H2694.51M2609.85 793.938V872.741M2694.51 793.938H2779.17M2694.51 793.938V872.741M2779.17 793.938H2863.83M2779.17 793.938V872.741M2863.83 793.938H2948.49M2863.83 793.938V872.741M2948.49 793.938H3033.15M2948.49 793.938V872.741M3033.15 793.938H3106M3033.15 793.938V872.741M1525 872.741H1593.91M1593.91 872.741H1678.57M1593.91 872.741V951.544M1678.57 872.741H1763.23M1678.57 872.741V951.544M1763.23 872.741H1847.89M1763.23 872.741V951.544M1847.89 872.741H1932.56M1847.89 872.741V951.544M1932.56 872.741H2017.22M1932.56 872.741V951.544M2017.22 872.741H2101.88M2017.22 872.741V951.544M2101.88 872.741H2186.54M2101.88 872.741V951.544M2186.54 872.741H2271.2M2186.54 872.741V951.544M2271.2 872.741H2355.86M2271.2 872.741V951.544M2355.86 872.741H2440.52M2355.86 872.741V951.544M2440.52 872.741H2525.18M2440.52 872.741V951.544M2525.18 872.741H2609.85M2525.18 872.741V951.544M2609.85 872.741H2694.51M2609.85 872.741V951.544M2694.51 872.741H2779.17M2694.51 872.741V951.544M2779.17 872.741H2863.83M2779.17 872.741V951.544M2863.83 872.741H2948.49M2863.83 872.741V951.544M2948.49 872.741H3033.15M2948.49 872.741V951.544M3033.15 872.741H3106M3033.15 872.741V951.544M1525 951.544H1593.91M1593.91 951.544H1678.57M1593.91 951.544V1030.35M1678.57 951.544H1763.23M1678.57 951.544V1030.35M1763.23 951.544H1847.89M1763.23 951.544V1030.35M1847.89 951.544H1932.56M1847.89 951.544V1030.35M1932.56 951.544H2017.22M1932.56 951.544V1030.35M2017.22 951.544H2101.88M2017.22 951.544V1030.35M2101.88 951.544H2186.54M2101.88 951.544V1030.35M2186.54 951.544H2271.2M2186.54 951.544V1030.35M2271.2 951.544H2355.86M2271.2 951.544V1030.35M2355.86 951.544H2440.52M2355.86 951.544V1030.35M2440.52 951.544H2525.18M2440.52 951.544V1030.35M2525.18 951.544H2609.85M2525.18 951.544V1030.35M2609.85 951.544H2694.51M2609.85 951.544V1030.35M2694.51 951.544H2779.17M2694.51 951.544V1030.35M2779.17 951.544H2863.83M2779.17 951.544V1030.35M2863.83 951.544H2948.49M2863.83 951.544V1030.35M2948.49 951.544H3033.15M2948.49 951.544V1030.35M3033.15 951.544H3106M3033.15 951.544V1030.35M1525 1030.35H1593.91M1593.91 1030.35H1678.57M1593.91 1030.35V1119M1678.57 1030.35H1763.23M1678.57 1030.35V1119M1763.23 1030.35H1847.89M1763.23 1030.35V1119M1847.89 1030.35H1932.56M1847.89 1030.35V1119M1932.56 1030.35H2017.22M1932.56 1030.35V1119M2017.22 1030.35H2101.88M2017.22 1030.35V1119M2101.88 1030.35H2186.54M2101.88 1030.35V1119M2186.54 1030.35H2271.2M2186.54 1030.35V1119M2271.2 1030.35H2355.86M2271.2 1030.35V1119M2355.86 1030.35H2440.52M2355.86 1030.35V1119M2440.52 1030.35H2525.18M2440.52 1030.35V1119M2525.18 1030.35H2609.85M2525.18 1030.35V1119M2609.85 1030.35H2694.51M2609.85 1030.35V1119M2694.51 1030.35H2779.17M2694.51 1030.35V1119M2779.17 1030.35H2863.83M2779.17 1030.35V1119M2863.83 1030.35H2948.49M2863.83 1030.35V1119M2948.49 1030.35H3033.15M2948.49 1030.35V1119M3033.15 1030.35H3106M3033.15 1030.35V1119" stroke="url(#paint0_radial_300_66)"/>
<defs>
<radialGradient id="paint0_radial_300_66" cx="0" cy="0" r="1" gradientUnits="userSpaceOnUse" gradientTransform="translate(1553 559.5) rotate(90) scale(559.5 998.052)">
<stop stop-color="#1F1428"/>
<stop offset="1" stop-color="#0A0A0A" stop-opacity="0"/>
</radialGradient>
</defs>
</svg>
