<?xml version="1.0" encoding="UTF-8"?>
<svg id="Camada_2" data-name="Camada 2" xmlns="http://www.w3.org/2000/svg" xmlns:xlink="http://www.w3.org/1999/xlink" viewBox="0 0 2027.23 314.27">
  <defs>
    <style>
      .cls-1 {
        fill: url(#Gradiente_sem_nome_2691);
      }

      .cls-1, .cls-2, .cls-3, .cls-4, .cls-5, .cls-6 {
        stroke-width: 0px;
      }

      .cls-2 {
        fill: #ddd;
      }

      .cls-3 {
        fill: #33e453;
      }

      .cls-4 {
        fill: #eaeaea;
      }

      .cls-5 {
        fill: url(#Gradiente_sem_nome_1284);
      }

      .cls-6 {
        fill: #111;
      }
    </style>
    <linearGradient id="Gradiente_sem_nome_1284" data-name="Gradiente sem nome 1284" x1="1700.09" y1="80.82" x2="2086.65" y2="312.27" gradientUnits="userSpaceOnUse">
      <stop offset=".26" stop-color="#0fb"/>
      <stop offset="1" stop-color="#00f090"/>
    </linearGradient>
    <linearGradient id="Gradiente_sem_nome_2691" data-name="Gradiente sem nome 2691" x1="1766.17" y1="148.6" x2="2080.53" y2="264.78" gradientUnits="userSpaceOnUse">
      <stop offset="0" stop-color="#10737a"/>
      <stop offset="1" stop-color="#00f0c8"/>
    </linearGradient>
  </defs>
  <g id="Camada_1-2" data-name="Camada 1">
    <g>
      <g>
        <g>
          <path class="cls-3" d="M1956.15,140.87h-135.26c-.95,0-1.73.77-1.73,1.73v31.22c0,.95.77,1.73,1.73,1.73h102.31s34.68,0,34.68,0v-32.96c0-.95-.77-1.73-1.73-1.73Z"/>
          <path class="cls-5" d="M1992.55,75.66v182.31c0,11.93-9.67,21.61-21.61,21.61h-117.11v-34.68h104.04v-69.31l-34.69,34.64h-102.3c-.95,0-1.73.77-1.73,1.73v67.63h-6.28c-15.68,0-28.4-12.71-28.4-28.4V106.19h171.67c.95,0,1.73-.77,1.73-1.73v-31.22c0-.95-.77-1.73-1.73-1.73h-171.25c-.46,0-.9.18-1.22.51l-33.37,33.37c-.32.32-.51.76-.51,1.22v173.19c0,.46.18.9.51,1.22l32.75,32.75c.32.32.76.51,1.22.51h208.4c.46,0,.9-.18,1.22-.51l32.83-32.83c.32-.32.51-.76.51-1.22V106.69c0-.46-.18-.9-.51-1.22l-31.22-31.03c-1.09-1.08-2.94-.31-2.94,1.22Z"/>
          <polygon class="cls-3" points="1957.91 175.55 1957.87 175.55 1957.87 175.59 1957.91 175.55"/>
        </g>
        <g>
          <path class="cls-1" d="M1956.15,140.87h-135.26c-.95,0-1.73.77-1.73,1.73v31.22c0,.95.77,1.73,1.73,1.73h102.31s34.68,0,34.68,0v-32.96c0-.95-.77-1.73-1.73-1.73Z"/>
          <path class="cls-1" d="M1992.55,75.66v182.31c0,11.93-9.67,21.61-21.61,21.61h-117.11v-34.68h104.04v-69.31l-34.69,34.64h-102.3c-.95,0-1.73.77-1.73,1.73v67.63h-6.28c-15.68,0-28.4-12.71-28.4-28.4V106.19h171.67c.95,0,1.73-.77,1.73-1.73v-31.22c0-.95-.77-1.73-1.73-1.73h-171.25c-.46,0-.9.18-1.22.51l-33.37,33.37c-.32.32-.51.76-.51,1.22v173.19c0,.46.18.9.51,1.22l32.75,32.75c.32.32.76.51,1.22.51h208.4c.46,0,.9-.18,1.22-.51l32.83-32.83c.32-.32.51-.76.51-1.22V106.69c0-.46-.18-.9-.51-1.22l-31.22-31.03c-1.09-1.08-2.94-.31-2.94,1.22Z"/>
          <polygon class="cls-1" points="1957.91 175.55 1957.87 175.55 1957.87 175.59 1957.91 175.55"/>
        </g>
      </g>
      <g>
        <g>
          <path class="cls-4" d="M270.43,215.86c0,9.25-1.96,17.29-5.88,24.12-3.92,6.83-9.19,12.11-15.83,15.83-6.63,3.72-14.27,5.58-22.91,5.58s-16.13-1.86-23.06-5.58c-6.93-3.72-12.36-8.99-16.28-15.83-3.92-6.83-5.88-14.97-5.88-24.42V84.41h-41v129.94c0,16.28,3.72,30.85,11.16,43.71,7.43,12.86,17.64,22.96,30.6,30.3,12.96,7.34,27.78,11,44.47,11s31.7-3.66,44.47-11c12.76-7.33,22.86-17.38,30.3-30.15,7.43-12.76,11.15-27.28,11.15-43.56V84.41h-41.3v131.44Z"/>
          <path class="cls-4" d="M581.55,84.41l-79.52,197.53-82.47-96.69,91.44-100.83h-51.25l-84.71,95.84v-95.84h-41v211.94h41v-104.84l87.13,104.84h76.88l15.13-39.49h87.23l14.92,39.49h43.71l-85.02-211.94h-33.46ZM567.33,222.49l30.75-80.28,30.33,80.28h-61.08Z"/>
          <path class="cls-4" d="M822.28,189.63c-5.93-4.82-12.46-8.74-19.6-11.76-7.14-3.01-14.27-5.73-21.4-8.14-7.14-2.41-13.67-4.92-19.6-7.54-5.93-2.61-10.7-5.73-14.32-9.35s-5.43-8.34-5.43-14.17c0-6.83,2.71-12.06,8.14-15.68,5.43-3.62,12.86-5.43,22.31-5.43,8.24,0,15.62,1.61,22.16,4.82,6.53,3.22,12.91,8.24,19.14,15.07l27.13-27.13c-7.44-8.64-16.99-15.68-28.64-21.1-11.66-5.43-24.72-8.14-39.19-8.14-13.67,0-25.93,2.41-36.78,7.24-10.85,4.82-19.4,11.76-25.63,20.8-6.23,9.04-9.35,20-9.35,32.86,0,10.85,1.81,19.85,5.43,26.98,3.62,7.14,8.39,12.96,14.32,17.49,5.93,4.52,12.46,8.29,19.6,11.31,7.13,3.01,14.27,5.68,21.4,7.99,7.13,2.31,13.67,4.88,19.6,7.69,5.93,2.82,10.7,6.23,14.32,10.25,3.62,4.02,5.43,9.25,5.43,15.68,0,7.44-3.16,13.27-9.5,17.49-6.33,4.22-14.82,6.33-25.47,6.33-11.86,0-21.91-2.26-30.15-6.78-8.24-4.52-15.48-10.9-21.71-19.14l-27.13,27.13c9.85,11.66,20.85,20.4,33.01,26.23,12.16,5.83,26.78,8.74,43.86,8.74,24.12,0,43.11-5.62,56.98-16.88,13.87-11.25,20.8-26.73,20.8-46.43,0-11.05-1.81-20.35-5.43-27.89-3.62-7.54-8.39-13.72-14.32-18.54Z"/>
          <polygon class="cls-4" points="927.03 84.41 896.89 84.41 896.89 296.35 937.89 296.35 937.89 209.53 1033.76 209.53 1033.76 173.05 937.89 173.05 937.89 120.59 1038.88 120.59 1038.88 84.41 937.89 84.41 927.03 84.41"/>
          <polygon class="cls-4" points="1162.48 30.75 1137.16 0 1093.74 47.03 1108.82 65.72 1162.48 30.75"/>
          <polygon class="cls-4" points="1094.05 205.61 1189.91 205.61 1189.91 170.64 1094.05 170.64 1094.05 120.59 1198.96 120.59 1198.96 84.41 1094.05 84.41 1083.19 84.41 1053.05 84.41 1053.05 296.35 1083.19 296.35 1094.05 296.35 1200.47 296.35 1200.47 260.17 1094.05 260.17 1094.05 205.61"/>
          <rect class="cls-4" x="1365.97" y="84.41" width="41" height="211.94"/>
          <polygon class="cls-4" points="1544.01 186.22 1614.09 84.41 1567.66 84.41 1518.92 158.01 1468.78 84.41 1420.24 84.41 1492.71 187.57 1416.62 296.35 1463.05 296.35 1517.66 215.61 1569.77 296.35 1617.71 296.35 1544.01 186.22"/>
          <polygon class="cls-4" points="1216.44 84.41 1216.44 218.54 1257.44 259.54 1257.44 84.41 1216.44 84.41"/>
          <polygon class="cls-4" points="1294.25 296.35 1354.52 296.35 1354.52 259.87 1257.77 259.87 1294.25 296.35"/>
          <polygon class="cls-6" points="1257.44 259.87 1257.77 259.87 1257.44 259.54 1257.44 259.87"/>
          <polygon class="cls-4" points="41 84.41 0 84.41 0 220.48 39.39 259.87 41 261.48 75.87 296.35 138.08 296.35 138.08 259.87 41 259.87 41 84.41"/>
        </g>
        <g>
          <path class="cls-2" d="M270.43,215.86c0,9.25-1.96,17.29-5.88,24.12-3.92,6.83-9.19,12.11-15.83,15.83-6.63,3.72-14.27,5.58-22.91,5.58s-16.13-1.86-23.06-5.58c-6.93-3.72-12.36-8.99-16.28-15.83-3.92-6.83-5.88-14.97-5.88-24.42V84.41h-41v129.94c0,16.28,3.72,30.85,11.16,43.71,7.43,12.86,17.64,22.96,30.6,30.3,12.96,7.34,27.78,11,44.47,11s31.7-3.66,44.47-11c12.76-7.33,22.86-17.38,30.3-30.15,7.43-12.76,11.15-27.28,11.15-43.56V84.41h-41.3v131.44Z"/>
          <path class="cls-2" d="M581.55,84.41l-79.52,197.53-82.47-96.69,91.44-100.83h-51.25l-84.71,95.84v-95.84h-41v211.94h41v-104.84l87.13,104.84h76.88l15.13-39.49h87.23l14.92,39.49h43.71l-85.02-211.94h-33.46ZM567.33,222.49l30.75-80.28,30.33,80.28h-61.08Z"/>
          <path class="cls-2" d="M822.28,189.63c-5.93-4.82-12.46-8.74-19.6-11.76-7.14-3.01-14.27-5.73-21.4-8.14-7.14-2.41-13.67-4.92-19.6-7.54-5.93-2.61-10.7-5.73-14.32-9.35s-5.43-8.34-5.43-14.17c0-6.83,2.71-12.06,8.14-15.68,5.43-3.62,12.86-5.43,22.31-5.43,8.24,0,15.62,1.61,22.16,4.82,6.53,3.22,12.91,8.24,19.14,15.07l27.13-27.13c-7.44-8.64-16.99-15.68-28.64-21.1-11.66-5.43-24.72-8.14-39.19-8.14-13.67,0-25.93,2.41-36.78,7.24-10.85,4.82-19.4,11.76-25.63,20.8-6.23,9.04-9.35,20-9.35,32.86,0,10.85,1.81,19.85,5.43,26.98,3.62,7.14,8.39,12.96,14.32,17.49,5.93,4.52,12.46,8.29,19.6,11.31,7.13,3.01,14.27,5.68,21.4,7.99,7.13,2.31,13.67,4.88,19.6,7.69,5.93,2.82,10.7,6.23,14.32,10.25,3.62,4.02,5.43,9.25,5.43,15.68,0,7.44-3.16,13.27-9.5,17.49-6.33,4.22-14.82,6.33-25.47,6.33-11.86,0-21.91-2.26-30.15-6.78-8.24-4.52-15.48-10.9-21.71-19.14l-27.13,27.13c9.85,11.66,20.85,20.4,33.01,26.23,12.16,5.83,26.78,8.74,43.86,8.74,24.12,0,43.11-5.62,56.98-16.88,13.87-11.25,20.8-26.73,20.8-46.43,0-11.05-1.81-20.35-5.43-27.89-3.62-7.54-8.39-13.72-14.32-18.54Z"/>
          <polygon class="cls-2" points="927.03 84.41 896.89 84.41 896.89 296.35 937.89 296.35 937.89 209.53 1033.76 209.53 1033.76 173.05 937.89 173.05 937.89 120.59 1038.88 120.59 1038.88 84.41 937.89 84.41 927.03 84.41"/>
          <polygon class="cls-2" points="1162.48 30.75 1137.16 0 1093.74 47.03 1108.82 65.72 1162.48 30.75"/>
          <polygon class="cls-2" points="1094.05 205.61 1189.91 205.61 1189.91 170.64 1094.05 170.64 1094.05 120.59 1198.96 120.59 1198.96 84.41 1094.05 84.41 1083.19 84.41 1053.05 84.41 1053.05 296.35 1083.19 296.35 1094.05 296.35 1200.47 296.35 1200.47 260.17 1094.05 260.17 1094.05 205.61"/>
          <rect class="cls-2" x="1365.97" y="84.41" width="41" height="211.94"/>
          <polygon class="cls-2" points="1544.01 186.22 1614.09 84.41 1567.66 84.41 1518.92 158.01 1468.78 84.41 1420.24 84.41 1492.71 187.57 1416.62 296.35 1463.05 296.35 1517.66 215.61 1569.77 296.35 1617.71 296.35 1544.01 186.22"/>
          <polygon class="cls-2" points="1216.44 84.41 1216.44 218.54 1257.44 259.54 1257.44 84.41 1216.44 84.41"/>
          <polygon class="cls-2" points="1294.25 296.35 1354.52 296.35 1354.52 259.87 1257.77 259.87 1294.25 296.35"/>
          <polygon class="cls-2" points="1257.44 259.87 1257.77 259.87 1257.44 259.54 1257.44 259.87"/>
          <polygon class="cls-2" points="41 84.41 0 84.41 0 220.48 39.39 259.87 41 261.48 75.87 296.35 138.08 296.35 138.08 259.87 41 259.87 41 84.41"/>
        </g>
      </g>
    </g>
  </g>
</svg>