<svg width="192" height="67" viewBox="0 0 192 67" fill="none" xmlns="http://www.w3.org/2000/svg">
<path d="M65.6359 6V16.9902H55.7111C50.2342 16.9902 45.7966 21.913 45.7966 27.9804H35.8821C35.8787 15.8419 44.7573 6 55.7111 6H65.6359Z" fill="url(#paint0_radial_202_82)"/>
<path d="M16.0497 16.9902H6.12488V27.9804H16.0497V16.9902Z" fill="url(#paint1_radial_202_82)"/>
<path d="M25.9641 6H16.0496V16.9902H25.9641V6Z" fill="url(#paint2_radial_202_82)"/>
<path d="M65.636 38.978H45.7967V27.9878H55.7215C61.1984 27.9878 65.636 32.9106 65.636 38.978Z" fill="url(#paint3_radial_202_82)"/>
<path d="M45.7965 38.978C45.7965 51.1241 36.9145 60.9698 25.9572 60.9698H16.0496V49.9796H25.9572C31.4376 49.9796 35.882 45.053 35.882 38.978H45.7965Z" fill="url(#paint4_radial_202_82)"/>
<path d="M16.0497 38.978H6.12488V49.9796H16.0497V38.978Z" fill="url(#paint5_radial_202_82)"/>
<path d="M25.9641 38.978H16.0496V27.9878C21.5265 27.9878 25.9641 32.9106 25.9641 38.978Z" fill="url(#paint6_radial_202_82)"/>
<path d="M83.3514 31.5845V6.98242H87.7383V31.58H83.3514V31.5845Z" fill="#E3CBFF"/>
<path d="M96.8691 31.9084C94.6656 31.9084 92.9774 31.2651 91.7964 29.9741C90.6155 28.6875 90.0271 26.9286 90.0271 24.7019V14.0135H94.4139V23.7662C94.4139 25.0348 94.7102 25.9884 95.2986 26.6227C95.8871 27.257 96.7717 27.5764 97.9527 27.5764C99.1336 27.5764 100.108 27.2345 100.765 26.5507C101.426 25.867 101.755 24.8908 101.755 23.6222V14.018H106.142V26.7847H108.309V31.589H103.869V28.719H102.762C102.129 29.7536 101.357 30.5454 100.448 31.0897C99.5394 31.634 98.3463 31.9084 96.8691 31.9084Z" fill="#E3CBFF"/>
<path d="M117.05 31.9354C115.395 31.9354 113.946 31.562 112.704 30.8063C111.462 30.0505 110.492 28.9934 109.798 27.6304C109.105 26.2628 108.756 24.6524 108.756 22.799C108.756 20.9457 109.1 19.3352 109.786 17.9677C110.472 16.6001 111.442 15.543 112.692 14.7918C113.942 14.0405 115.395 13.6626 117.05 13.6626C119.144 13.6626 120.873 14.2474 122.229 15.4215C123.584 16.5911 124.44 18.2016 124.793 20.2529H120.382C120.155 19.4926 119.757 18.9078 119.193 18.494C118.629 18.0846 117.915 17.8777 117.054 17.8777C115.874 17.8777 114.928 18.3096 114.214 19.1643C113.5 20.0235 113.142 21.2336 113.142 22.7945C113.142 24.3555 113.504 25.5656 114.226 26.4248C114.948 27.284 115.89 27.7113 117.054 27.7113C118.921 27.7113 120.058 26.8341 120.463 25.0752H124.875C124.558 27.221 123.722 28.9034 122.367 30.1135C121.011 31.3236 119.238 31.9309 117.054 31.9309L117.05 31.9354Z" fill="#E3CBFF"/>
<path d="M132.001 31.9084C130.134 31.9084 128.673 31.4046 127.614 30.4014C126.559 29.3983 126.027 28.0712 126.027 26.4338C126.027 24.6974 126.571 23.3568 127.667 22.4211C128.758 21.4855 130.325 21.0131 132.37 21.0131H136.915V20.3384C136.915 18.4445 135.892 17.4998 133.851 17.4998C132.074 17.4998 130.998 18.1836 130.629 19.5511H126.271C126.624 17.6168 127.443 16.1548 128.726 15.1561C130.008 14.1575 131.721 13.6626 133.851 13.6626C136.213 13.6626 138.011 14.2474 139.253 15.4215C140.494 16.5911 141.115 18.3006 141.115 20.5453V26.7847H143.177V31.589H138.737V28.719H137.629C137.082 29.7356 136.351 30.5184 135.438 31.0762C134.521 31.634 133.376 31.9129 132.005 31.9129L132.001 31.9084ZM132.662 28.2152C133.49 28.2152 134.221 28.0487 134.854 27.7158C135.487 27.3829 135.99 26.9376 136.359 26.3843C136.728 25.8265 136.915 25.1967 136.915 24.4949V24.2295H132.581C130.994 24.2295 130.203 24.8818 130.203 26.1909C130.203 26.8341 130.422 27.3335 130.864 27.6843C131.303 28.0352 131.903 28.2107 132.662 28.2107V28.2152Z" fill="#E3CBFF"/>
<path d="M151.439 31.9354C149.114 31.9354 147.28 31.3956 145.932 30.3114C144.585 29.2273 143.859 27.7113 143.753 25.759H147.982C148.124 26.6002 148.489 27.221 149.077 27.6349C149.666 28.0442 150.518 28.2512 151.626 28.2512C153.44 28.2512 154.349 27.6933 154.349 26.5822C154.349 26.1324 154.211 25.777 153.939 25.5116C153.667 25.2462 153.213 25.0482 152.58 24.9133L149.041 24.1531C145.872 23.4693 144.285 21.8184 144.285 19.2047C144.285 17.5268 144.894 16.1818 146.107 15.1786C147.324 14.1755 149.004 13.6716 151.151 13.6716C153.298 13.6716 154.974 14.189 156.224 15.2236C157.474 16.2583 158.16 17.7023 158.285 19.5601H154.057C153.862 18.7414 153.521 18.1431 153.026 17.7742C152.531 17.4054 151.821 17.2164 150.887 17.2164C150.076 17.2164 149.459 17.3469 149.037 17.6123C148.615 17.8777 148.404 18.2691 148.404 18.7999C148.404 19.1733 148.538 19.4836 148.802 19.7356C149.065 19.9875 149.471 20.1764 150.015 20.2934L153.635 21.0536C155.291 21.427 156.504 22.0208 157.279 22.8395C158.054 23.6582 158.44 24.7738 158.44 26.1774C158.44 27.9947 157.835 29.4073 156.63 30.4239C155.424 31.4406 153.692 31.9444 151.439 31.9444V31.9354Z" fill="#E3CBFF"/>
<path d="M84.8285 59.0251V45.2598H82V41.4541H84.8813V38.3187C84.8813 36.9917 85.1978 36.011 85.8309 35.3767C86.464 34.7424 87.3527 34.423 88.5012 34.423H93.0463V38.2287H89.1627V41.4496H92.7298V45.2553H89.2154V59.0206H84.8285V59.0251Z" fill="#E3CBFF"/>
<path d="M101.362 59.376C99.653 59.376 98.1637 59.0026 96.8975 58.2469C95.6314 57.4957 94.6534 56.4295 93.9635 55.053C93.2776 53.6765 92.9327 52.0525 92.9327 50.1767C92.9327 48.3008 93.2655 46.6859 93.9351 45.3318C94.6047 43.9733 95.5583 42.9296 96.8001 42.1964C98.0419 41.4631 99.5069 41.0988 101.199 41.0988C102.891 41.0988 104.275 41.4496 105.464 42.1514C106.653 42.8532 107.562 43.8608 108.2 45.1699C108.833 46.4789 109.149 48.0399 109.149 49.8573V51.4992H97.1289C97.3034 52.8083 97.7538 53.8024 98.4762 54.4862C99.1985 55.17 100.148 55.5118 101.329 55.5118C102.262 55.5118 103.001 55.3364 103.549 54.9855C104.093 54.6346 104.482 54.0993 104.71 53.3751H109.096C108.743 55.2509 107.891 56.7174 106.536 57.7836C105.18 58.8497 103.451 59.3805 101.357 59.3805L101.362 59.376ZM97.2425 48.2783H104.957C104.815 47.1672 104.429 46.3305 103.796 45.7727C103.163 45.2149 102.307 44.936 101.232 44.936C100.156 44.936 99.2797 45.2194 98.602 45.7862C97.9243 46.353 97.4697 47.1807 97.2425 48.2738V48.2783Z" fill="#E3CBFF"/>
<path d="M110.306 59.0251V34.4275H114.693V59.0251H110.306Z" fill="#E3CBFF"/>
<path d="M119.388 39.7267C118.718 39.7267 118.15 39.4703 117.683 38.953C117.217 38.4357 116.981 37.8059 116.981 37.0636C116.981 36.3214 117.217 35.6916 117.683 35.1743C118.15 34.657 118.718 34.3961 119.388 34.3961C120.058 34.3961 120.626 34.657 121.092 35.1743C121.559 35.6916 121.79 36.3214 121.79 37.0636C121.79 37.8059 121.555 38.4357 121.092 38.953C120.63 39.4703 120.058 39.7267 119.388 39.7267ZM117.192 59.0251V41.4541H121.579V59.0251H117.192Z" fill="#E3CBFF"/>
<path d="M122.208 59.0251L128.389 50.0327L122.525 41.4496H127.439L130.901 46.6049L134.415 41.4496H139.277L133.437 50.0327L139.594 59.0251H134.679L130.901 53.4021L127.07 59.0251H122.208Z" fill="#E3CBFF"/>
<path d="M146.586 59.376C144.967 59.376 143.587 58.9936 142.45 58.2334C141.314 57.4732 140.454 56.4025 139.874 55.026C139.293 53.6495 139.001 52.0525 139.001 50.2396C139.001 48.4268 139.281 46.7983 139.845 45.4218C140.409 44.0453 141.233 42.9836 142.317 42.2279C143.4 41.4766 144.699 41.0988 146.212 41.0988C147.373 41.0988 148.375 41.3372 149.211 41.8185C150.047 42.2999 150.697 42.9746 151.155 43.8518H151.261V34.423H155.648V54.2208H157.815V59.0251H153.375V56.1551H152.267C151.703 57.1718 150.948 57.959 150.007 58.5258C149.065 59.0926 147.925 59.376 146.586 59.376ZM147.406 55.161C148.586 55.161 149.524 54.7966 150.218 54.0633C150.912 53.3301 151.261 52.3224 151.261 51.0314V49.4479C151.261 48.1614 150.912 47.1492 150.218 46.4159C149.524 45.6827 148.582 45.3183 147.406 45.3183C146.066 45.3183 145.064 45.7592 144.394 46.6364C143.725 47.5136 143.392 48.7147 143.392 50.2396C143.392 51.7646 143.725 52.9612 144.394 53.8429C145.064 54.7246 146.066 55.161 147.406 55.161Z" fill="#E3CBFF"/>
<path d="M166.686 59.376C164.977 59.376 163.488 59.0026 162.222 58.2469C160.956 57.4957 159.978 56.4295 159.288 55.053C158.602 53.6765 158.257 52.0525 158.257 50.1767C158.257 48.3008 158.59 46.6859 159.259 45.3318C159.929 43.9733 160.883 42.9296 162.124 42.1964C163.366 41.4631 164.831 41.0988 166.524 41.0988C168.216 41.0988 169.6 41.4496 170.789 42.1514C171.978 42.8532 172.887 43.8608 173.524 45.1699C174.157 46.4789 174.474 48.0399 174.474 49.8573V51.4992H162.453C162.628 52.8083 163.078 53.8024 163.801 54.4862C164.523 55.17 165.472 55.5118 166.653 55.5118C167.587 55.5118 168.325 55.3364 168.873 54.9855C169.417 54.6346 169.807 54.0993 170.034 53.3751H174.421C174.068 55.2509 173.215 56.7174 171.86 57.7836C170.505 58.8497 168.776 59.3805 166.682 59.3805L166.686 59.376ZM162.567 48.2783H170.281C170.139 47.1672 169.754 46.3305 169.121 45.7727C168.488 45.2149 167.631 44.936 166.556 44.936C165.481 44.936 164.604 45.2194 163.926 45.7862C163.249 46.353 162.794 47.1807 162.567 48.2738V48.2783Z" fill="#E3CBFF"/>
<path d="M180.63 59.0251L173.84 41.4541H178.463L182.902 53.4021H183.008L187.314 41.4541H191.859L185.069 59.0251H180.63Z" fill="#E3CBFF"/>
<defs>
<radialGradient id="paint0_radial_202_82" cx="0" cy="0" r="1" gradientUnits="userSpaceOnUse" gradientTransform="translate(10.7334 45.1024) scale(117.306 130.033)">
<stop offset="0.1" stop-color="#B59CCA"/>
<stop offset="0.3" stop-color="#613188"/>
<stop offset="0.38" stop-color="#41235D"/>
<stop offset="0.44" stop-color="#2C1A42"/>
<stop offset="0.48" stop-color="#251738"/>
<stop offset="0.5" stop-color="#2C1943"/>
<stop offset="0.54" stop-color="#401F62"/>
<stop offset="0.6" stop-color="#612A93"/>
<stop offset="0.67" stop-color="#8E38D7"/>
<stop offset="0.7" stop-color="#A13EF3"/>
</radialGradient>
<radialGradient id="paint1_radial_202_82" cx="0" cy="0" r="1" gradientUnits="userSpaceOnUse" gradientTransform="translate(10.7334 45.1024) scale(117.306 130.033)">
<stop offset="0.1" stop-color="#B59CCA"/>
<stop offset="0.3" stop-color="#613188"/>
<stop offset="0.38" stop-color="#41235D"/>
<stop offset="0.44" stop-color="#2C1A42"/>
<stop offset="0.48" stop-color="#251738"/>
<stop offset="0.5" stop-color="#2C1943"/>
<stop offset="0.54" stop-color="#401F62"/>
<stop offset="0.6" stop-color="#612A93"/>
<stop offset="0.67" stop-color="#8E38D7"/>
<stop offset="0.7" stop-color="#A13EF3"/>
</radialGradient>
<radialGradient id="paint2_radial_202_82" cx="0" cy="0" r="1" gradientUnits="userSpaceOnUse" gradientTransform="translate(10.7333 45.1024) scale(117.306 130.033)">
<stop offset="0.1" stop-color="#B59CCA"/>
<stop offset="0.3" stop-color="#613188"/>
<stop offset="0.38" stop-color="#41235D"/>
<stop offset="0.44" stop-color="#2C1A42"/>
<stop offset="0.48" stop-color="#251738"/>
<stop offset="0.5" stop-color="#2C1943"/>
<stop offset="0.54" stop-color="#401F62"/>
<stop offset="0.6" stop-color="#612A93"/>
<stop offset="0.67" stop-color="#8E38D7"/>
<stop offset="0.7" stop-color="#A13EF3"/>
</radialGradient>
<radialGradient id="paint3_radial_202_82" cx="0" cy="0" r="1" gradientUnits="userSpaceOnUse" gradientTransform="translate(10.7335 45.1022) scale(117.306 130.033)">
<stop offset="0.1" stop-color="#B59CCA"/>
<stop offset="0.3" stop-color="#613188"/>
<stop offset="0.38" stop-color="#41235D"/>
<stop offset="0.44" stop-color="#2C1A42"/>
<stop offset="0.48" stop-color="#251738"/>
<stop offset="0.5" stop-color="#2C1943"/>
<stop offset="0.54" stop-color="#401F62"/>
<stop offset="0.6" stop-color="#612A93"/>
<stop offset="0.67" stop-color="#8E38D7"/>
<stop offset="0.7" stop-color="#A13EF3"/>
</radialGradient>
<radialGradient id="paint4_radial_202_82" cx="0" cy="0" r="1" gradientUnits="userSpaceOnUse" gradientTransform="translate(10.7333 45.1022) scale(117.306 130.033)">
<stop offset="0.1" stop-color="#B59CCA"/>
<stop offset="0.3" stop-color="#613188"/>
<stop offset="0.38" stop-color="#41235D"/>
<stop offset="0.44" stop-color="#2C1A42"/>
<stop offset="0.48" stop-color="#251738"/>
<stop offset="0.5" stop-color="#2C1943"/>
<stop offset="0.54" stop-color="#401F62"/>
<stop offset="0.6" stop-color="#612A93"/>
<stop offset="0.67" stop-color="#8E38D7"/>
<stop offset="0.7" stop-color="#A13EF3"/>
</radialGradient>
<radialGradient id="paint5_radial_202_82" cx="0" cy="0" r="1" gradientUnits="userSpaceOnUse" gradientTransform="translate(10.7334 45.1022) scale(117.306 130.033)">
<stop offset="0.1" stop-color="#B59CCA"/>
<stop offset="0.3" stop-color="#613188"/>
<stop offset="0.38" stop-color="#41235D"/>
<stop offset="0.44" stop-color="#2C1A42"/>
<stop offset="0.48" stop-color="#251738"/>
<stop offset="0.5" stop-color="#2C1943"/>
<stop offset="0.54" stop-color="#401F62"/>
<stop offset="0.6" stop-color="#612A93"/>
<stop offset="0.67" stop-color="#8E38D7"/>
<stop offset="0.7" stop-color="#A13EF3"/>
</radialGradient>
<radialGradient id="paint6_radial_202_82" cx="0" cy="0" r="1" gradientUnits="userSpaceOnUse" gradientTransform="translate(10.7333 45.1022) scale(117.306 130.033)">
<stop offset="0.1" stop-color="#B59CCA"/>
<stop offset="0.3" stop-color="#613188"/>
<stop offset="0.38" stop-color="#41235D"/>
<stop offset="0.44" stop-color="#2C1A42"/>
<stop offset="0.48" stop-color="#251738"/>
<stop offset="0.5" stop-color="#2C1943"/>
<stop offset="0.54" stop-color="#401F62"/>
<stop offset="0.6" stop-color="#612A93"/>
<stop offset="0.67" stop-color="#8E38D7"/>
<stop offset="0.7" stop-color="#A13EF3"/>
</radialGradient>
</defs>
</svg>
