<svg width="133" height="28" viewBox="0 0 133 28" fill="none" xmlns="http://www.w3.org/2000/svg">
<g clip-path="url(#clip0_156_9)">
<path d="M133 0.33252V5.80736H127.52C124.495 5.80736 122.045 8.25971 122.045 11.2822H116.57C116.568 5.23533 121.471 0.33252 127.52 0.33252H133Z" fill="url(#paint0_radial_156_9)"/>
<path d="M105.618 5.80762H100.138V11.2825H105.618V5.80762Z" fill="url(#paint1_radial_156_9)"/>
<path d="M111.093 0.33252H105.618V5.80736H111.093V0.33252Z" fill="url(#paint2_radial_156_9)"/>
<path d="M133 16.761H122.045V11.2861H127.525C130.55 11.2861 133 13.7385 133 16.761Z" fill="url(#paint3_radial_156_9)"/>
<path d="M122.045 16.7612C122.045 22.8119 117.14 27.7166 111.089 27.7166H105.618V22.2417H111.089C114.116 22.2417 116.57 19.7875 116.57 16.7612H122.045Z" fill="url(#paint4_radial_156_9)"/>
<path d="M105.618 16.7612H100.138V22.2417H105.618V16.7612Z" fill="url(#paint5_radial_156_9)"/>
<path d="M111.093 16.761H105.618V11.2861C108.643 11.2861 111.093 13.7385 111.093 16.761Z" fill="url(#paint6_radial_156_9)"/>
</g>
<path d="M1.3777 19.9995V9.19951H6.35103C7.55103 9.19951 8.47992 9.50173 9.1377 10.1062C9.80436 10.7017 10.1377 11.524 10.1377 12.5728C10.1377 13.6128 9.80436 14.4351 9.1377 15.0395C8.47992 15.644 7.55103 15.9462 6.35103 15.9462H3.23103V19.9995H1.3777ZM3.23103 14.3595H6.24436C6.91103 14.3595 7.4177 14.1995 7.76436 13.8795C8.11103 13.5595 8.28436 13.124 8.28436 12.5728C8.28436 12.0128 8.11103 11.5773 7.76436 11.2662C7.4177 10.9462 6.91103 10.7862 6.24436 10.7862H3.23103V14.3595ZM14.6954 20.1595C13.851 20.1595 13.1132 19.9906 12.4821 19.6528C11.8598 19.3062 11.3754 18.8217 11.0287 18.1995C10.6821 17.5773 10.5087 16.844 10.5087 15.9995C10.5087 15.1551 10.6776 14.4217 11.0154 13.7995C11.3621 13.1773 11.851 12.6973 12.4821 12.3595C13.1132 12.0128 13.8554 11.8395 14.7087 11.8395C15.571 11.8395 16.3132 12.0084 16.9354 12.3462C17.5576 12.684 18.0376 13.164 18.3754 13.7862C18.7132 14.4084 18.8821 15.1462 18.8821 15.9995C18.8821 16.844 18.7132 17.5817 18.3754 18.2128C18.0376 18.8351 17.5532 19.3151 16.9221 19.6528C16.2998 19.9906 15.5576 20.1595 14.6954 20.1595ZM14.6954 18.5862C15.451 18.5862 16.0332 18.3551 16.4421 17.8928C16.8598 17.4306 17.0687 16.7995 17.0687 15.9995C17.0687 15.1817 16.8598 14.5462 16.4421 14.0928C16.0332 13.6395 15.451 13.4128 14.6954 13.4128C13.9487 13.4128 13.3665 13.644 12.9487 14.1062C12.531 14.5595 12.3221 15.1906 12.3221 15.9995C12.3221 16.7995 12.531 17.4306 12.9487 17.8928C13.3665 18.3551 13.9487 18.5862 14.6954 18.5862ZM21.8052 19.9995L19.2452 11.9995H21.1119L22.8585 17.7728H22.9252L24.9652 11.9995H26.7519L28.8052 17.7728H28.8719L30.6185 11.9995H32.4585L29.9119 19.9995H27.9385L25.8719 14.2928H25.8185L23.7785 19.9995H21.8052ZM36.9737 20.1595C36.1293 20.1595 35.3915 19.9906 34.7604 19.6528C34.1382 19.3062 33.6582 18.8173 33.3204 18.1862C32.9826 17.5551 32.8137 16.8173 32.8137 15.9728C32.8137 15.1284 32.9782 14.3995 33.3071 13.7862C33.6448 13.164 34.1204 12.684 34.7337 12.3462C35.3471 12.0084 36.0715 11.8395 36.9071 11.8395C37.7071 11.8395 38.396 11.9995 38.9737 12.3195C39.5515 12.6306 39.996 13.0795 40.3071 13.6662C40.6271 14.244 40.7871 14.9328 40.7871 15.7328V16.3995H34.5471C34.6182 17.1284 34.8626 17.6928 35.2804 18.0928C35.6982 18.484 36.2582 18.6795 36.9604 18.6795C37.476 18.6795 37.8982 18.5817 38.2271 18.3862C38.556 18.1906 38.7826 17.8973 38.9071 17.5062H40.7471C40.5515 18.3417 40.1204 18.9951 39.4537 19.4662C38.796 19.9284 37.9693 20.1595 36.9737 20.1595ZM34.6004 15.1328H39.0537C38.9826 14.5462 38.7604 14.0973 38.3871 13.7862C38.0137 13.4662 37.5204 13.3062 36.9071 13.3062C36.2937 13.3062 35.7871 13.4662 35.3871 13.7862C34.9871 14.0973 34.7248 14.5462 34.6004 15.1328ZM42.7429 19.9995V13.8262H41.8229V11.9995H43.7162V13.5328H44.2762C44.4896 13.0084 44.8273 12.6084 45.2896 12.3328C45.7607 12.0573 46.2985 11.9195 46.9029 11.9195H47.5696V13.4795H46.8229C46.0673 13.4795 45.494 13.6973 45.1029 14.1328C44.7207 14.5684 44.5296 15.1506 44.5296 15.8795V19.9995H42.7429ZM52.0287 20.1595C51.1843 20.1595 50.4465 19.9906 49.8154 19.6528C49.1932 19.3062 48.7132 18.8173 48.3754 18.1862C48.0376 17.5551 47.8687 16.8173 47.8687 15.9728C47.8687 15.1284 48.0332 14.3995 48.3621 13.7862C48.6998 13.164 49.1754 12.684 49.7887 12.3462C50.4021 12.0084 51.1265 11.8395 51.9621 11.8395C52.7621 11.8395 53.451 11.9995 54.0287 12.3195C54.6065 12.6306 55.051 13.0795 55.3621 13.6662C55.6821 14.244 55.8421 14.9328 55.8421 15.7328V16.3995H49.6021C49.6732 17.1284 49.9176 17.6928 50.3354 18.0928C50.7532 18.484 51.3132 18.6795 52.0154 18.6795C52.531 18.6795 52.9532 18.5817 53.2821 18.3862C53.611 18.1906 53.8376 17.8973 53.9621 17.5062H55.8021C55.6065 18.3417 55.1754 18.9951 54.5087 19.4662C53.851 19.9284 53.0243 20.1595 52.0287 20.1595ZM49.6554 15.1328H54.1087C54.0376 14.5462 53.8154 14.0973 53.4421 13.7862C53.0687 13.4662 52.5754 13.3062 51.9621 13.3062C51.3487 13.3062 50.8421 13.4662 50.4421 13.7862C50.0421 14.0973 49.7798 14.5462 49.6554 15.1328ZM60.5712 20.1595C59.7623 20.1595 59.0735 19.9906 58.5046 19.6528C57.9357 19.3062 57.5046 18.8217 57.2112 18.1995C56.9179 17.5773 56.7712 16.844 56.7712 15.9995C56.7712 15.1551 56.9135 14.4217 57.1979 13.7995C57.4912 13.1684 57.909 12.684 58.4512 12.3462C59.0023 12.0084 59.6557 11.8395 60.4112 11.8395C61.0335 11.8395 61.5668 11.9595 62.0112 12.1995C62.4557 12.4306 62.7979 12.764 63.0379 13.1995H63.0912V8.79951H64.9046V18.1728H65.8112V19.9995H63.9312V18.7328H63.3712C63.0957 19.1951 62.7223 19.5506 62.2512 19.7995C61.789 20.0395 61.229 20.1595 60.5712 20.1595ZM60.8779 18.5995C61.5535 18.5995 62.0912 18.4084 62.4912 18.0262C62.8912 17.644 63.0912 17.1284 63.0912 16.4795V15.5195C63.0912 14.8706 62.8912 14.3551 62.4912 13.9728C62.0912 13.5906 61.5535 13.3995 60.8779 13.3995C60.1401 13.3995 59.5712 13.6306 59.1712 14.0928C58.7801 14.5551 58.5846 15.1906 58.5846 15.9995C58.5846 16.8084 58.7801 17.444 59.1712 17.9062C59.5712 18.3684 60.1401 18.5995 60.8779 18.5995ZM75.6779 20.1595C75.0201 20.1595 74.4557 20.0395 73.9846 19.7995C73.5135 19.5506 73.1446 19.1951 72.8779 18.7328H72.3179V19.9995H70.4246V18.1728H71.3446V8.79951H73.1579V13.1995H73.2112C73.4512 12.764 73.7935 12.4306 74.2379 12.1995C74.6912 11.9595 75.2201 11.8395 75.8246 11.8395C76.589 11.8395 77.2423 12.0084 77.7846 12.3462C78.3357 12.684 78.7535 13.1684 79.0379 13.7995C79.3312 14.4217 79.4779 15.1551 79.4779 15.9995C79.4779 16.844 79.3268 17.5773 79.0246 18.1995C78.7312 18.8217 78.3001 19.3062 77.7312 19.6528C77.1712 19.9906 76.4868 20.1595 75.6779 20.1595ZM75.3579 18.5995C76.1046 18.5995 76.6735 18.3684 77.0646 17.9062C77.4646 17.444 77.6646 16.8084 77.6646 15.9995C77.6646 15.1906 77.4646 14.5551 77.0646 14.0928C76.6735 13.6306 76.1046 13.3995 75.3579 13.3995C74.6912 13.3995 74.1579 13.5906 73.7579 13.9728C73.3579 14.3551 73.1579 14.8706 73.1579 15.5195V16.4795C73.1579 17.1284 73.3579 17.644 73.7579 18.0262C74.1579 18.4084 74.6912 18.5995 75.3579 18.5995ZM80.6306 23.1995V21.7462H82.4839L83.2173 19.9862L79.6973 11.9995H81.5906L84.1106 17.8662H84.1773L86.6039 11.9995H88.4173L85.0039 19.9995L84.2706 21.7328C84.0751 22.1951 83.8617 22.5551 83.6306 22.8128C83.4084 23.0706 83.0395 23.1995 82.5239 23.1995H80.6306Z" fill="white"/>
<defs>
<radialGradient id="paint0_radial_156_9" cx="0" cy="0" r="1" gradientUnits="userSpaceOnUse" gradientTransform="translate(102.683 19.8116) scale(64.7768 64.7768)">
<stop offset="0.1" stop-color="#B59CCA"/>
<stop offset="0.3" stop-color="#613188"/>
<stop offset="0.38" stop-color="#41235D"/>
<stop offset="0.44" stop-color="#2C1A42"/>
<stop offset="0.48" stop-color="#251738"/>
<stop offset="0.5" stop-color="#2C1943"/>
<stop offset="0.54" stop-color="#401F62"/>
<stop offset="0.6" stop-color="#612A93"/>
<stop offset="0.67" stop-color="#8E38D7"/>
<stop offset="0.7" stop-color="#A13EF3"/>
</radialGradient>
<radialGradient id="paint1_radial_156_9" cx="0" cy="0" r="1" gradientUnits="userSpaceOnUse" gradientTransform="translate(102.683 19.8119) scale(64.7768 64.7768)">
<stop offset="0.1" stop-color="#B59CCA"/>
<stop offset="0.3" stop-color="#613188"/>
<stop offset="0.38" stop-color="#41235D"/>
<stop offset="0.44" stop-color="#2C1A42"/>
<stop offset="0.48" stop-color="#251738"/>
<stop offset="0.5" stop-color="#2C1943"/>
<stop offset="0.54" stop-color="#401F62"/>
<stop offset="0.6" stop-color="#612A93"/>
<stop offset="0.67" stop-color="#8E38D7"/>
<stop offset="0.7" stop-color="#A13EF3"/>
</radialGradient>
<radialGradient id="paint2_radial_156_9" cx="0" cy="0" r="1" gradientUnits="userSpaceOnUse" gradientTransform="translate(102.683 19.8116) scale(64.7768 64.7768)">
<stop offset="0.1" stop-color="#B59CCA"/>
<stop offset="0.3" stop-color="#613188"/>
<stop offset="0.38" stop-color="#41235D"/>
<stop offset="0.44" stop-color="#2C1A42"/>
<stop offset="0.48" stop-color="#251738"/>
<stop offset="0.5" stop-color="#2C1943"/>
<stop offset="0.54" stop-color="#401F62"/>
<stop offset="0.6" stop-color="#612A93"/>
<stop offset="0.67" stop-color="#8E38D7"/>
<stop offset="0.7" stop-color="#A13EF3"/>
</radialGradient>
<radialGradient id="paint3_radial_156_9" cx="0" cy="0" r="1" gradientUnits="userSpaceOnUse" gradientTransform="translate(102.683 19.8118) scale(64.7768 64.7768)">
<stop offset="0.1" stop-color="#B59CCA"/>
<stop offset="0.3" stop-color="#613188"/>
<stop offset="0.38" stop-color="#41235D"/>
<stop offset="0.44" stop-color="#2C1A42"/>
<stop offset="0.48" stop-color="#251738"/>
<stop offset="0.5" stop-color="#2C1943"/>
<stop offset="0.54" stop-color="#401F62"/>
<stop offset="0.6" stop-color="#612A93"/>
<stop offset="0.67" stop-color="#8E38D7"/>
<stop offset="0.7" stop-color="#A13EF3"/>
</radialGradient>
<radialGradient id="paint4_radial_156_9" cx="0" cy="0" r="1" gradientUnits="userSpaceOnUse" gradientTransform="translate(102.683 19.812) scale(64.7768 64.7768)">
<stop offset="0.1" stop-color="#B59CCA"/>
<stop offset="0.3" stop-color="#613188"/>
<stop offset="0.38" stop-color="#41235D"/>
<stop offset="0.44" stop-color="#2C1A42"/>
<stop offset="0.48" stop-color="#251738"/>
<stop offset="0.5" stop-color="#2C1943"/>
<stop offset="0.54" stop-color="#401F62"/>
<stop offset="0.6" stop-color="#612A93"/>
<stop offset="0.67" stop-color="#8E38D7"/>
<stop offset="0.7" stop-color="#A13EF3"/>
</radialGradient>
<radialGradient id="paint5_radial_156_9" cx="0" cy="0" r="1" gradientUnits="userSpaceOnUse" gradientTransform="translate(102.683 19.812) scale(64.7768 64.7768)">
<stop offset="0.1" stop-color="#B59CCA"/>
<stop offset="0.3" stop-color="#613188"/>
<stop offset="0.38" stop-color="#41235D"/>
<stop offset="0.44" stop-color="#2C1A42"/>
<stop offset="0.48" stop-color="#251738"/>
<stop offset="0.5" stop-color="#2C1943"/>
<stop offset="0.54" stop-color="#401F62"/>
<stop offset="0.6" stop-color="#612A93"/>
<stop offset="0.67" stop-color="#8E38D7"/>
<stop offset="0.7" stop-color="#A13EF3"/>
</radialGradient>
<radialGradient id="paint6_radial_156_9" cx="0" cy="0" r="1" gradientUnits="userSpaceOnUse" gradientTransform="translate(102.683 19.8118) scale(64.7768 64.7768)">
<stop offset="0.1" stop-color="#B59CCA"/>
<stop offset="0.3" stop-color="#613188"/>
<stop offset="0.38" stop-color="#41235D"/>
<stop offset="0.44" stop-color="#2C1A42"/>
<stop offset="0.48" stop-color="#251738"/>
<stop offset="0.5" stop-color="#2C1943"/>
<stop offset="0.54" stop-color="#401F62"/>
<stop offset="0.6" stop-color="#612A93"/>
<stop offset="0.67" stop-color="#8E38D7"/>
<stop offset="0.7" stop-color="#A13EF3"/>
</radialGradient>
<clipPath id="clip0_156_9">
<rect width="32.8623" height="27.3836" fill="white" transform="translate(100.138 0.333008)"/>
</clipPath>
</defs>
</svg>
