<svg xmlns="http://www.w3.org/2000/svg" width="288" height="256" fill="none"><rect width="15" height="15" x="128.5" y="145.5" stroke="#CECEFB" stroke-opacity=".08" rx="3.5"/><rect width="16" height="16" x="144" y="129" fill="url(#a)" fill-opacity=".08" rx="4"/><rect width="15" height="15" x="144.5" y="129.5" stroke="url(#b)" stroke-opacity=".12" rx="3.5"/><rect width="15" height="15" x="176.5" y="160.5" stroke="#CECEFB" stroke-opacity=".08" rx="3.5"/><rect width="15" height="15" x="192.5" y="144.5" stroke="#CECEFB" stroke-opacity=".08" rx="3.5"/><rect width="16" height="16" x="224" y="144" fill="#CECEFB" fill-opacity=".04" rx="4"/><rect width="15" height="15" x="224.5" y="144.5" stroke="#CECEFB" stroke-opacity=".08" rx="3.5"/><rect width="15" height="15" x="208.5" y="128.5" stroke="#CECEFB" stroke-opacity=".08" rx="3.5"/><rect width="16" height="16" x="192" y="112" fill="url(#c)" fill-opacity=".08" rx="4"/><rect width="15" height="15" x="192.5" y="112.5" stroke="url(#d)" stroke-opacity=".12" rx="3.5"/><rect width="15" height="15" x="176.5" y="96.5" stroke="#CECEFB" stroke-opacity=".08" rx="3.5"/><rect width="15" height="15" x="160.5" y="80.5" stroke="#CECEFB" stroke-opacity=".08" rx="3.5"/><rect width="15" height="15" x="96.5" y="80.5" stroke="#CECEFB" stroke-opacity=".08" rx="3.5"/><rect width="15" height="15" x="112.5" y="64.5" stroke="#CECEFB" stroke-opacity=".08" rx="3.5"/><rect width="15" height="15" x="48.5" y="96.5" stroke="#CECEFB" stroke-opacity=".08" rx="3.5"/><rect width="16" height="16" x="64" y="48" fill="url(#e)" fill-opacity=".08" rx="4"/><rect width="15" height="15" x="64.5" y="48.5" stroke="url(#f)" stroke-opacity=".12" rx="3.5"/><rect width="15" height="15" x="48.5" y="32.5" stroke="#CECEFB" stroke-opacity=".08" rx="3.5"/><rect width="15" height="15" x=".5" y="48.5" stroke="#CECEFB" stroke-opacity=".08" rx="3.5"/><rect width="15" height="15" x="16.5" y=".5" stroke="#CECEFB" stroke-opacity=".08" rx="3.5"/><rect width="15" height="15" x="224.5" y="112.5" stroke="#CECEFB" stroke-opacity=".08" rx="3.5"/><rect width="15" height="15" x="240.5" y="96.5" stroke="#CECEFB" stroke-opacity=".08" rx="3.5"/><rect width="15" height="15" x="192.5" y="176.5" stroke="#CECEFB" stroke-opacity=".08" rx="3.5"/><rect width="15" height="15" x="128.5" y="192.5" stroke="#CECEFB" stroke-opacity=".08" rx="3.5"/><rect width="15" height="15" x="96.5" y="176.5" stroke="#CECEFB" stroke-opacity=".08" rx="3.5"/><rect width="15" height="15" x="16.5" y="160.5" stroke="#CECEFB" stroke-opacity=".08" rx="3.5"/><rect width="15" height="15" x="64.5" y="176.5" stroke="#CECEFB" stroke-opacity=".08" rx="3.5"/><rect width="15" height="15" x="48.5" y="160.5" stroke="#CECEFB" stroke-opacity=".08" rx="3.5"/><rect width="15" height="15" x="64.5" y="128.5" stroke="#CECEFB" stroke-opacity=".08" rx="3.5"/><rect width="16" height="16" x="80" y="144" fill="url(#g)" fill-opacity=".08" rx="4"/><rect width="15" height="15" x="80.5" y="144.5" stroke="url(#h)" stroke-opacity=".12" rx="3.5"/><rect width="15" height="15" x="96.5" y="128.5" stroke="#CECEFB" stroke-opacity=".08" rx="3.5"/><rect width="15" height="15" x="32.5" y="112.5" stroke="#CECEFB" stroke-opacity=".08" rx="3.5"/><rect width="15" height="15" x="208.5" y="192.5" stroke="#CECEFB" stroke-opacity=".08" rx="3.5"/><rect width="16" height="16" x="240" y="192" fill="#CECEFB" fill-opacity=".04" rx="4"/><rect width="15" height="15" x="240.5" y="192.5" stroke="#CECEFB" stroke-opacity=".08" rx="3.5"/><rect width="15" height="15" x="224.5" y="208.5" stroke="#CECEFB" stroke-opacity=".08" rx="3.5"/><rect width="16" height="16" x="208" y="224" fill="url(#i)" fill-opacity=".08" rx="4"/><rect width="15" height="15" x="208.5" y="224.5" stroke="url(#j)" stroke-opacity=".12" rx="3.5"/><rect width="15" height="15" x="192.5" y="240.5" stroke="#CECEFB" stroke-opacity=".08" rx="3.5"/><rect width="15" height="15" x="272.5" y="192.5" stroke="#CECEFB" stroke-opacity=".08" rx="3.5"/><rect width="15" height="15" x="160.5" y="208.5" stroke="#CECEFB" stroke-opacity=".08" rx="3.5"/><rect width="15" height="15" x="144.5" y="224.5" stroke="#CECEFB" stroke-opacity=".08" rx="3.5"/><rect width="16" height="16" x="128" y="240" fill="#CECEFB" fill-opacity=".04" rx="4"/><rect width="15" height="15" x="128.5" y="240.5" stroke="#CECEFB" stroke-opacity=".08" rx="3.5"/><defs><linearGradient id="a" x1="144" x2="160" y1="129" y2="145" gradientUnits="userSpaceOnUse"><stop offset=".005" stop-color="#8A43FF"/><stop offset="1" stop-color="#FFA2F6"/></linearGradient><linearGradient id="b" x1="144" x2="160" y1="129" y2="145" gradientUnits="userSpaceOnUse"><stop offset=".005" stop-color="#8A43FF"/><stop offset="1" stop-color="#FFA2F6"/></linearGradient><linearGradient id="c" x1="192" x2="208" y1="112" y2="128" gradientUnits="userSpaceOnUse"><stop offset=".005" stop-color="#8A43FF"/><stop offset="1" stop-color="#FFA2F6"/></linearGradient><linearGradient id="d" x1="192" x2="208" y1="112" y2="128" gradientUnits="userSpaceOnUse"><stop offset=".005" stop-color="#8A43FF"/><stop offset="1" stop-color="#FFA2F6"/></linearGradient><linearGradient id="e" x1="64" x2="80" y1="48" y2="64" gradientUnits="userSpaceOnUse"><stop offset=".005" stop-color="#8A43FF"/><stop offset="1" stop-color="#FFA2F6"/></linearGradient><linearGradient id="f" x1="64" x2="80" y1="48" y2="64" gradientUnits="userSpaceOnUse"><stop offset=".005" stop-color="#8A43FF"/><stop offset="1" stop-color="#FFA2F6"/></linearGradient><linearGradient id="g" x1="80" x2="96" y1="144" y2="160" gradientUnits="userSpaceOnUse"><stop offset=".005" stop-color="#8A43FF"/><stop offset="1" stop-color="#FFA2F6"/></linearGradient><linearGradient id="h" x1="80" x2="96" y1="144" y2="160" gradientUnits="userSpaceOnUse"><stop offset=".005" stop-color="#8A43FF"/><stop offset="1" stop-color="#FFA2F6"/></linearGradient><linearGradient id="i" x1="208" x2="224" y1="224" y2="240" gradientUnits="userSpaceOnUse"><stop offset=".005" stop-color="#8A43FF"/><stop offset="1" stop-color="#FFA2F6"/></linearGradient><linearGradient id="j" x1="208" x2="224" y1="224" y2="240" gradientUnits="userSpaceOnUse"><stop offset=".005" stop-color="#8A43FF"/><stop offset="1" stop-color="#FFA2F6"/></linearGradient></defs></svg>