<svg width="93" height="93" viewBox="0 0 93 93" fill="none" xmlns="http://www.w3.org/2000/svg">
<circle cx="46.5319" cy="46.5007" r="39.9587" fill="#105DFB"/>
<path fill-rule="evenodd" clip-rule="evenodd" d="M20.4902 63.5105V28.6436H36.6086C41.7859 28.6436 45.9829 32.8405 45.9829 38.0178C45.9829 41.3077 44.9713 43.3456 41.262 45.4363C45.7007 47.4587 46.9334 50.2617 46.9334 54.1715C46.9334 59.4606 42.2348 63.5105 36.9458 63.5105H20.4902ZM27.3108 34.4152V42.7994H35.2937C35.2937 42.7994 39.1736 42.7994 39.1736 38.6073C39.1736 34.4152 35.2937 34.4152 35.2937 34.4152H27.3108ZM27.3108 57.6055V48.5523H35.8734C37.2559 48.5523 40.1547 49.2659 40.1547 53.5472C40.1547 56.7225 37.3005 57.5757 35.8734 57.6055H27.3108Z" fill="white"/>
<path fill-rule="evenodd" clip-rule="evenodd" d="M61.5165 38.2505C56.6109 38.2505 49.3416 41.7736 49.3416 51.139C49.3416 56.8416 52.4634 64.1612 61.8287 64.1612C69.321 64.1612 72.7698 58.6609 73.5577 55.9108H66.5114C66.1546 57.1595 64.7721 58.542 61.8287 58.542C57.5474 58.542 56.0311 54.8851 55.8082 53.0566H73.5577V51.139C73.5577 41.7736 66.4222 38.2505 61.5165 38.2505ZM61.5165 43.6021C57.5207 43.6021 56.046 46.9023 55.8082 48.5523H66.5114C66.5114 46.9023 65.5124 43.6021 61.5165 43.6021Z" fill="white"/>
<path d="M52.9986 30.6245V34.9503H69.8115V30.6245H52.9986Z" fill="white"/>
</svg>
