<svg width="92" height="92" viewBox="0 0 92 92" fill="none" xmlns="http://www.w3.org/2000/svg">
<path d="M46.0336 6.32715C24.1224 6.32715 6.37537 24.0742 6.37537 45.9854C6.37537 63.5341 17.7275 78.3564 33.4917 83.6111C35.4746 83.9581 36.2182 82.7684 36.2182 81.7274C36.2182 80.7855 36.1686 77.6624 36.1686 74.341C26.2045 76.1752 23.6267 71.9119 22.8335 69.6812C22.3874 68.541 20.454 65.0213 18.7686 64.0794C17.3805 63.3359 15.3976 61.5017 18.719 61.4521C21.8421 61.4025 24.0729 64.3273 24.8164 65.5171C28.3857 71.5154 34.0866 69.8299 36.3669 68.7889C36.7139 66.2111 37.7549 64.476 38.8951 63.4846C30.0712 62.4931 20.8506 59.0726 20.8506 43.9033C20.8506 39.5905 22.3874 36.0212 24.9156 33.2452C24.519 32.2537 23.131 28.1887 25.3122 22.7357C25.3122 22.7357 28.6336 21.6947 36.2182 26.8007C39.3909 25.9084 42.7618 25.4622 46.1328 25.4622C49.5037 25.4622 52.8747 25.9084 56.0473 26.8007C63.632 21.6451 66.9533 22.7357 66.9533 22.7357C69.1345 28.1887 67.7465 32.2537 67.3499 33.2452C69.8781 36.0212 71.4149 39.5409 71.4149 43.9033C71.4149 59.1222 62.1448 62.4931 53.3208 63.4846C54.7584 64.7239 55.9977 67.1034 55.9977 70.8214C55.9977 76.1256 55.9482 80.3889 55.9482 81.7274C55.9482 82.7684 56.6918 84.0077 58.6747 83.6111C66.5476 80.9533 73.3887 75.8935 78.2353 69.1439C83.0818 62.3943 85.6897 54.2948 85.6918 45.9854C85.6918 24.0742 67.9448 6.32715 46.0336 6.32715Z" fill="white"/>
</svg>
