<svg width="93" height="93" viewBox="0 0 93 93" fill="none" xmlns="http://www.w3.org/2000/svg">
<rect x="6.53973" y="6.54199" width="79.9174" height="79.9174" rx="17.1251" fill="url(#paint0_radial_70_132)"/>
<rect x="6.53973" y="6.54199" width="79.9174" height="79.9174" rx="17.1251" fill="url(#paint1_radial_70_132)"/>
<rect x="6.53973" y="6.54199" width="79.9174" height="79.9174" rx="17.1251" fill="url(#paint2_radial_70_132)"/>
<path d="M66.4776 30.8024C66.4776 33.1668 64.5608 35.0836 62.1964 35.0836C59.8319 35.0836 57.9151 33.1668 57.9151 30.8024C57.9151 28.4379 59.8319 26.5211 62.1964 26.5211C64.5608 26.5211 66.4776 28.4379 66.4776 30.8024Z" fill="white"/>
<path fill-rule="evenodd" clip-rule="evenodd" d="M46.4983 60.7714C54.3799 60.7714 60.7693 54.382 60.7693 46.5004C60.7693 38.6188 54.3799 32.2295 46.4983 32.2295C38.6167 32.2295 32.2273 38.6188 32.2273 46.5004C32.2273 54.382 38.6167 60.7714 46.4983 60.7714ZM46.4983 55.063C51.2273 55.063 55.0609 51.2294 55.0609 46.5004C55.0609 41.7714 51.2273 37.9378 46.4983 37.9378C41.7693 37.9378 37.9357 41.7714 37.9357 46.5004C37.9357 51.2294 41.7693 55.063 46.4983 55.063Z" fill="white"/>
<path fill-rule="evenodd" clip-rule="evenodd" d="M17.9564 45.3587C17.9564 35.7678 17.9564 30.9723 19.8229 27.309C21.4648 24.0867 24.0846 21.4669 27.3069 19.825C30.9702 17.9585 35.7656 17.9585 45.3566 17.9585H47.64C57.231 17.9585 62.0265 17.9585 65.6897 19.825C68.912 21.4669 71.5318 24.0867 73.1737 27.309C75.0402 30.9723 75.0402 35.7678 75.0402 45.3587V47.6421C75.0402 57.2331 75.0402 62.0286 73.1737 65.6918C71.5318 68.9141 68.912 71.534 65.6897 73.1758C62.0265 75.0423 57.231 75.0423 47.64 75.0423H45.3566C35.7656 75.0423 30.9702 75.0423 27.3069 73.1758C24.0846 71.534 21.4648 68.9141 19.8229 65.6918C17.9564 62.0286 17.9564 57.2331 17.9564 47.6421V45.3587ZM45.3566 23.6669H47.64C52.5297 23.6669 55.8536 23.6713 58.4229 23.8812C60.9255 24.0857 62.2054 24.4563 63.0982 24.9112C65.2464 26.0058 66.9929 27.7523 68.0875 29.9005C68.5424 30.7933 68.913 32.0732 69.1175 34.5758C69.3274 37.1451 69.3318 40.469 69.3318 45.3587V47.6421C69.3318 52.5318 69.3274 55.8557 69.1175 58.425C68.913 60.9276 68.5424 62.2075 68.0875 63.1003C66.9929 65.2485 65.2464 66.995 63.0982 68.0896C62.2054 68.5445 60.9255 68.9151 58.4229 69.1196C55.8536 69.3295 52.5297 69.3339 47.64 69.3339H45.3566C40.4669 69.3339 37.143 69.3295 34.5737 69.1196C32.0711 68.9151 30.7912 68.5445 29.8984 68.0896C27.7502 66.995 26.0037 65.2485 24.9091 63.1003C24.4542 62.2075 24.0836 60.9276 23.8791 58.425C23.6692 55.8557 23.6648 52.5318 23.6648 47.6421V45.3587C23.6648 40.469 23.6692 37.1451 23.8791 34.5758C24.0836 32.0732 24.4542 30.7933 24.9091 29.9005C26.0037 27.7523 27.7502 26.0058 29.8984 24.9112C30.7912 24.4563 32.0711 24.0857 34.5737 23.8812C37.143 23.6713 40.4669 23.6669 45.3566 23.6669Z" fill="white"/>
<defs>
<radialGradient id="paint0_radial_70_132" cx="0" cy="0" r="1" gradientUnits="userSpaceOnUse" gradientTransform="translate(35.0816 66.48) rotate(-55.3758) scale(72.8378)">
<stop stop-color="#B13589"/>
<stop offset="0.79309" stop-color="#C62F94"/>
<stop offset="1" stop-color="#8A3AC8"/>
</radialGradient>
<radialGradient id="paint1_radial_70_132" cx="0" cy="0" r="1" gradientUnits="userSpaceOnUse" gradientTransform="translate(32.2275 89.3135) rotate(-65.1363) scale(64.4883)">
<stop stop-color="#E0E8B7"/>
<stop offset="0.444662" stop-color="#FB8A2E"/>
<stop offset="0.71474" stop-color="#E2425C"/>
<stop offset="1" stop-color="#E2425C" stop-opacity="0"/>
</radialGradient>
<radialGradient id="paint2_radial_70_132" cx="0" cy="0" r="1" gradientUnits="userSpaceOnUse" gradientTransform="translate(2.25845 9.39618) rotate(-8.1301) scale(111.002 23.7422)">
<stop offset="0.156701" stop-color="#406ADC"/>
<stop offset="0.467799" stop-color="#6A45BE"/>
<stop offset="1" stop-color="#6A45BE" stop-opacity="0"/>
</radialGradient>
</defs>
</svg>
