<svg width="93" height="93" viewBox="0 0 93 93" fill="none" xmlns="http://www.w3.org/2000/svg">
<rect x="6.5228" y="6.54199" width="79.9174" height="79.9174" rx="39.9587" fill="#1275B1"/>
<path d="M36.8302 28.4967C36.8302 31.1641 34.5181 33.3264 31.6661 33.3264C28.8141 33.3264 26.5021 31.1641 26.5021 28.4967C26.5021 25.8293 28.8141 23.667 31.6661 23.667C34.5181 23.667 36.8302 25.8293 36.8302 28.4967Z" fill="white"/>
<path d="M27.2083 36.8765H36.0357V63.6257H27.2083V36.8765Z" fill="white"/>
<path d="M50.2478 36.8765H41.4204V63.6257H50.2478C50.2478 63.6257 50.2478 55.2046 50.2478 49.9394C50.2478 46.7791 51.3269 43.6051 55.6325 43.6051C60.4984 43.6051 60.4691 47.7408 60.4464 50.9448C60.4168 55.1329 60.4876 59.4068 60.4876 63.6257H69.315V49.508C69.2402 40.4935 66.8913 36.3398 59.1635 36.3398C54.5742 36.3398 51.7295 38.4233 50.2478 40.3083V36.8765Z" fill="white"/>
</svg>
