<svg width="93" height="93" viewBox="0 0 93 93" fill="none" xmlns="http://www.w3.org/2000/svg">
<path fill-rule="evenodd" clip-rule="evenodd" d="M46.5151 89.3134C68.5837 89.3134 86.4738 71.4232 86.4738 49.3547C86.4738 27.2861 68.5837 9.396 46.5151 9.396C24.4466 9.396 6.55646 27.2861 6.55646 49.3547C6.55646 56.5212 8.44307 63.2471 11.7467 69.0628L6.55646 89.3134L27.4345 84.4721C33.1044 87.5593 39.6049 89.3134 46.5151 89.3134ZM46.5151 83.1659C65.1885 83.1659 80.3263 68.0281 80.3263 49.3547C80.3263 30.6813 65.1885 15.5435 46.5151 15.5435C27.8417 15.5435 12.7039 30.6813 12.7039 49.3547C12.7039 56.5645 14.9606 63.2473 18.8062 68.7353L15.7777 80.0921L27.3348 77.2029C32.7847 80.9636 39.3927 83.1659 46.5151 83.1659Z" fill="#BFC8D0"/>
<path d="M80.7655 46.5008C80.7655 65.4167 65.4311 80.7511 46.5152 80.7511C39.3003 80.7511 32.6064 78.5202 27.0857 74.7106L15.3786 77.6374L18.4464 66.1331C14.5509 60.5739 12.2649 53.8043 12.2649 46.5008C12.2649 27.5849 27.5993 12.2505 46.5152 12.2505C65.4311 12.2505 80.7655 27.5849 80.7655 46.5008Z" fill="url(#paint0_linear_70_384)"/>
<path fill-rule="evenodd" clip-rule="evenodd" d="M46.5151 86.4594C68.5837 86.4594 86.4738 68.5692 86.4738 46.5007C86.4738 24.4321 68.5837 6.54199 46.5151 6.54199C24.4466 6.54199 6.55646 24.4321 6.55646 46.5007C6.55646 53.6672 8.44307 60.3931 11.7467 66.2088L6.55646 86.4594L27.4345 81.6181C33.1044 84.7053 39.6049 86.4594 46.5151 86.4594ZM46.5151 80.3119C65.1885 80.3119 80.3263 65.1741 80.3263 46.5007C80.3263 27.8273 65.1885 12.6895 46.5151 12.6895C27.8417 12.6895 12.7039 27.8273 12.7039 46.5007C12.7039 53.7105 14.9606 60.3933 18.8062 65.8813L15.7777 77.2381L27.3348 74.3488C32.7847 78.1096 39.3927 80.3119 46.5151 80.3119Z" fill="white"/>
<path d="M36.5256 27.9482C35.5755 26.04 34.1181 26.2089 32.6457 26.2089C30.0144 26.2089 25.9115 29.3607 25.9115 35.2266C25.9115 40.034 28.0299 45.2964 35.1681 53.1685C42.0571 60.7657 51.1087 64.6957 58.6232 64.5619C66.1378 64.4281 67.6838 57.9616 67.6838 55.7778C67.6838 54.8099 67.0832 54.3269 66.6694 54.1957C64.1086 52.9668 59.3857 50.6769 58.3111 50.2466C57.2364 49.8164 56.6753 50.3983 56.3265 50.7149C55.352 51.6436 53.4202 54.3806 52.7588 54.9962C52.0973 55.6118 51.1112 55.3002 50.7009 55.0675C49.1908 54.4615 45.0964 52.6403 41.8328 49.4766C37.7966 45.564 37.5597 44.2178 36.7992 43.0195C36.1909 42.0609 36.6373 41.4728 36.8601 41.2157C37.7297 40.2123 38.9305 38.6631 39.469 37.8933C40.0075 37.1234 39.58 35.9546 39.3235 35.2266C38.2203 32.0957 37.2856 29.4748 36.5256 27.9482Z" fill="white"/>
<defs>
<linearGradient id="paint0_linear_70_384" x1="76.4842" y1="20.8131" x2="12.2649" y2="80.7511" gradientUnits="userSpaceOnUse">
<stop stop-color="#5BD066"/>
<stop offset="1" stop-color="#27B43E"/>
</linearGradient>
</defs>
</svg>
