<svg width="1924" height="1221" viewBox="0 0 1924 1221" fill="none" xmlns="http://www.w3.org/2000/svg">
<path d="M0.0017289 -3.99988H1924V1226L1176.53 748.145V473.855H747.475M0.0017289 -3.99988V1226L747.475 748.145V473.855M0.0017289 -3.99988L747.475 473.855M1840.95 1172.9V49.0951H83.0535V1172.9M1757.9 1119.81V102.19H166.107V1119.81M1674.84 1066.71V155.285H249.16V1066.71M1591.79 1013.62V208.38H332.212V1013.62M1508.74 960.525V261.475H415.265V960.525M1425.68 907.43V314.57H498.317V907.43M1342.63 854.335V367.665H581.37V854.335M1259.58 801.24V420.76H664.423V801.24M747.475 498.79L0.00154306 141.073M747.475 523.726L0.00152954 262.797M747.475 548.662L0.00148397 370.431M747.475 573.597L0.00159302 469.646M747.475 598.533L0.00155387 564.356M747.475 623.468L0.00155387 657.645M747.475 648.403L0.00159302 752.354M747.475 673.339L0.00148397 851.569M747.475 698.274L0.00152954 959.203M747.475 723.209L0.00154306 1080.93M1176.53 473.855L1924 -3.99988M1137.52 473.855L1697.07 -3.99983M1098.52 473.855L1506.67 -3.99979M1059.51 473.855L1338.31 -3.99982M1020.51 473.855L1183.11 -3.99984M981.502 473.855L1034.96 -3.99986M942.498 473.855L889.038 -3.99986M903.492 473.855L740.889 -3.99984M864.488 473.855L585.695 -3.99982M825.483 473.855L417.331 -3.99979M786.478 473.855L226.926 -3.99983M747.473 473.855L-0.000488281 -3.99988M1176.53 748.145L1924 1226M1176.53 723.21L1924 1080.93M1176.53 698.274L1924 959.203M1176.53 673.338L1924 851.569M1176.53 648.403L1924 752.354M1176.53 623.467L1924 657.644M1176.53 598.532L1924 564.355M1176.53 573.597L1924 469.646M1176.53 548.661L1924 370.431M1176.53 523.726L1924 262.797M1176.53 498.791L1924 141.073" stroke="#1F1F1F"/>
</svg>
