<svg width="252" height="270" viewBox="0 0 252 270" fill="none" xmlns="http://www.w3.org/2000/svg">
<path d="M132.377 269.119C105.713 269.119 82.4619 263.68 62.6239 252.801C42.7858 241.709 27.4273 226.137 16.5484 206.086C5.66948 185.821 0.230016 162.143 0.230016 135.053C0.230016 107.749 5.66948 84.071 16.5484 64.0196C27.4273 43.9683 42.7858 28.5031 62.6239 17.6242C82.4619 6.53195 105.713 0.985837 132.377 0.985837C154.135 0.985837 173.44 4.82546 190.291 12.5047C207.143 19.9706 220.902 30.7429 231.567 44.8215C242.233 58.9002 248.952 75.7518 251.725 95.3766H189.011C186.878 82.3645 180.692 72.2322 170.453 64.9795C160.428 57.7269 147.736 54.1006 132.377 54.1006C110.193 54.1006 92.5943 61.2466 79.5822 75.5385C66.7835 89.8304 60.3841 109.668 60.3841 135.053C60.3841 160.437 66.7835 180.275 79.5822 194.567C92.5943 208.859 110.193 216.005 132.377 216.005C147.736 216.005 160.428 212.378 170.453 205.126C180.692 197.873 186.878 187.741 189.011 174.729H251.725C248.952 194.14 242.233 210.992 231.567 225.284C220.902 239.362 207.143 250.241 190.291 257.921C173.44 265.387 154.135 269.119 132.377 269.119Z" fill="url(#paint0_linear_200_50)"/>
<defs>
<linearGradient id="paint0_linear_200_50" x1="114.342" y1="-91.5913" x2="375.15" y2="175.881" gradientUnits="userSpaceOnUse">
<stop stop-color="#F3E9FF"/>
<stop offset="0.408187" stop-color="#A33EF0"/>
<stop offset="0.844063" stop-color="#210834"/>
</linearGradient>
</defs>
</svg>
