<svg width="255" height="268" viewBox="0 0 255 268" fill="none" xmlns="http://www.w3.org/2000/svg">
<path d="M128.566 267.84C103.395 267.84 81.2104 262.294 62.0123 251.201C42.8142 239.896 27.7756 224.217 16.8967 204.166C6.2311 184.115 0.898289 160.97 0.898289 134.733C0.898289 107.855 6.44441 84.391 17.5367 64.3396C28.6289 44.2882 44.2007 28.7164 64.2521 17.6242C84.5167 6.53195 107.981 0.985837 134.645 0.985837C156.616 0.985837 176.028 4.82546 192.879 12.5047C209.731 19.9706 223.49 30.7429 234.155 44.8215C244.821 58.9002 251.54 75.7518 254.313 95.3766H191.6C189.466 82.3645 183.387 72.2322 173.361 64.9795C163.336 57.7269 150.43 54.1006 134.645 54.1006C119.713 54.1006 106.701 57.407 95.609 64.0196C84.5167 70.6323 75.9842 80.0181 70.0115 92.1769C64.0388 104.336 61.0524 118.734 61.0524 135.373C61.0524 152.224 64.1454 166.836 70.3315 179.208C76.5175 191.58 85.2633 201.18 96.5689 208.005C107.874 214.618 121.206 217.925 136.565 217.925C147.871 217.925 157.896 216.218 166.642 212.805C175.601 209.179 182.64 204.379 187.76 198.406C192.879 192.22 195.439 185.288 195.439 177.608V169.929H131.765V123.854H212.078C226.156 123.854 236.715 127.267 243.754 134.093C250.794 140.705 254.313 150.731 254.313 164.17V264H199.279V236.483H197.679C191.493 246.935 182.64 254.828 171.122 260.16C159.603 265.28 145.417 267.84 128.566 267.84Z" fill="url(#paint0_linear_200_54)"/>
<defs>
<linearGradient id="paint0_linear_200_54" x1="124.198" y1="-91.5913" x2="383.953" y2="193.617" gradientUnits="userSpaceOnUse">
<stop stop-color="#F3E9FF"/>
<stop offset="0.408187" stop-color="#A33EF0"/>
<stop offset="0.844063" stop-color="#210834"/>
</linearGradient>
</defs>
</svg>
