<svg width="268" height="267" viewBox="0 0 268 267" fill="none" xmlns="http://www.w3.org/2000/svg">
<path d="M133.952 267.002C107.288 267.002 83.93 261.562 63.8787 250.683C44.0406 239.591 28.5755 224.126 17.4832 204.288C6.39097 184.237 0.844853 160.666 0.844853 133.575C0.844853 106.271 6.39097 82.6999 17.4832 62.8618C28.5755 42.8105 44.0406 27.3453 63.8787 16.4664C83.93 5.58747 107.288 0.148008 133.952 0.148008C160.829 0.148008 184.187 5.58747 204.025 16.4664C224.076 27.132 239.541 42.4905 250.42 62.5419C261.513 82.3799 267.059 106.058 267.059 133.575C267.059 160.666 261.513 184.237 250.42 204.288C239.328 224.339 223.756 239.804 203.705 250.683C183.867 261.562 160.616 267.002 133.952 267.002ZM134.272 214.527C157.523 214.527 175.441 207.168 188.026 192.449C200.612 177.731 206.905 158.106 206.905 133.575C206.905 108.831 200.612 89.2059 188.026 74.7007C175.441 59.9821 157.416 52.6228 133.952 52.6228C110.701 52.6228 92.6758 59.9821 79.8771 74.7007C67.2917 89.2059 60.9989 108.724 60.9989 133.255C60.9989 157.999 67.2917 177.731 79.8771 192.449C92.6758 207.168 110.807 214.527 134.272 214.527Z" fill="url(#paint0_linear_200_55)"/>
<defs>
<linearGradient id="paint0_linear_200_55" x1="126.859" y1="-92.4292" x2="385.959" y2="198.975" gradientUnits="userSpaceOnUse">
<stop stop-color="#F3E9FF"/>
<stop offset="0.408187" stop-color="#A33EF0"/>
<stop offset="0.844063" stop-color="#210834"/>
</linearGradient>
</defs>
</svg>
