<svg width="229" height="260" viewBox="0 0 229 260" fill="none" xmlns="http://www.w3.org/2000/svg">
<path d="M0.907484 259.709V0.534105H138.494C166.438 0.534105 188.302 6.82682 204.088 19.4123C220.086 31.9977 228.085 49.1693 228.085 70.9272C228.085 85.4324 224.566 97.6979 217.526 107.724C210.7 117.536 201.314 124.255 189.369 127.882V129.161C201.741 129.161 211.233 132.574 217.846 139.4C224.672 146.013 228.085 156.039 228.085 169.478V259.709H167.931V163.718H61.0616V259.709H0.907484ZM61.0616 111.243H134.654C145.747 111.243 154.279 108.683 160.252 103.564C166.225 98.4445 169.211 91.2985 169.211 82.1261C169.211 72.7403 166.225 65.5944 160.252 60.6882C154.279 55.5687 145.747 53.0089 134.654 53.0089H61.0616V111.243Z" fill="url(#paint0_linear_200_56)"/>
<defs>
<linearGradient id="paint0_linear_200_56" x1="106.214" y1="-95.8827" x2="366.768" y2="178.282" gradientUnits="userSpaceOnUse">
<stop stop-color="#F3E9FF"/>
<stop offset="0.408187" stop-color="#A33EF0"/>
<stop offset="0.844063" stop-color="#210834"/>
</linearGradient>
</defs>
</svg>
