<svg width="60" height="78" viewBox="0 0 60 78" fill="none" xmlns="http://www.w3.org/2000/svg">
<path d="M48.4304 45.0303V21.4272H58.6514V49.3468C58.6514 59.3467 57.91 63.9 55.8554 67.7836L55.8514 67.7913L55.8474 67.799C54.0131 71.3963 51.638 73.7327 46.6051 76.321L37.6233 72.0475C41.9003 69.7771 44.3289 67.5127 45.9491 64.1947C47.8761 60.337 48.4304 55.9188 48.4304 45.0303ZM28.4872 20.0255V2.05676H38.7086V57.9975C32.809 59.0796 28.3744 59.5117 23.5856 59.5117C16.0858 59.5117 10.582 57.813 6.96417 54.674C3.37545 51.5602 1.4613 46.8699 1.4613 40.4695C1.4613 34.3377 3.48535 29.3791 6.98486 25.9537C10.4868 22.5259 15.5703 20.5319 21.8757 20.5319C23.8315 20.5319 25.2775 20.6861 27.0376 21.1454L28.4872 21.5236V20.0255ZM27.4859 51.3905L28.4872 51.2542V50.2438V30.1246V29.2903L27.6956 29.0265C26.0945 28.4931 24.7475 28.3162 23.0972 28.3162C19.68 28.3162 16.8401 29.3751 14.8634 31.4941C12.8974 33.6017 11.927 36.6061 11.927 40.2246C11.927 43.7562 12.8539 46.6696 14.8031 48.7026C16.7597 50.7433 19.5824 51.7264 23.0158 51.7264C24.4612 51.7264 25.6544 51.6399 27.4859 51.3905ZM58.6514 2.12349V12.6779H48.4304V2.12349H58.6514Z" fill="#AD42FF" stroke="#AD42FF" stroke-width="2.31469"/>
</svg>
