<svg width="72" height="54" viewBox="0 0 72 54" fill="none" xmlns="http://www.w3.org/2000/svg">
<path d="M36.4308 42.4422L44.0398 37.8201C45.0922 39.5633 46.3145 41.098 47.8727 42.2156C49.5337 43.4069 51.5565 44.11 54.1176 44.11C56.2706 44.11 58.0693 43.5454 59.3386 42.5564C60.6143 41.5625 61.3375 40.1514 61.3375 38.5194C61.3375 36.5831 60.5949 35.2525 59.256 34.1487C57.9487 33.0711 56.0588 32.1995 53.7674 31.148L53.765 31.1469L51.2421 30.0112L51.2411 30.0107C47.6185 28.3932 44.65 26.5865 42.5852 24.1437C40.5301 21.7123 39.3471 18.6226 39.3471 14.3878C39.3471 10.508 40.7542 7.10721 43.2459 4.67621C45.7374 2.24542 49.3361 0.762437 53.7575 0.762437C56.921 0.762437 59.6111 1.34041 61.9108 2.65245C64.1335 3.92057 66.0194 5.89029 67.6177 8.74708L60.3762 13.6267C59.5532 12.1587 58.6753 11.0849 57.6458 10.3679C56.5265 9.58816 55.2591 9.25179 53.7573 9.25179C52.195 9.25179 50.8908 9.77299 49.9752 10.6613C49.0598 11.5495 48.5559 12.7826 48.5559 14.161C48.5559 15.841 49.0592 17.0569 50.1484 18.0979C51.2093 19.1119 52.8155 19.9478 54.9733 20.929L54.9747 20.9296L57.4981 22.0641C61.778 23.9887 65.0702 25.9105 67.296 28.4211C69.5076 30.9156 70.6906 34.0199 70.6906 38.3683C70.6906 43.034 68.9481 46.6146 66.0556 49.0351C63.1551 51.4624 59.0648 52.75 54.3336 52.75C45.2609 52.75 39.3777 48.2967 36.4308 42.4422ZM15.3966 52.7487C7.64031 52.7487 3.09648 48.6302 0.72706 43.576L8.338 38.7432C9.06396 40.0827 9.80123 41.3536 10.7546 42.3083C11.8094 43.3646 13.1271 44.0338 14.9638 44.0338C16.6636 44.0338 18.1418 43.6863 19.1823 42.574C20.2153 41.4696 20.7425 39.6896 20.7425 37.0073V1.36818H30.0956V37.1569C30.0956 42.5734 28.5839 46.4572 26.0239 48.988C23.4626 51.5199 19.8004 52.7487 15.3966 52.7487Z" fill="#AD42FF" stroke="#AD42FF" stroke-width="0.740695"/>
</svg>
