<svg width="98" height="25" viewBox="0 0 98 25" fill="none" xmlns="http://www.w3.org/2000/svg">
<path d="M85.8968 3.95546H78.0366V0.9446H97.6205V3.95524H89.9284H89.5581V4.32559V23.6912H86.2672V4.32581V3.95546H85.8968ZM24.2845 0.9446H43.8685V3.95524H27.9472H27.5769V4.32559V10.3605V10.7309H27.9472H40.6787V13.7418H27.9472H27.5769V14.1121V20.3103V20.6806H27.9472H43.8687V23.6912H24.2859L24.2845 0.9446ZM4.95742 0.934801L23.2833 23.6912H19.1699L4.41567 5.35266L3.75677 4.53368V5.58481V23.6817H0.465806V0.934801H4.95742ZM68.1865 0.980115L72.5111 0.973576L63.562 12.1037L63.3753 12.336L63.5622 12.5681L72.5266 23.701H68.1863L49.8854 0.954399H54.2107L60.9207 9.2876L61.2092 9.64585L61.4976 9.28759L68.1865 0.980115ZM54.2106 23.719H49.8708L57.1595 14.6671L59.3265 17.3611L54.2106 23.719Z" fill="#AD42FF" stroke="#AD42FF" stroke-width="0.740695"/>
</svg>
