<svg width="88" height="78" viewBox="0 0 88 78" fill="none" xmlns="http://www.w3.org/2000/svg">
<mask id="path-1-inside-1_68_118" fill="white">
<path d="M71.3592 25.9389L68.5677 25.0084C68.5677 24.3881 68.8778 23.7677 68.8778 23.1474C71.049 12.9118 69.4982 4.53736 64.8457 1.74587C60.1932 -0.735461 52.7492 1.74587 45.3052 8.25935C44.6849 8.87968 43.7544 9.50002 43.1341 10.1203C42.5137 9.81018 42.2036 9.18985 41.5832 8.87968C34.1393 2.05603 26.3851 -0.735461 21.7326 2.05603C17.0801 4.53736 15.8395 12.6017 17.7005 22.2169C18.0106 23.1474 18.0106 24.0779 18.3208 25.0084C17.0801 25.3186 16.1496 25.6287 15.2191 25.9389C5.91415 29.0405 0.0209961 34.3134 0.0209961 39.276C0.0209961 44.5488 6.22431 50.1318 15.8395 53.2335C16.4598 53.5437 17.3903 53.8538 18.3208 53.8538C18.0106 54.7843 17.7005 56.025 17.7005 56.9555C15.8395 66.5706 17.3903 74.0146 21.7326 76.8061C26.3851 79.5976 34.1393 76.8061 41.8934 69.9825C42.5137 69.3621 43.1341 68.7418 43.7544 68.4316C44.3747 69.052 45.3052 69.9825 46.2357 70.6028C53.6797 77.1163 60.8135 79.5976 65.466 76.8061C70.1185 74.0146 71.6693 65.9503 69.8083 56.025C69.8083 55.4047 69.4982 54.4742 69.188 53.5437C69.8083 53.2335 70.4287 53.2335 70.7388 52.9233C80.6641 49.5115 87.1776 44.2387 87.1776 38.9659C86.8675 34.3134 80.6641 29.3507 71.3592 25.9389ZM48.0967 11.361C54.6102 5.77802 60.5034 3.60686 63.2948 5.15769C66.0863 6.70852 67.327 13.5322 65.466 22.5271C65.466 23.1474 65.1558 23.7677 65.1558 24.3881C61.4339 23.4576 57.4017 22.8372 53.6797 22.5271C51.5085 19.4254 49.0272 16.3237 46.2357 13.222L48.0967 11.361ZM25.7648 43.9285C26.6953 45.4793 27.3156 47.0302 28.2461 48.581C29.1766 50.1318 30.1071 51.6827 31.0376 52.9233C28.2461 52.6132 25.7648 52.303 22.9733 51.6827C23.5936 49.2013 24.5241 46.72 25.7648 43.9285ZM25.7648 35.2439C24.5241 32.7625 23.9038 30.2812 22.9733 27.7999C25.4546 27.1796 28.2461 26.8694 30.7274 26.5592C29.7969 28.11 28.8664 29.3507 27.9359 30.9015C27.3156 32.1422 26.3851 33.693 25.7648 35.2439ZM27.6258 39.5862C28.8664 37.1049 30.1071 34.9337 31.3478 32.4524C32.5884 30.2812 34.1393 27.7999 35.6901 25.6287C38.1714 25.3186 40.9629 25.3186 43.7544 25.3186C46.5459 25.3186 49.0272 25.3186 51.8187 25.6287C53.3695 27.7999 54.6102 29.971 55.8509 32.4524C57.0915 34.6235 58.3322 37.1049 59.5729 39.5862C58.3322 42.0675 57.0915 44.2387 55.8509 46.72C54.6102 48.8912 53.0594 51.3725 51.8187 53.5437C49.3374 53.8538 46.5459 53.8538 43.7544 53.8538C40.9629 53.8538 38.4816 53.8538 36.0002 53.5437C34.4494 51.3725 33.2088 49.2013 31.6579 46.72C30.1071 44.2387 28.8664 42.0675 27.6258 39.5862ZM58.6424 48.581C59.5729 47.0302 60.5034 45.4793 61.1237 43.9285C62.3643 46.4098 63.2948 48.8912 63.9152 51.6827C61.1237 52.303 58.6424 52.6132 55.8509 52.9233C57.0915 51.3725 58.022 49.8217 58.6424 48.581ZM61.1237 35.2439C60.1932 33.693 59.5729 32.1422 58.6424 30.5914C57.7119 29.0405 56.7814 27.7999 56.161 26.2491C58.9525 26.5592 61.4338 27.1796 64.2253 27.4897C63.2948 30.2812 62.3643 32.7625 61.1237 35.2439ZM43.4442 15.7034C45.3052 17.5644 46.8561 19.7356 48.4069 21.9067C44.9951 21.5966 41.5832 21.5966 38.1714 21.9067C40.0324 19.7356 41.8934 17.5644 43.4442 15.7034ZM23.5936 5.15769C26.3851 3.60686 32.8986 5.77803 39.7222 11.9813L40.9629 13.222C38.1714 16.0136 35.6901 19.1152 33.5189 22.5271C29.4868 22.8372 25.7648 23.4576 22.0428 24.3881C21.7326 23.4576 21.7326 22.5271 21.4224 21.5966C19.5615 13.222 20.8021 6.70852 23.5936 5.15769ZM19.2513 50.7522C18.631 50.442 17.7005 50.442 17.0801 50.1318C12.7378 48.581 9.32597 46.72 6.84465 44.859C4.67349 42.998 3.74299 41.137 3.74299 39.5862C3.74299 36.4845 8.39548 32.4524 16.4598 29.6609C17.3903 29.3507 18.3208 29.0405 19.5615 28.7304C20.4919 32.4524 21.7326 36.1744 23.5936 39.5862C21.7326 43.3082 20.4919 47.0302 19.2513 50.7522ZM39.4121 67.8113C36.0002 70.913 32.5884 72.7739 29.7969 74.0146C27.0054 74.9451 25.1444 74.9451 23.5936 74.3248C20.8021 72.7739 19.5615 66.5706 21.1123 58.5063C21.4224 57.2657 21.7326 56.3351 21.7326 55.0945C25.4546 56.025 29.4868 56.6453 33.5189 56.6453C35.6901 59.747 38.1714 62.8486 40.9629 65.9503C40.3426 66.5706 40.0324 67.191 39.4121 67.8113ZM43.4442 63.469C41.5832 61.608 40.0324 59.4368 38.1714 57.2656H48.4069C47.1662 59.4368 45.3052 61.608 43.4442 63.469ZM66.0863 68.7418C65.466 71.5333 64.5355 73.3943 63.2948 74.0146C60.5034 75.5654 54.6102 73.3943 48.4069 68.1215C47.7866 67.5011 46.8561 66.8808 46.2357 66.2605C48.7171 63.469 51.1984 60.3673 53.3695 56.9555C57.4017 56.6453 61.1237 56.025 65.1558 55.0945C65.466 55.7148 65.466 56.6453 65.7762 57.2656C66.7067 61.608 66.7067 65.6401 66.0863 68.7418ZM69.188 50.1318C68.5677 50.1318 68.2575 50.442 67.6372 50.442C66.3965 46.72 64.8457 42.998 63.2948 39.276C64.8457 35.8642 66.3965 32.1422 67.6372 28.4202C68.5677 28.7304 69.4982 29.0405 70.1185 29.3507C78.1828 32.1422 83.1455 36.1744 83.1455 39.276C83.1455 42.998 77.8727 47.3403 69.188 50.1318Z"/>
<path d="M43.4442 47.3403C44.9951 47.3403 46.5459 47.0302 47.7865 46.0997C49.0272 45.1692 49.9577 43.9285 50.578 42.6878C51.1984 41.137 51.1984 39.5862 50.8882 38.0354C50.578 36.4845 49.9577 35.2439 48.7171 34.0032C47.7866 32.7625 46.2357 32.1422 44.6849 31.832C43.1341 31.5219 41.5832 31.832 40.0324 32.1422C38.4816 32.7625 37.2409 33.693 36.6206 34.9337C35.6901 36.1744 35.3799 37.7252 35.3799 39.276C35.3799 40.2065 35.6901 41.4472 36.0002 42.3777C36.3104 43.3082 36.9307 44.2387 37.5511 44.859C38.1714 45.4793 39.1019 46.0997 40.0324 46.4098C41.2731 47.0302 42.5137 47.3403 43.4442 47.3403Z"/>
</mask>
<path d="M71.3592 25.9389L68.5677 25.0084C68.5677 24.3881 68.8778 23.7677 68.8778 23.1474C71.049 12.9118 69.4982 4.53736 64.8457 1.74587C60.1932 -0.735461 52.7492 1.74587 45.3052 8.25935C44.6849 8.87968 43.7544 9.50002 43.1341 10.1203C42.5137 9.81018 42.2036 9.18985 41.5832 8.87968C34.1393 2.05603 26.3851 -0.735461 21.7326 2.05603C17.0801 4.53736 15.8395 12.6017 17.7005 22.2169C18.0106 23.1474 18.0106 24.0779 18.3208 25.0084C17.0801 25.3186 16.1496 25.6287 15.2191 25.9389C5.91415 29.0405 0.0209961 34.3134 0.0209961 39.276C0.0209961 44.5488 6.22431 50.1318 15.8395 53.2335C16.4598 53.5437 17.3903 53.8538 18.3208 53.8538C18.0106 54.7843 17.7005 56.025 17.7005 56.9555C15.8395 66.5706 17.3903 74.0146 21.7326 76.8061C26.3851 79.5976 34.1393 76.8061 41.8934 69.9825C42.5137 69.3621 43.1341 68.7418 43.7544 68.4316C44.3747 69.052 45.3052 69.9825 46.2357 70.6028C53.6797 77.1163 60.8135 79.5976 65.466 76.8061C70.1185 74.0146 71.6693 65.9503 69.8083 56.025C69.8083 55.4047 69.4982 54.4742 69.188 53.5437C69.8083 53.2335 70.4287 53.2335 70.7388 52.9233C80.6641 49.5115 87.1776 44.2387 87.1776 38.9659C86.8675 34.3134 80.6641 29.3507 71.3592 25.9389ZM48.0967 11.361C54.6102 5.77802 60.5034 3.60686 63.2948 5.15769C66.0863 6.70852 67.327 13.5322 65.466 22.5271C65.466 23.1474 65.1558 23.7677 65.1558 24.3881C61.4339 23.4576 57.4017 22.8372 53.6797 22.5271C51.5085 19.4254 49.0272 16.3237 46.2357 13.222L48.0967 11.361ZM25.7648 43.9285C26.6953 45.4793 27.3156 47.0302 28.2461 48.581C29.1766 50.1318 30.1071 51.6827 31.0376 52.9233C28.2461 52.6132 25.7648 52.303 22.9733 51.6827C23.5936 49.2013 24.5241 46.72 25.7648 43.9285ZM25.7648 35.2439C24.5241 32.7625 23.9038 30.2812 22.9733 27.7999C25.4546 27.1796 28.2461 26.8694 30.7274 26.5592C29.7969 28.11 28.8664 29.3507 27.9359 30.9015C27.3156 32.1422 26.3851 33.693 25.7648 35.2439ZM27.6258 39.5862C28.8664 37.1049 30.1071 34.9337 31.3478 32.4524C32.5884 30.2812 34.1393 27.7999 35.6901 25.6287C38.1714 25.3186 40.9629 25.3186 43.7544 25.3186C46.5459 25.3186 49.0272 25.3186 51.8187 25.6287C53.3695 27.7999 54.6102 29.971 55.8509 32.4524C57.0915 34.6235 58.3322 37.1049 59.5729 39.5862C58.3322 42.0675 57.0915 44.2387 55.8509 46.72C54.6102 48.8912 53.0594 51.3725 51.8187 53.5437C49.3374 53.8538 46.5459 53.8538 43.7544 53.8538C40.9629 53.8538 38.4816 53.8538 36.0002 53.5437C34.4494 51.3725 33.2088 49.2013 31.6579 46.72C30.1071 44.2387 28.8664 42.0675 27.6258 39.5862ZM58.6424 48.581C59.5729 47.0302 60.5034 45.4793 61.1237 43.9285C62.3643 46.4098 63.2948 48.8912 63.9152 51.6827C61.1237 52.303 58.6424 52.6132 55.8509 52.9233C57.0915 51.3725 58.022 49.8217 58.6424 48.581ZM61.1237 35.2439C60.1932 33.693 59.5729 32.1422 58.6424 30.5914C57.7119 29.0405 56.7814 27.7999 56.161 26.2491C58.9525 26.5592 61.4338 27.1796 64.2253 27.4897C63.2948 30.2812 62.3643 32.7625 61.1237 35.2439ZM43.4442 15.7034C45.3052 17.5644 46.8561 19.7356 48.4069 21.9067C44.9951 21.5966 41.5832 21.5966 38.1714 21.9067C40.0324 19.7356 41.8934 17.5644 43.4442 15.7034ZM23.5936 5.15769C26.3851 3.60686 32.8986 5.77803 39.7222 11.9813L40.9629 13.222C38.1714 16.0136 35.6901 19.1152 33.5189 22.5271C29.4868 22.8372 25.7648 23.4576 22.0428 24.3881C21.7326 23.4576 21.7326 22.5271 21.4224 21.5966C19.5615 13.222 20.8021 6.70852 23.5936 5.15769ZM19.2513 50.7522C18.631 50.442 17.7005 50.442 17.0801 50.1318C12.7378 48.581 9.32597 46.72 6.84465 44.859C4.67349 42.998 3.74299 41.137 3.74299 39.5862C3.74299 36.4845 8.39548 32.4524 16.4598 29.6609C17.3903 29.3507 18.3208 29.0405 19.5615 28.7304C20.4919 32.4524 21.7326 36.1744 23.5936 39.5862C21.7326 43.3082 20.4919 47.0302 19.2513 50.7522ZM39.4121 67.8113C36.0002 70.913 32.5884 72.7739 29.7969 74.0146C27.0054 74.9451 25.1444 74.9451 23.5936 74.3248C20.8021 72.7739 19.5615 66.5706 21.1123 58.5063C21.4224 57.2657 21.7326 56.3351 21.7326 55.0945C25.4546 56.025 29.4868 56.6453 33.5189 56.6453C35.6901 59.747 38.1714 62.8486 40.9629 65.9503C40.3426 66.5706 40.0324 67.191 39.4121 67.8113ZM43.4442 63.469C41.5832 61.608 40.0324 59.4368 38.1714 57.2656H48.4069C47.1662 59.4368 45.3052 61.608 43.4442 63.469ZM66.0863 68.7418C65.466 71.5333 64.5355 73.3943 63.2948 74.0146C60.5034 75.5654 54.6102 73.3943 48.4069 68.1215C47.7866 67.5011 46.8561 66.8808 46.2357 66.2605C48.7171 63.469 51.1984 60.3673 53.3695 56.9555C57.4017 56.6453 61.1237 56.025 65.1558 55.0945C65.466 55.7148 65.466 56.6453 65.7762 57.2656C66.7067 61.608 66.7067 65.6401 66.0863 68.7418ZM69.188 50.1318C68.5677 50.1318 68.2575 50.442 67.6372 50.442C66.3965 46.72 64.8457 42.998 63.2948 39.276C64.8457 35.8642 66.3965 32.1422 67.6372 28.4202C68.5677 28.7304 69.4982 29.0405 70.1185 29.3507C78.1828 32.1422 83.1455 36.1744 83.1455 39.276C83.1455 42.998 77.8727 47.3403 69.188 50.1318Z" fill="#AD42FF"/>
<path d="M43.4442 47.3403C44.9951 47.3403 46.5459 47.0302 47.7865 46.0997C49.0272 45.1692 49.9577 43.9285 50.578 42.6878C51.1984 41.137 51.1984 39.5862 50.8882 38.0354C50.578 36.4845 49.9577 35.2439 48.7171 34.0032C47.7866 32.7625 46.2357 32.1422 44.6849 31.832C43.1341 31.5219 41.5832 31.832 40.0324 32.1422C38.4816 32.7625 37.2409 33.693 36.6206 34.9337C35.6901 36.1744 35.3799 37.7252 35.3799 39.276C35.3799 40.2065 35.6901 41.4472 36.0002 42.3777C36.3104 43.3082 36.9307 44.2387 37.5511 44.859C38.1714 45.4793 39.1019 46.0997 40.0324 46.4098C41.2731 47.0302 42.5137 47.3403 43.4442 47.3403Z" fill="#AD42FF"/>
<path d="M71.3592 25.9389L68.5677 25.0084C68.5677 24.3881 68.8778 23.7677 68.8778 23.1474C71.049 12.9118 69.4982 4.53736 64.8457 1.74587C60.1932 -0.735461 52.7492 1.74587 45.3052 8.25935C44.6849 8.87968 43.7544 9.50002 43.1341 10.1203C42.5137 9.81018 42.2036 9.18985 41.5832 8.87968C34.1393 2.05603 26.3851 -0.735461 21.7326 2.05603C17.0801 4.53736 15.8395 12.6017 17.7005 22.2169C18.0106 23.1474 18.0106 24.0779 18.3208 25.0084C17.0801 25.3186 16.1496 25.6287 15.2191 25.9389C5.91415 29.0405 0.0209961 34.3134 0.0209961 39.276C0.0209961 44.5488 6.22431 50.1318 15.8395 53.2335C16.4598 53.5437 17.3903 53.8538 18.3208 53.8538C18.0106 54.7843 17.7005 56.025 17.7005 56.9555C15.8395 66.5706 17.3903 74.0146 21.7326 76.8061C26.3851 79.5976 34.1393 76.8061 41.8934 69.9825C42.5137 69.3621 43.1341 68.7418 43.7544 68.4316C44.3747 69.052 45.3052 69.9825 46.2357 70.6028C53.6797 77.1163 60.8135 79.5976 65.466 76.8061C70.1185 74.0146 71.6693 65.9503 69.8083 56.025C69.8083 55.4047 69.4982 54.4742 69.188 53.5437C69.8083 53.2335 70.4287 53.2335 70.7388 52.9233C80.6641 49.5115 87.1776 44.2387 87.1776 38.9659C86.8675 34.3134 80.6641 29.3507 71.3592 25.9389ZM48.0967 11.361C54.6102 5.77802 60.5034 3.60686 63.2948 5.15769C66.0863 6.70852 67.327 13.5322 65.466 22.5271C65.466 23.1474 65.1558 23.7677 65.1558 24.3881C61.4339 23.4576 57.4017 22.8372 53.6797 22.5271C51.5085 19.4254 49.0272 16.3237 46.2357 13.222L48.0967 11.361ZM25.7648 43.9285C26.6953 45.4793 27.3156 47.0302 28.2461 48.581C29.1766 50.1318 30.1071 51.6827 31.0376 52.9233C28.2461 52.6132 25.7648 52.303 22.9733 51.6827C23.5936 49.2013 24.5241 46.72 25.7648 43.9285ZM25.7648 35.2439C24.5241 32.7625 23.9038 30.2812 22.9733 27.7999C25.4546 27.1796 28.2461 26.8694 30.7274 26.5592C29.7969 28.11 28.8664 29.3507 27.9359 30.9015C27.3156 32.1422 26.3851 33.693 25.7648 35.2439ZM27.6258 39.5862C28.8664 37.1049 30.1071 34.9337 31.3478 32.4524C32.5884 30.2812 34.1393 27.7999 35.6901 25.6287C38.1714 25.3186 40.9629 25.3186 43.7544 25.3186C46.5459 25.3186 49.0272 25.3186 51.8187 25.6287C53.3695 27.7999 54.6102 29.971 55.8509 32.4524C57.0915 34.6235 58.3322 37.1049 59.5729 39.5862C58.3322 42.0675 57.0915 44.2387 55.8509 46.72C54.6102 48.8912 53.0594 51.3725 51.8187 53.5437C49.3374 53.8538 46.5459 53.8538 43.7544 53.8538C40.9629 53.8538 38.4816 53.8538 36.0002 53.5437C34.4494 51.3725 33.2088 49.2013 31.6579 46.72C30.1071 44.2387 28.8664 42.0675 27.6258 39.5862ZM58.6424 48.581C59.5729 47.0302 60.5034 45.4793 61.1237 43.9285C62.3643 46.4098 63.2948 48.8912 63.9152 51.6827C61.1237 52.303 58.6424 52.6132 55.8509 52.9233C57.0915 51.3725 58.022 49.8217 58.6424 48.581ZM61.1237 35.2439C60.1932 33.693 59.5729 32.1422 58.6424 30.5914C57.7119 29.0405 56.7814 27.7999 56.161 26.2491C58.9525 26.5592 61.4338 27.1796 64.2253 27.4897C63.2948 30.2812 62.3643 32.7625 61.1237 35.2439ZM43.4442 15.7034C45.3052 17.5644 46.8561 19.7356 48.4069 21.9067C44.9951 21.5966 41.5832 21.5966 38.1714 21.9067C40.0324 19.7356 41.8934 17.5644 43.4442 15.7034ZM23.5936 5.15769C26.3851 3.60686 32.8986 5.77803 39.7222 11.9813L40.9629 13.222C38.1714 16.0136 35.6901 19.1152 33.5189 22.5271C29.4868 22.8372 25.7648 23.4576 22.0428 24.3881C21.7326 23.4576 21.7326 22.5271 21.4224 21.5966C19.5615 13.222 20.8021 6.70852 23.5936 5.15769ZM19.2513 50.7522C18.631 50.442 17.7005 50.442 17.0801 50.1318C12.7378 48.581 9.32597 46.72 6.84465 44.859C4.67349 42.998 3.74299 41.137 3.74299 39.5862C3.74299 36.4845 8.39548 32.4524 16.4598 29.6609C17.3903 29.3507 18.3208 29.0405 19.5615 28.7304C20.4919 32.4524 21.7326 36.1744 23.5936 39.5862C21.7326 43.3082 20.4919 47.0302 19.2513 50.7522ZM39.4121 67.8113C36.0002 70.913 32.5884 72.7739 29.7969 74.0146C27.0054 74.9451 25.1444 74.9451 23.5936 74.3248C20.8021 72.7739 19.5615 66.5706 21.1123 58.5063C21.4224 57.2657 21.7326 56.3351 21.7326 55.0945C25.4546 56.025 29.4868 56.6453 33.5189 56.6453C35.6901 59.747 38.1714 62.8486 40.9629 65.9503C40.3426 66.5706 40.0324 67.191 39.4121 67.8113ZM43.4442 63.469C41.5832 61.608 40.0324 59.4368 38.1714 57.2656H48.4069C47.1662 59.4368 45.3052 61.608 43.4442 63.469ZM66.0863 68.7418C65.466 71.5333 64.5355 73.3943 63.2948 74.0146C60.5034 75.5654 54.6102 73.3943 48.4069 68.1215C47.7866 67.5011 46.8561 66.8808 46.2357 66.2605C48.7171 63.469 51.1984 60.3673 53.3695 56.9555C57.4017 56.6453 61.1237 56.025 65.1558 55.0945C65.466 55.7148 65.466 56.6453 65.7762 57.2656C66.7067 61.608 66.7067 65.6401 66.0863 68.7418ZM69.188 50.1318C68.5677 50.1318 68.2575 50.442 67.6372 50.442C66.3965 46.72 64.8457 42.998 63.2948 39.276C64.8457 35.8642 66.3965 32.1422 67.6372 28.4202C68.5677 28.7304 69.4982 29.0405 70.1185 29.3507C78.1828 32.1422 83.1455 36.1744 83.1455 39.276C83.1455 42.998 77.8727 47.3403 69.188 50.1318Z" stroke="#AD42FF" stroke-width="1.48139" mask="url(#path-1-inside-1_68_118)"/>
<path d="M43.4442 47.3403C44.9951 47.3403 46.5459 47.0302 47.7865 46.0997C49.0272 45.1692 49.9577 43.9285 50.578 42.6878C51.1984 41.137 51.1984 39.5862 50.8882 38.0354C50.578 36.4845 49.9577 35.2439 48.7171 34.0032C47.7866 32.7625 46.2357 32.1422 44.6849 31.832C43.1341 31.5219 41.5832 31.832 40.0324 32.1422C38.4816 32.7625 37.2409 33.693 36.6206 34.9337C35.6901 36.1744 35.3799 37.7252 35.3799 39.276C35.3799 40.2065 35.6901 41.4472 36.0002 42.3777C36.3104 43.3082 36.9307 44.2387 37.5511 44.859C38.1714 45.4793 39.1019 46.0997 40.0324 46.4098C41.2731 47.0302 42.5137 47.3403 43.4442 47.3403Z" stroke="#AD42FF" stroke-width="1.48139" mask="url(#path-1-inside-1_68_118)"/>
</svg>
