<svg width="103" height="77" viewBox="0 0 103 77" fill="none" xmlns="http://www.w3.org/2000/svg">
<mask id="path-1-inside-1_68_93" fill="white">
<path d="M88.3376 44.6442L88.7579 44.638C91.4128 44.638 93.9247 45.2527 96.1532 46.3494L96.0544 46.305C98.037 47.2583 99.7299 48.718 100.96 50.5355L100.989 50.5799C102.06 52.1443 102.589 54.0133 102.498 55.9041V55.8852C102.453 56.7588 102.233 57.6147 101.851 58.4027C101.47 59.1907 100.934 59.8949 100.275 60.4739L100.269 60.4804C99.5587 61.1753 98.7065 61.7101 97.7703 62.0493L97.7224 62.0649C97.1919 62.1708 96.9001 62.0912 96.8472 61.8274C96.7942 61.5631 97.0328 61.2726 97.5633 60.9558C99.0021 60.0873 100.043 58.6866 100.422 57.0356L100.432 56.9943C100.514 55.8937 100.294 54.7916 99.7951 53.8063L99.8108 53.8411C99.1427 52.4398 98.1095 51.2423 96.8184 50.3741L96.7864 50.3552C94.7916 49.0877 92.5146 48.3271 90.1555 48.1397L90.1046 48.1367C86.7262 47.658 83.2805 48.0566 80.1022 49.2932L80.236 49.2459C80.6975 50.3201 80.9872 51.5656 81.0284 52.8714V52.8871C81.0056 54.1594 80.659 55.4049 80.0217 56.5075C79.3842 57.6104 78.4765 58.5345 77.3835 59.1937L77.3484 59.2128C76.3615 59.9099 75.2346 60.5218 74.0346 60.997L73.9232 61.0351C73.0526 61.4524 72.0897 61.6424 71.125 61.5866H71.1407C69.1267 61.166 68.6493 59.4229 69.7082 56.3574C70.1699 55.0232 70.8161 53.8665 71.6343 52.8491L71.6152 52.8714C72.6624 51.5087 73.8117 50.3138 75.0818 49.2553L75.1171 49.2269L74.8049 48.7642C74.1866 47.7006 73.6689 46.5826 73.2579 45.4239L73.2133 45.2781C72.8949 44.2216 72.6296 43.2192 72.4175 42.2704L72.2582 41.1613L70.6666 44.1688C69.287 46.7041 67.9607 48.9216 66.6873 50.8209L66.2098 51.6131C66.7446 52.9061 67.1392 54.4052 67.3175 55.9708L67.324 56.0499C67.412 57.2719 67.1824 58.496 66.6572 59.6038C66.1317 60.7118 65.3288 61.6663 64.3252 62.3754L64.3028 62.3914C63.3378 62.9778 62.3383 63.507 61.3102 63.9761L61.1193 64.0552C59.9175 64.5671 58.6337 64.862 57.3279 64.9267H57.2992C56.4119 64.9882 55.5236 64.8199 54.7205 64.4387L54.7524 64.4513C54.4371 64.1844 54.2197 63.8211 54.1337 63.4179C54.0479 63.0149 54.0986 62.5949 54.2781 62.2235L54.2718 62.2361C55.5452 60.4583 56.7994 58.9118 58.1333 57.435L58.0919 57.4823L61.5938 53.0489L60.9602 51.6228C60.4103 50.6053 59.946 49.5443 59.5721 48.4503L59.5275 48.2981C59.2093 47.242 58.9442 46.2393 58.7317 45.2909L58.5726 44.1816L56.9807 47.9846C55.7098 50.9403 54.5424 53.4746 53.4791 55.5873C51.8938 58.7564 50.5674 61.1862 49.4998 62.8762L49.1814 63.3516C47.9102 65.3567 46.6898 66.3593 45.5204 66.3593C44.3513 66.3593 43.5584 65.6198 43.1425 64.1408C42.8184 62.9561 42.6556 61.7337 42.6586 60.5058L42.6617 60.1634V60.1794L42.9799 57.9611V58.1195C42.1312 60.1245 41.2824 61.9722 40.4334 63.6621C39.9165 64.6799 39.3171 65.6539 38.6411 66.5747L38.6824 66.5145C38.0266 67.199 37.1035 67.6235 36.0817 67.6235H36.0562C35.9892 67.63 35.9128 67.63 35.8364 67.63C35.0634 67.6308 34.3177 67.345 33.745 66.8282L33.7481 66.8313C32.6189 65.6778 31.8054 64.2548 31.3859 62.6987L31.3702 62.6324C30.7447 60.8648 30.4711 58.9929 30.5646 57.121V57.1529C30.8162 54.6301 31.3223 52.32 32.0642 50.1173L31.9971 50.3424L26.2704 53.67V53.8284C27.315 56.0136 27.7532 58.4372 27.5403 60.8479L27.5438 60.7972C27.3895 63.9313 26.3851 66.9649 24.6372 69.5757L24.6786 69.5124C22.9309 72.296 20.3563 74.4688 17.3121 75.7302L17.207 75.7683C15.377 76.5728 13.3977 76.9853 11.3973 76.979C10.0666 76.979 8.77411 76.8015 7.55167 76.4655L7.65354 76.4878C6.66572 76.1612 5.82715 75.4949 5.28824 74.6084L5.27868 74.5893C4.50742 73.4683 4.06335 72.1562 3.99577 70.7991V70.7801C3.79442 68.8569 4.13503 66.9154 4.97945 65.174L4.9508 65.2373C6.73343 62.1886 9.27197 59.6462 12.3236 57.8532L12.4191 57.8025C14.6963 56.2442 17.0873 54.8573 19.5723 53.6539L19.9098 53.5053L20.7056 53.0298C19.7506 52.2903 17.9997 51.0227 15.4529 49.2269C12.2412 47.097 9.18393 44.745 6.30376 42.188L6.38334 42.2578C3.65386 39.9302 1.71736 36.8162 0.840976 33.3461L0.815509 33.2258C0.449233 30.9779 0.8505 28.6726 1.95518 26.6782L1.92971 26.7324C3.63446 23.042 6.11887 19.7613 9.21341 17.1139L9.25161 17.0822C12.5636 13.9701 16.2684 11.3004 20.2727 9.14036L20.5496 9.00411C24.4371 6.79717 28.5168 4.94416 32.7392 3.46761L33.2803 3.30282C37.6682 1.73691 42.2948 0.936054 46.9563 0.935465H46.9626C51.0309 0.807686 55.0691 1.6715 58.7254 3.45175L58.5789 3.38521C61.4439 4.68456 63.5897 7.13114 64.449 10.1228L64.4682 10.1989C65.2149 13.2137 64.9511 16.3887 63.717 19.2404L63.752 19.1485C62.4577 22.3134 60.5083 25.1716 58.0312 27.5374L58.0219 27.5467C55.5489 29.9879 52.6056 31.9066 49.3692 33.1877L49.194 33.2481C45.5301 34.7878 41.6135 35.6459 37.6383 35.7802L37.5778 35.7834C35.0728 36.0516 32.5393 35.8254 30.1223 35.118L30.259 35.1526C28.7878 34.6935 27.4283 33.9349 26.2669 32.9248L26.2798 32.9341C25.4933 32.2989 24.8493 31.5063 24.3889 30.6082L24.3697 30.567C24.0515 29.7216 24.025 29.22 24.2903 29.0616C24.5555 28.903 24.7411 28.8766 24.8473 28.9823L25.6431 29.7747C26.5314 30.5954 27.5912 31.242 28.7628 31.6539L28.8265 31.673C30.4373 32.2308 32.2964 32.5539 34.2289 32.5539C34.8495 32.5539 35.4607 32.5222 36.0626 32.4557L35.9892 32.4622C40.9195 31.9008 45.6477 30.1934 49.7926 27.4769L49.675 27.55C53.0044 25.5921 55.7775 22.8217 57.7321 19.5002L57.7894 19.3925C58.7478 17.9918 59.3207 16.2614 59.3207 14.398C59.3207 13.2539 59.1043 12.1574 58.7095 11.1496L58.7317 11.2098C58.1419 10.2726 57.3585 9.47095 56.4337 8.85793C55.5087 8.24491 54.4637 7.83456 53.3676 7.65404L53.3232 7.64769C49.8246 6.82599 46.1905 6.7536 42.6617 7.43538L42.8208 7.41002C37.7361 8.30008 32.8147 9.94637 28.2216 12.2937L28.5115 12.1574C15.4636 18.707 8.72635 25.414 8.29976 32.2784V32.4336C8.29976 35.2003 9.39168 37.7133 11.1712 39.5704L11.1681 39.5673C13.1745 41.7923 15.4279 43.7835 17.8851 45.503L18.0093 45.5854C20.1526 47.1735 22.1724 48.9204 24.0515 50.8115L24.0545 50.8178L24.373 51.1346L34.56 45.5918C35.6909 43.9526 37.0998 42.5221 38.724 41.3642L38.7747 41.3293C40.0481 40.2644 41.6654 39.5704 43.4384 39.4308L43.4673 39.4278C43.5309 39.4215 43.604 39.4215 43.6804 39.4215C44.868 39.4215 45.8867 40.1344 46.326 41.1548L46.3323 41.1739C46.7988 42.2286 46.9629 43.3914 46.8066 44.5333L46.8098 44.5017L46.501 46.064L46.9785 45.7472C47.2609 45.5336 47.5959 45.3996 47.9479 45.3588C48.3002 45.3182 48.6569 45.3722 48.9809 45.5158L48.9683 45.5093C49.324 45.6002 49.6298 45.8263 49.8199 46.1391C50.0098 46.4522 50.0687 46.8268 49.9835 47.1826L49.987 47.1733L49.5094 48.9163C48.5545 52.7169 47.9186 55.4627 47.6024 57.1529C47.3978 57.8792 47.3182 58.6345 47.3669 59.3872V59.3681C47.42 60.0019 47.4995 60.319 47.6056 60.319C47.712 60.319 47.9231 60.0019 48.2391 59.3681L48.7166 58.2589C48.8228 58.2589 48.8228 58.3116 48.7166 58.4175L50.4674 54.7729C54.6059 45.6922 56.8334 40.6214 57.1496 39.561L58.1048 36.5534C58.2109 36.3422 58.6351 36.1321 59.3782 35.9228C60.2669 35.6899 61.1841 35.583 62.103 35.606H62.0934C63.5793 35.606 64.3219 35.9755 64.3219 36.7152L64.1626 37.5074C63.7608 38.6333 63.4322 39.7842 63.1791 40.952L63.1439 41.152C62.9837 42.2252 63.0131 43.3178 63.2301 44.3812L63.2203 44.3209L63.3794 44.9515C63.7042 46.2733 64.1978 47.4331 64.8439 48.4916L64.8121 48.4377C66.0834 46.3271 67.3038 44.1625 68.4729 41.9442C69.3963 40.4133 70.2556 38.6386 70.9467 36.7815L71.0197 36.5596C71.2586 35.365 71.5325 34.3574 71.8666 33.3749L71.8157 33.5524C71.9218 33.2353 72.3749 32.9976 73.175 32.8392C73.9327 32.6871 74.8017 32.6015 75.69 32.6015H75.8047H75.7982C77.2838 32.6015 78.0766 32.9713 78.1762 33.7108L77.8578 34.3413C77.479 35.4062 77.148 36.6864 76.9251 38.0017L76.9061 38.1443C76.8063 39.2266 76.8643 40.3176 77.0781 41.3832L77.0652 41.3104V41.941C77.4311 43.3226 77.9757 44.5365 78.6888 45.6361L78.6568 45.5854L79.1344 46.6946C81.9672 45.3292 85.0759 44.6246 88.2231 44.6347H88.3473H88.341L88.3376 44.6442ZM20.088 67.63C22.3865 65.2711 23.6703 62.1125 23.6662 58.8262C23.667 57.5397 23.4716 56.2606 23.0868 55.0327L23.1122 55.1214L20.5656 56.706C17.9679 58.1796 15.7204 59.8245 13.6862 61.6943L13.7116 61.672C12.1482 63.0995 11.0234 64.9389 10.4677 66.9771L10.4486 67.0564C9.97108 69.0106 10.2098 70.2783 11.1649 70.8594C11.7474 71.1257 12.4319 71.2808 13.1481 71.2808C13.9313 71.2808 14.673 71.0969 15.3256 70.7673L15.297 70.7801C17.1206 70.1282 18.7567 69.0425 20.0626 67.6172L20.0721 67.6079L20.088 67.63ZM41.4075 53.0392C41.9382 51.666 42.5217 50.0286 43.1584 48.1272C44.0074 45.5918 44.2994 44.1139 44.0339 43.6936C43.7686 43.2729 43.2646 43.2202 42.5217 43.535C41.6642 43.9451 40.9067 44.5365 40.303 45.2685L40.2932 45.2811C39.6076 46.1484 38.9883 47.066 38.4404 48.0255L38.3832 48.1334C37.7098 49.2401 37.1833 50.4288 36.817 51.6701L36.7885 51.7778C36.0469 53.8178 35.7231 55.9848 35.8364 58.1512V58.113C35.9426 60.2238 36.282 61.3595 36.8551 61.5199C37.428 61.6805 38.0916 60.9147 38.8448 59.2223C39.5738 57.9133 40.2231 56.3923 40.707 54.7983L40.7516 54.6271C41.068 53.8791 41.2844 53.3499 41.4012 53.0392H41.4075ZM59.0628 61.4375C60.1597 60.9544 61.1069 60.1883 61.8059 59.218C62.5052 58.2477 62.9308 57.1091 63.039 55.9201L63.042 55.8947V55.7363L61.2911 57.9546L58.1111 61.4408C58.0867 61.4594 58.0667 61.4834 58.053 61.5108C58.0392 61.5384 58.0318 61.5686 58.0312 61.5992C58.0312 61.6625 58.0632 61.7197 58.1076 61.7576C58.2095 61.861 58.528 61.7554 59.0628 61.4408V61.4375ZM72.7486 58.4268C73.9376 58.0944 74.985 57.3845 75.732 56.4051C76.4789 55.426 76.8845 54.2308 76.887 53.0012V52.8777V52.884C76.8552 52.2502 76.7405 51.6545 76.5526 51.0902L76.5653 51.1377C75.3271 52.2344 74.3115 53.5462 73.5762 55.0265L73.5409 55.0993C72.584 56.9987 72.3167 58.1057 72.7388 58.4205L72.7486 58.4268Z"/>
</mask>
<path d="M88.3376 44.6442L88.7579 44.638C91.4128 44.638 93.9247 45.2527 96.1532 46.3494L96.0544 46.305C98.037 47.2583 99.7299 48.718 100.96 50.5355L100.989 50.5799C102.06 52.1443 102.589 54.0133 102.498 55.9041V55.8852C102.453 56.7588 102.233 57.6147 101.851 58.4027C101.47 59.1907 100.934 59.8949 100.275 60.4739L100.269 60.4804C99.5587 61.1753 98.7065 61.7101 97.7703 62.0493L97.7224 62.0649C97.1919 62.1708 96.9001 62.0912 96.8472 61.8274C96.7942 61.5631 97.0328 61.2726 97.5633 60.9558C99.0021 60.0873 100.043 58.6866 100.422 57.0356L100.432 56.9943C100.514 55.8937 100.294 54.7916 99.7951 53.8063L99.8108 53.8411C99.1427 52.4398 98.1095 51.2423 96.8184 50.3741L96.7864 50.3552C94.7916 49.0877 92.5146 48.3271 90.1555 48.1397L90.1046 48.1367C86.7262 47.658 83.2805 48.0566 80.1022 49.2932L80.236 49.2459C80.6975 50.3201 80.9872 51.5656 81.0284 52.8714V52.8871C81.0056 54.1594 80.659 55.4049 80.0217 56.5075C79.3842 57.6104 78.4765 58.5345 77.3835 59.1937L77.3484 59.2128C76.3615 59.9099 75.2346 60.5218 74.0346 60.997L73.9232 61.0351C73.0526 61.4524 72.0897 61.6424 71.125 61.5866H71.1407C69.1267 61.166 68.6493 59.4229 69.7082 56.3574C70.1699 55.0232 70.8161 53.8665 71.6343 52.8491L71.6152 52.8714C72.6624 51.5087 73.8117 50.3138 75.0818 49.2553L75.1171 49.2269L74.8049 48.7642C74.1866 47.7006 73.6689 46.5826 73.2579 45.4239L73.2133 45.2781C72.8949 44.2216 72.6296 43.2192 72.4175 42.2704L72.2582 41.1613L70.6666 44.1688C69.287 46.7041 67.9607 48.9216 66.6873 50.8209L66.2098 51.6131C66.7446 52.9061 67.1392 54.4052 67.3175 55.9708L67.324 56.0499C67.412 57.2719 67.1824 58.496 66.6572 59.6038C66.1317 60.7118 65.3288 61.6663 64.3252 62.3754L64.3028 62.3914C63.3378 62.9778 62.3383 63.507 61.3102 63.9761L61.1193 64.0552C59.9175 64.5671 58.6337 64.862 57.3279 64.9267H57.2992C56.4119 64.9882 55.5236 64.8199 54.7205 64.4387L54.7524 64.4513C54.4371 64.1844 54.2197 63.8211 54.1337 63.4179C54.0479 63.0149 54.0986 62.5949 54.2781 62.2235L54.2718 62.2361C55.5452 60.4583 56.7994 58.9118 58.1333 57.435L58.0919 57.4823L61.5938 53.0489L60.9602 51.6228C60.4103 50.6053 59.946 49.5443 59.5721 48.4503L59.5275 48.2981C59.2093 47.242 58.9442 46.2393 58.7317 45.2909L58.5726 44.1816L56.9807 47.9846C55.7098 50.9403 54.5424 53.4746 53.4791 55.5873C51.8938 58.7564 50.5674 61.1862 49.4998 62.8762L49.1814 63.3516C47.9102 65.3567 46.6898 66.3593 45.5204 66.3593C44.3513 66.3593 43.5584 65.6198 43.1425 64.1408C42.8184 62.9561 42.6556 61.7337 42.6586 60.5058L42.6617 60.1634V60.1794L42.9799 57.9611V58.1195C42.1312 60.1245 41.2824 61.9722 40.4334 63.6621C39.9165 64.6799 39.3171 65.6539 38.6411 66.5747L38.6824 66.5145C38.0266 67.199 37.1035 67.6235 36.0817 67.6235H36.0562C35.9892 67.63 35.9128 67.63 35.8364 67.63C35.0634 67.6308 34.3177 67.345 33.745 66.8282L33.7481 66.8313C32.6189 65.6778 31.8054 64.2548 31.3859 62.6987L31.3702 62.6324C30.7447 60.8648 30.4711 58.9929 30.5646 57.121V57.1529C30.8162 54.6301 31.3223 52.32 32.0642 50.1173L31.9971 50.3424L26.2704 53.67V53.8284C27.315 56.0136 27.7532 58.4372 27.5403 60.8479L27.5438 60.7972C27.3895 63.9313 26.3851 66.9649 24.6372 69.5757L24.6786 69.5124C22.9309 72.296 20.3563 74.4688 17.3121 75.7302L17.207 75.7683C15.377 76.5728 13.3977 76.9853 11.3973 76.979C10.0666 76.979 8.77411 76.8015 7.55167 76.4655L7.65354 76.4878C6.66572 76.1612 5.82715 75.4949 5.28824 74.6084L5.27868 74.5893C4.50742 73.4683 4.06335 72.1562 3.99577 70.7991V70.7801C3.79442 68.8569 4.13503 66.9154 4.97945 65.174L4.9508 65.2373C6.73343 62.1886 9.27197 59.6462 12.3236 57.8532L12.4191 57.8025C14.6963 56.2442 17.0873 54.8573 19.5723 53.6539L19.9098 53.5053L20.7056 53.0298C19.7506 52.2903 17.9997 51.0227 15.4529 49.2269C12.2412 47.097 9.18393 44.745 6.30376 42.188L6.38334 42.2578C3.65386 39.9302 1.71736 36.8162 0.840976 33.3461L0.815509 33.2258C0.449233 30.9779 0.8505 28.6726 1.95518 26.6782L1.92971 26.7324C3.63446 23.042 6.11887 19.7613 9.21341 17.1139L9.25161 17.0822C12.5636 13.9701 16.2684 11.3004 20.2727 9.14036L20.5496 9.00411C24.4371 6.79717 28.5168 4.94416 32.7392 3.46761L33.2803 3.30282C37.6682 1.73691 42.2948 0.936054 46.9563 0.935465H46.9626C51.0309 0.807686 55.0691 1.6715 58.7254 3.45175L58.5789 3.38521C61.4439 4.68456 63.5897 7.13114 64.449 10.1228L64.4682 10.1989C65.2149 13.2137 64.9511 16.3887 63.717 19.2404L63.752 19.1485C62.4577 22.3134 60.5083 25.1716 58.0312 27.5374L58.0219 27.5467C55.5489 29.9879 52.6056 31.9066 49.3692 33.1877L49.194 33.2481C45.5301 34.7878 41.6135 35.6459 37.6383 35.7802L37.5778 35.7834C35.0728 36.0516 32.5393 35.8254 30.1223 35.118L30.259 35.1526C28.7878 34.6935 27.4283 33.9349 26.2669 32.9248L26.2798 32.9341C25.4933 32.2989 24.8493 31.5063 24.3889 30.6082L24.3697 30.567C24.0515 29.7216 24.025 29.22 24.2903 29.0616C24.5555 28.903 24.7411 28.8766 24.8473 28.9823L25.6431 29.7747C26.5314 30.5954 27.5912 31.242 28.7628 31.6539L28.8265 31.673C30.4373 32.2308 32.2964 32.5539 34.2289 32.5539C34.8495 32.5539 35.4607 32.5222 36.0626 32.4557L35.9892 32.4622C40.9195 31.9008 45.6477 30.1934 49.7926 27.4769L49.675 27.55C53.0044 25.5921 55.7775 22.8217 57.7321 19.5002L57.7894 19.3925C58.7478 17.9918 59.3207 16.2614 59.3207 14.398C59.3207 13.2539 59.1043 12.1574 58.7095 11.1496L58.7317 11.2098C58.1419 10.2726 57.3585 9.47095 56.4337 8.85793C55.5087 8.24491 54.4637 7.83456 53.3676 7.65404L53.3232 7.64769C49.8246 6.82599 46.1905 6.7536 42.6617 7.43538L42.8208 7.41002C37.7361 8.30008 32.8147 9.94637 28.2216 12.2937L28.5115 12.1574C15.4636 18.707 8.72635 25.414 8.29976 32.2784V32.4336C8.29976 35.2003 9.39168 37.7133 11.1712 39.5704L11.1681 39.5673C13.1745 41.7923 15.4279 43.7835 17.8851 45.503L18.0093 45.5854C20.1526 47.1735 22.1724 48.9204 24.0515 50.8115L24.0545 50.8178L24.373 51.1346L34.56 45.5918C35.6909 43.9526 37.0998 42.5221 38.724 41.3642L38.7747 41.3293C40.0481 40.2644 41.6654 39.5704 43.4384 39.4308L43.4673 39.4278C43.5309 39.4215 43.604 39.4215 43.6804 39.4215C44.868 39.4215 45.8867 40.1344 46.326 41.1548L46.3323 41.1739C46.7988 42.2286 46.9629 43.3914 46.8066 44.5333L46.8098 44.5017L46.501 46.064L46.9785 45.7472C47.2609 45.5336 47.5959 45.3996 47.9479 45.3588C48.3002 45.3182 48.6569 45.3722 48.9809 45.5158L48.9683 45.5093C49.324 45.6002 49.6298 45.8263 49.8199 46.1391C50.0098 46.4522 50.0687 46.8268 49.9835 47.1826L49.987 47.1733L49.5094 48.9163C48.5545 52.7169 47.9186 55.4627 47.6024 57.1529C47.3978 57.8792 47.3182 58.6345 47.3669 59.3872V59.3681C47.42 60.0019 47.4995 60.319 47.6056 60.319C47.712 60.319 47.9231 60.0019 48.2391 59.3681L48.7166 58.2589C48.8228 58.2589 48.8228 58.3116 48.7166 58.4175L50.4674 54.7729C54.6059 45.6922 56.8334 40.6214 57.1496 39.561L58.1048 36.5534C58.2109 36.3422 58.6351 36.1321 59.3782 35.9228C60.2669 35.6899 61.1841 35.583 62.103 35.606H62.0934C63.5793 35.606 64.3219 35.9755 64.3219 36.7152L64.1626 37.5074C63.7608 38.6333 63.4322 39.7842 63.1791 40.952L63.1439 41.152C62.9837 42.2252 63.0131 43.3178 63.2301 44.3812L63.2203 44.3209L63.3794 44.9515C63.7042 46.2733 64.1978 47.4331 64.8439 48.4916L64.8121 48.4377C66.0834 46.3271 67.3038 44.1625 68.4729 41.9442C69.3963 40.4133 70.2556 38.6386 70.9467 36.7815L71.0197 36.5596C71.2586 35.365 71.5325 34.3574 71.8666 33.3749L71.8157 33.5524C71.9218 33.2353 72.3749 32.9976 73.175 32.8392C73.9327 32.6871 74.8017 32.6015 75.69 32.6015H75.8047H75.7982C77.2838 32.6015 78.0766 32.9713 78.1762 33.7108L77.8578 34.3413C77.479 35.4062 77.148 36.6864 76.9251 38.0017L76.9061 38.1443C76.8063 39.2266 76.8643 40.3176 77.0781 41.3832L77.0652 41.3104V41.941C77.4311 43.3226 77.9757 44.5365 78.6888 45.6361L78.6568 45.5854L79.1344 46.6946C81.9672 45.3292 85.0759 44.6246 88.2231 44.6347H88.3473H88.341L88.3376 44.6442ZM20.088 67.63C22.3865 65.2711 23.6703 62.1125 23.6662 58.8262C23.667 57.5397 23.4716 56.2606 23.0868 55.0327L23.1122 55.1214L20.5656 56.706C17.9679 58.1796 15.7204 59.8245 13.6862 61.6943L13.7116 61.672C12.1482 63.0995 11.0234 64.9389 10.4677 66.9771L10.4486 67.0564C9.97108 69.0106 10.2098 70.2783 11.1649 70.8594C11.7474 71.1257 12.4319 71.2808 13.1481 71.2808C13.9313 71.2808 14.673 71.0969 15.3256 70.7673L15.297 70.7801C17.1206 70.1282 18.7567 69.0425 20.0626 67.6172L20.0721 67.6079L20.088 67.63ZM41.4075 53.0392C41.9382 51.666 42.5217 50.0286 43.1584 48.1272C44.0074 45.5918 44.2994 44.1139 44.0339 43.6936C43.7686 43.2729 43.2646 43.2202 42.5217 43.535C41.6642 43.9451 40.9067 44.5365 40.303 45.2685L40.2932 45.2811C39.6076 46.1484 38.9883 47.066 38.4404 48.0255L38.3832 48.1334C37.7098 49.2401 37.1833 50.4288 36.817 51.6701L36.7885 51.7778C36.0469 53.8178 35.7231 55.9848 35.8364 58.1512V58.113C35.9426 60.2238 36.282 61.3595 36.8551 61.5199C37.428 61.6805 38.0916 60.9147 38.8448 59.2223C39.5738 57.9133 40.2231 56.3923 40.707 54.7983L40.7516 54.6271C41.068 53.8791 41.2844 53.3499 41.4012 53.0392H41.4075ZM59.0628 61.4375C60.1597 60.9544 61.1069 60.1883 61.8059 59.218C62.5052 58.2477 62.9308 57.1091 63.039 55.9201L63.042 55.8947V55.7363L61.2911 57.9546L58.1111 61.4408C58.0867 61.4594 58.0667 61.4834 58.053 61.5108C58.0392 61.5384 58.0318 61.5686 58.0312 61.5992C58.0312 61.6625 58.0632 61.7197 58.1076 61.7576C58.2095 61.861 58.528 61.7554 59.0628 61.4408V61.4375ZM72.7486 58.4268C73.9376 58.0944 74.985 57.3845 75.732 56.4051C76.4789 55.426 76.8845 54.2308 76.887 53.0012V52.8777V52.884C76.8552 52.2502 76.7405 51.6545 76.5526 51.0902L76.5653 51.1377C75.3271 52.2344 74.3115 53.5462 73.5762 55.0265L73.5409 55.0993C72.584 56.9987 72.3167 58.1057 72.7388 58.4205L72.7486 58.4268Z" fill="#AD42FF" stroke="#AD42FF" stroke-width="1.22" mask="url(#path-1-inside-1_68_93)"/>
</svg>
