<svg width="99" height="61" viewBox="0 0 99 61" fill="none" xmlns="http://www.w3.org/2000/svg">
<path d="M90.9603 17.7775C93.4701 16.6938 95.8111 14.8484 97.9875 12.261C96.3075 17.9545 93.6272 22.2618 89.9653 25.2134C85.9413 28.4568 80.6937 30.0941 74.1895 30.0941C68.149 30.0941 63.765 28.6815 60.2968 26.6692C56.82 24.652 54.248 22.0245 51.8293 19.5524C51.8292 19.5524 51.8292 19.5524 51.8292 19.5523L51.7888 19.511C48.8527 16.5076 46.1123 13.7045 42.2635 12.736C38.9075 11.8907 35.745 12.0997 32.7906 13.3754C30.2808 14.4591 27.9398 16.3045 25.7634 18.8919C27.4433 13.1984 30.1236 8.8911 33.7855 5.93951C37.8095 2.69611 43.0571 1.05882 49.5614 1.05882C55.604 1.05882 59.989 2.47144 63.4571 4.48366C66.9339 6.50091 69.5048 9.12836 71.9215 11.6004L72.1863 11.3416L71.9215 11.6005L71.9619 11.6418C74.898 14.6452 77.6384 17.4484 81.4875 18.4169C84.8433 19.2622 88.0059 19.0532 90.9603 17.7775ZM8.1625 43.1513C5.65263 44.2351 3.31165 46.0804 1.13526 48.6679C2.81517 42.9743 5.49548 38.667 9.15743 35.7154C13.1814 32.472 18.4291 30.8348 24.9333 30.8348C30.9759 30.8348 35.3609 32.2474 38.829 34.2596C42.3058 36.2768 44.8767 38.9043 47.2934 41.3764L47.3339 41.4178C50.27 44.4212 53.0103 47.2244 56.8595 48.1929C60.2153 49.0381 63.3778 48.8291 66.3322 47.5534C68.842 46.4697 71.183 44.6244 73.3594 42.0369C71.6795 47.7304 68.9991 52.0377 65.3372 54.9893C61.3132 58.2327 56.0656 59.87 49.5614 59.87C43.5209 59.87 39.1369 58.4574 35.6687 56.4452C32.1919 54.4279 29.6199 51.8005 27.2012 49.3284C27.2011 49.3283 27.2011 49.3283 27.2011 49.3283L27.1606 49.2868C24.2246 46.2835 21.4843 43.4804 17.6353 42.5119C14.2794 41.6666 11.1169 41.8756 8.1625 43.1513Z" fill="#AD42FF" stroke="#AD42FF" stroke-width="0.740695"/>
</svg>
