<svg width="77" height="51" viewBox="0 0 77 51" fill="none" xmlns="http://www.w3.org/2000/svg">
<path d="M64.2186 0.686324C66.839 1.29587 69.2205 2.66815 71.062 4.62978C72.0764 5.69149 72.9573 6.87315 73.6849 8.14864C73.7188 8.28705 68.9624 11.4825 66.078 13.2651C65.9733 13.3358 65.5576 12.8834 65.0867 12.1876C64.5596 11.2818 63.8117 10.5243 62.9125 9.9859C62.0136 9.44752 60.9928 9.14583 59.9456 9.10913C56.6299 8.88132 54.4934 10.6176 54.5089 13.5205C54.4801 14.2338 54.6429 14.9416 54.9798 15.5708C55.7095 17.0793 57.0641 17.9844 61.3186 19.8285C69.1503 23.1994 72.5121 25.4221 74.587 28.5806C75.7598 30.5762 76.4821 32.8043 76.7033 35.1085C76.9244 37.4127 76.6392 39.7374 75.8676 41.9199C74.8069 44.313 73.1251 46.3791 70.9965 47.9028C68.8678 49.4268 66.3703 50.3531 63.7629 50.5858C60.9913 50.9038 58.1908 50.8747 55.4263 50.4996C51.1918 49.8039 47.2909 47.7716 44.2944 44.6997C43.162 43.4247 42.2035 42.0056 41.4437 40.4792C41.7631 40.2413 42.0996 40.0273 42.4503 39.8389C42.9367 39.5618 44.7776 38.5028 46.5139 37.496L49.6663 35.6489L50.3251 36.6094C51.4348 38.1962 52.8473 39.548 54.4811 40.5868C56.1312 41.4919 58.0005 41.9209 59.8803 41.8258C61.7599 41.7305 63.5763 41.1151 65.1266 40.0482C65.9263 39.2687 66.4262 38.2326 66.5388 37.1214C66.6513 36.0104 66.3696 34.8952 65.7423 33.9712C64.8926 32.7551 63.1563 31.733 58.2216 29.5936C54.352 28.2888 50.8275 26.1259 47.9115 23.2671C46.523 21.6847 45.4975 19.8174 44.9069 17.7967C44.4703 15.4945 44.406 13.1371 44.716 10.8146C45.2953 8.14199 46.6824 5.71194 48.6891 3.85399C50.6955 1.99605 53.2248 0.79986 55.9342 0.42773C58.693 0.0979593 61.4856 0.185142 64.2186 0.686324ZM38.5344 5.25164L38.5684 9.72779H24.3149V50.2041H14.2634V9.73715H0.00991676V5.34104C-0.0279859 3.83552 0.0131183 2.32902 0.133057 0.827935C0.185392 0.757006 8.8514 0.723266 19.3585 0.741737L38.479 0.793949L38.5344 5.25164Z" fill="#AD42FF"/>
</svg>
